SplineFontDB: 3.2
FontName: noto_unicase_regular
FullName: noto_unicase_regular
FamilyName: noto_unicase_regular
Weight: Regular
Copyright: Copyright 2015-2021 Google LLC. All Rights Reserved.
Version: 2.007
ItalicAngle: 0
UnderlinePosition: -125
UnderlineWidth: 50
Ascent: 800
Descent: 200
InvalidEm: 0
sfntRevision: 0x000201cb
LayerCount: 2
Layer: 0 1 "Back" 1
Layer: 1 1 "Fore" 0
XUID: [1021 467 -1121320856 6039229]
StyleMap: 0x0040
FSType: 0
OS2Version: 4
OS2_WeightWidthSlopeOnly: 0
OS2_UseTypoMetrics: 1
CreationTime: 1644254902
ModificationTime: 1680412174
PfmFamily: 17
TTFWeight: 400
TTFWidth: 5
LineGap: 0
VLineGap: 0
Panose: 2 11 5 2 4 5 4 2 2 4
OS2TypoAscent: 1069
OS2TypoAOffset: 0
OS2TypoDescent: -293
OS2TypoDOffset: 0
OS2TypoLinegap: 0
OS2WinAscent: 1347
OS2WinAOffset: 0
OS2WinDescent: 395
OS2WinDOffset: 0
HheadAscent: 1069
HheadAOffset: 0
HheadDescent: -293
HheadDOffset: 0
OS2SubXSize: 650
OS2SubYSize: 600
OS2SubXOff: 0
OS2SubYOff: 75
OS2SupXSize: 650
OS2SupYSize: 600
OS2SupXOff: 0
OS2SupYOff: 350
OS2StrikeYSize: 50
OS2StrikeYPos: 322
OS2CapHeight: 714
OS2XHeight: 536
OS2Vendor: 'GOOG'
OS2CodePages: 0000019f.00000000
OS2UnicodeRanges: e00082ff.4000205f.08000029.00100000
Lookup: 1 0 0 "'aalt' Access All Alternates lookup 0" { "'aalt' Access All Alternates lookup 0 subtable"  } ['aalt' ('DFLT' <'dflt' > 'cyrl' <'MKD ' 'SRB ' 'dflt' > 'grek' <'dflt' > 'latn' <'APPH' 'CAT ' 'IPPH' 'MAH ' 'MOL ' 'NAV ' 'ROM ' 'dflt' > ) ]
Lookup: 3 0 0 "'aalt' Access All Alternates lookup 1" { "'aalt' Access All Alternates lookup 1 subtable"  } ['aalt' ('DFLT' <'dflt' > 'cyrl' <'MKD ' 'SRB ' 'dflt' > 'grek' <'dflt' > 'latn' <'APPH' 'CAT ' 'IPPH' 'MAH ' 'MOL ' 'NAV ' 'ROM ' 'dflt' > ) ]
Lookup: 4 0 0 "'ccmp' Glyph Composition/Decomposition lookup 2" { "'ccmp' Glyph Composition/Decomposition lookup 2 subtable"  } ['ccmp' ('DFLT' <'dflt' > 'cyrl' <'MKD ' 'SRB ' 'dflt' > 'grek' <'dflt' > 'latn' <'APPH' 'CAT ' 'IPPH' 'MAH ' 'MOL ' 'NAV ' 'ROM ' 'dflt' > ) ]

StartChar: .notdef
Encoding: 65536 -1 0
Width: 600
Flags: W
LayerCount: 2
Fore
SplineSet
94 0 m 1,0,-1
 94 714 l 1,1,-1
 505 714 l 1,2,-1
 505 0 l 1,3,-1
 94 0 l 1,0,-1
145 51 m 1,4,-1
 454 51 l 1,5,-1
 454 663 l 1,6,-1
 145 663 l 1,7,-1
 145 51 l 1,4,-1
EndSplineSet
EndChar

StartChar: exclam
Encoding: 33 33 4
Width: 269
Flags: W
LayerCount: 2
Fore
SplineSet
163 201 m 1,0,-1
 106 201 l 1,1,-1
 81 714 l 1,2,-1
 188 714 l 1,3,-1
 163 201 l 1,0,-1
72 54 m 0,4,5
 72 91 72 91 90 106 c 128,-1,6
 108 121 108 121 134 121 c 0,7,8
 159 121 159 121 177.5 106 c 128,-1,9
 196 91 196 91 196 54 c 0,10,11
 196 18 196 18 177.5 2 c 128,-1,12
 159 -14 159 -14 134 -14 c 0,13,14
 108 -14 108 -14 90 2 c 128,-1,15
 72 18 72 18 72 54 c 0,4,5
EndSplineSet
Substitution2: "'locl' Localized Forms lookup 166 subtable" exclam.deva
Substitution2: "'smcp' Lowercase to Small Capitals lookup 37 subtable" exclam.sc
Substitution2: "'c2sc' Capitals to Small Capitals lookup 36 subtable" exclam.sc
Substitution2: "'aalt' Access All Alternates lookup 0 subtable" exclam.sc
EndChar

StartChar: quotedbl
Encoding: 34 34 5
Width: 408
Flags: W
LayerCount: 2
Fore
SplineSet
160 714 m 1,0,-1
 140 456 l 1,1,-1
 85 456 l 1,2,-1
 65 714 l 1,3,-1
 160 714 l 1,0,-1
343 714 m 1,4,-1
 323 456 l 1,5,-1
 268 456 l 1,6,-1
 248 714 l 1,7,-1
 343 714 l 1,4,-1
EndSplineSet
Substitution2: "'locl' Localized Forms lookup 166 subtable" quotedbl.deva
EndChar

StartChar: numbersign
Encoding: 35 35 6
Width: 646
Flags: W
LayerCount: 2
Fore
SplineSet
480 436 m 1,0,-1
 449 276 l 1,1,-1
 586 276 l 1,2,-1
 586 209 l 1,3,-1
 436 209 l 1,4,-1
 395 0 l 1,5,-1
 324 0 l 1,6,-1
 365 209 l 1,7,-1
 222 209 l 1,8,-1
 183 0 l 1,9,-1
 113 0 l 1,10,-1
 151 209 l 1,11,-1
 25 209 l 1,12,-1
 25 276 l 1,13,-1
 164 276 l 1,14,-1
 196 436 l 1,15,-1
 62 436 l 1,16,-1
 62 502 l 1,17,-1
 208 502 l 1,18,-1
 248 714 l 1,19,-1
 320 714 l 1,20,-1
 280 502 l 1,21,-1
 424 502 l 1,22,-1
 464 714 l 1,23,-1
 533 714 l 1,24,-1
 493 502 l 1,25,-1
 620 502 l 1,26,-1
 620 436 l 1,27,-1
 480 436 l 1,0,-1
235 276 m 1,28,-1
 378 276 l 1,29,-1
 409 436 l 1,30,-1
 266 436 l 1,31,-1
 235 276 l 1,28,-1
EndSplineSet
Substitution2: "'locl' Localized Forms lookup 166 subtable" numbersign.deva
EndChar

StartChar: dollar
Encoding: 36 36 7
Width: 572
Flags: W
LayerCount: 2
Fore
SplineSet
253 49 m 1,0,1
 198 50 198 50 146 58.5 c 128,-1,2
 94 67 94 67 62 82 c 1,3,-1
 62 167 l 1,4,5
 96 151 96 151 149 139 c 128,-1,6
 202 127 202 127 253 126 c 1,7,-1
 253 328 l 1,8,9
 154 355 154 355 108 396 c 128,-1,10
 62 437 62 437 62 508 c 0,11,12
 62 582 62 582 113.5 624 c 128,-1,13
 165 666 165 666 253 671 c 1,14,-1
 253 759 l 1,15,-1
 317 759 l 1,16,-1
 317 672 l 1,17,18
 370 671 370 671 413.5 660.5 c 128,-1,19
 457 650 457 650 493 635 c 1,20,-1
 466 561 l 1,21,22
 434 574 434 574 395.5 583.5 c 128,-1,23
 357 593 357 593 317 596 c 1,24,-1
 317 395 l 1,25,26
 383 376 383 376 427 354.5 c 128,-1,27
 471 333 471 333 493.5 301.5 c 128,-1,28
 516 270 516 270 516 220 c 0,29,30
 516 150 516 150 464 106.5 c 128,-1,31
 412 63 412 63 317 53 c 1,32,-1
 317 -58 l 1,33,-1
 253 -58 l 1,34,-1
 253 49 l 1,0,1
253 594 m 1,35,36
 199 590 199 590 173.5 569 c 128,-1,37
 148 548 148 548 148 515 c 0,38,39
 148 475 148 475 170.5 453.5 c 128,-1,40
 193 432 193 432 253 417 c 1,41,-1
 253 594 l 1,35,36
317 131 m 1,42,43
 376 137 376 137 403 158.5 c 128,-1,44
 430 180 430 180 430 214 c 0,45,46
 430 252 430 252 406 271.5 c 128,-1,47
 382 291 382 291 317 307 c 1,48,-1
 317 131 l 1,42,43
EndSplineSet
EndChar

StartChar: percent
Encoding: 37 37 8
Width: 831
Flags: W
LayerCount: 2
Fore
SplineSet
195 724 m 0,0,1
 269 724 269 724 307 665.5 c 128,-1,2
 345 607 345 607 345 501 c 256,3,4
 345 395 345 395 308.5 335.5 c 128,-1,5
 272 276 272 276 195 276 c 0,6,7
 124 276 124 276 86.5 335.5 c 128,-1,8
 49 395 49 395 49 501 c 256,9,10
 49 607 49 607 84 665.5 c 128,-1,11
 119 724 119 724 195 724 c 0,0,1
652 714 m 1,12,-1
 256 0 l 1,13,-1
 179 0 l 1,14,-1
 575 714 l 1,15,-1
 652 714 l 1,12,-1
195 662 m 0,16,17
 157 662 157 662 139.5 621.5 c 128,-1,18
 122 581 122 581 122 501 c 256,19,20
 122 421 122 421 139.5 380 c 128,-1,21
 157 339 157 339 195 339 c 0,22,23
 272 339 272 339 272 501 c 0,24,25
 272 662 272 662 195 662 c 0,16,17
632 438 m 0,26,27
 705 438 705 438 743.5 379.5 c 128,-1,28
 782 321 782 321 782 215 c 256,29,30
 782 109 782 109 745.5 49.5 c 128,-1,31
 709 -10 709 -10 632 -10 c 0,32,33
 561 -10 561 -10 523.5 49.5 c 128,-1,34
 486 109 486 109 486 215 c 256,35,36
 486 321 486 321 521 379.5 c 128,-1,37
 556 438 556 438 632 438 c 0,26,27
632 375 m 0,38,39
 594 375 594 375 576.5 335 c 128,-1,40
 559 295 559 295 559 215 c 0,41,42
 559 134 559 134 576.5 93.5 c 128,-1,43
 594 53 594 53 632 53 c 0,44,45
 709 53 709 53 709 215 c 0,46,47
 709 375 709 375 632 375 c 0,38,39
EndSplineSet
Substitution2: "'locl' Localized Forms lookup 166 subtable" percent.deva
EndChar

StartChar: ampersand
Encoding: 38 38 9
Width: 732
Flags: W
LayerCount: 2
Fore
SplineSet
304 725 m 0,0,1
 384 725 384 725 430.5 684.5 c 128,-1,2
 477 644 477 644 477 571 c 0,3,4
 477 508 477 508 436.5 464 c 128,-1,5
 396 420 396 420 334 384 c 1,6,-1
 527 198 l 1,7,8
 553 229 553 229 569.5 269.5 c 128,-1,9
 586 310 586 310 597 357 c 1,10,-1
 686 357 l 1,11,12
 670 293 670 293 646 238 c 128,-1,13
 622 183 622 183 584 142 c 1,14,-1
 730 0 l 1,15,-1
 611 0 l 1,16,-1
 524 84 l 1,17,18
 477 42 477 42 419 16 c 128,-1,19
 361 -10 361 -10 278 -10 c 0,20,21
 175 -10 175 -10 114 41 c 128,-1,22
 53 92 53 92 53 186 c 0,23,24
 53 263 53 263 94.5 309.5 c 128,-1,25
 136 356 136 356 207 396 c 1,26,27
 175 432 175 432 147.5 473 c 128,-1,28
 120 514 120 514 120 569 c 0,29,30
 120 643 120 643 169.5 684 c 128,-1,31
 219 725 219 725 304 725 c 0,0,1
301 653 m 0,32,33
 259 653 259 653 232.5 631 c 128,-1,34
 206 609 206 609 206 570 c 0,35,36
 206 534 206 534 225 503.5 c 128,-1,37
 244 473 244 473 280 436 c 1,38,39
 339 470 339 470 364.5 500.5 c 128,-1,40
 390 531 390 531 390 571 c 0,41,42
 390 607 390 607 366 630 c 128,-1,43
 342 653 342 653 301 653 c 0,32,33
260 341 m 1,44,45
 206 309 206 309 175.5 276 c 128,-1,46
 145 243 145 243 145 189 c 0,47,48
 145 134 145 134 182 101 c 128,-1,49
 219 68 219 68 281 68 c 0,50,51
 345 68 345 68 391 89 c 128,-1,52
 437 110 437 110 468 139 c 1,53,-1
 260 341 l 1,44,45
EndSplineSet
Substitution2: "'smcp' Lowercase to Small Capitals lookup 37 subtable" ampersand.sc
Substitution2: "'c2sc' Capitals to Small Capitals lookup 36 subtable" ampersand.sc
Substitution2: "'aalt' Access All Alternates lookup 0 subtable" ampersand.sc
EndChar

StartChar: quotesingle
Encoding: 39 39 10
Width: 225
Flags: W
LayerCount: 2
Fore
SplineSet
160 714 m 1,0,-1
 140 456 l 1,1,-1
 85 456 l 1,2,-1
 65 714 l 1,3,-1
 160 714 l 1,0,-1
EndSplineSet
Substitution2: "'locl' Localized Forms lookup 166 subtable" quotesingle.deva
EndChar

StartChar: parenleft
Encoding: 40 40 11
Width: 300
Flags: W
LayerCount: 2
Fore
SplineSet
40 274 m 0,0,1
 40 396 40 396 75.5 509.5 c 128,-1,2
 111 623 111 623 187 714 c 1,3,-1
 270 714 l 1,4,5
 200 620 200 620 164.5 507 c 128,-1,6
 129 394 129 394 129 275 c 0,7,8
 129 159 129 159 164.5 47.5 c 128,-1,9
 200 -64 200 -64 269 -158 c 1,10,-1
 187 -158 l 1,11,12
 111 -70 111 -70 75.5 41.5 c 128,-1,13
 40 153 40 153 40 274 c 0,0,1
EndSplineSet
Substitution2: "'locl' Localized Forms lookup 166 subtable" parenleft.deva
Substitution2: "'smcp' Lowercase to Small Capitals lookup 37 subtable" parenleft.sc
Substitution2: "'c2sc' Capitals to Small Capitals lookup 36 subtable" parenleft.sc
Substitution2: "'sups' Superscript lookup 22 subtable" uni207D
Substitution2: "'sinf' Scientific Inferiors lookup 21 subtable" uni208D
Substitution2: "'subs' Subscript lookup 20 subtable" uni208D
AlternateSubs2: "'aalt' Access All Alternates lookup 1 subtable" uni208D uni207D parenleft.sc
EndChar

StartChar: parenright
Encoding: 41 41 12
Width: 300
Flags: W
LayerCount: 2
Fore
SplineSet
260 274 m 0,0,1
 260 153 260 153 224.5 41.5 c 128,-1,2
 189 -70 189 -70 113 -158 c 1,3,-1
 31 -158 l 1,4,5
 100 -64 100 -64 135.5 47.5 c 128,-1,6
 171 159 171 159 171 275 c 0,7,8
 171 394 171 394 135.5 507 c 128,-1,9
 100 620 100 620 30 714 c 1,10,-1
 113 714 l 1,11,12
 189 623 189 623 224.5 509.5 c 128,-1,13
 260 396 260 396 260 274 c 0,0,1
EndSplineSet
Substitution2: "'locl' Localized Forms lookup 166 subtable" parenright.deva
Substitution2: "'smcp' Lowercase to Small Capitals lookup 37 subtable" parenright.sc
Substitution2: "'c2sc' Capitals to Small Capitals lookup 36 subtable" parenright.sc
Substitution2: "'sups' Superscript lookup 22 subtable" uni207E
Substitution2: "'sinf' Scientific Inferiors lookup 21 subtable" uni208E
Substitution2: "'subs' Subscript lookup 20 subtable" uni208E
AlternateSubs2: "'aalt' Access All Alternates lookup 1 subtable" uni208E uni207E parenright.sc
EndChar

StartChar: asterisk
Encoding: 42 42 13
Width: 551
Flags: W
LayerCount: 2
Fore
SplineSet
322 760 m 1,0,-1
 302 568 l 1,1,-1
 494 622 l 1,2,-1
 508 530 l 1,3,-1
 324 515 l 1,4,-1
 443 357 l 1,5,-1
 357 310 l 1,6,-1
 272 485 l 1,7,-1
 195 310 l 1,8,-1
 106 357 l 1,9,-1
 223 515 l 1,10,-1
 41 530 l 1,11,-1
 55 622 l 1,12,-1
 245 568 l 1,13,-1
 224 760 l 1,14,-1
 322 760 l 1,0,-1
EndSplineSet
Substitution2: "'locl' Localized Forms lookup 166 subtable" asterisk.deva
EndChar

StartChar: plus
Encoding: 43 43 14
Width: 572
Flags: W
LayerCount: 2
Fore
SplineSet
321 388 m 1,0,-1
 520 388 l 1,1,-1
 520 317 l 1,2,-1
 321 317 l 1,3,-1
 321 111 l 1,4,-1
 249 111 l 1,5,-1
 249 317 l 1,6,-1
 50 317 l 1,7,-1
 50 388 l 1,8,-1
 249 388 l 1,9,-1
 249 595 l 1,10,-1
 321 595 l 1,11,-1
 321 388 l 1,0,-1
EndSplineSet
Substitution2: "'locl' Localized Forms lookup 166 subtable" plus.deva
Substitution2: "'sups' Superscript lookup 22 subtable" uni207A
Substitution2: "'sinf' Scientific Inferiors lookup 21 subtable" uni208A
Substitution2: "'subs' Subscript lookup 20 subtable" uni208A
AlternateSubs2: "'aalt' Access All Alternates lookup 1 subtable" uni208A uni207A
EndChar

StartChar: comma
Encoding: 44 44 15
Width: 268
Flags: W
LayerCount: 2
Fore
SplineSet
192 105 m 1,0,1
 179 52 179 52 154.5 -11.5 c 128,-1,2
 130 -75 130 -75 106 -129 c 1,3,-1
 41 -129 l 1,4,5
 55 -72 55 -72 69.5 -4 c 128,-1,6
 84 64 84 64 91 116 c 1,7,-1
 185 116 l 1,8,-1
 192 105 l 1,0,1
EndSplineSet
Substitution2: "'locl' Localized Forms lookup 166 subtable" comma.deva
EndChar

StartChar: hyphen
Encoding: 45 45 16
Width: 322
Flags: W
LayerCount: 2
Fore
SplineSet
40 229 m 1,0,-1
 40 307 l 1,1,-1
 282 307 l 1,2,-1
 282 229 l 1,3,-1
 40 229 l 1,0,-1
EndSplineSet
Substitution2: "'locl' Localized Forms lookup 166 subtable" hyphen.deva
EndChar

StartChar: period
Encoding: 46 46 17
Width: 268
Flags: W
LayerCount: 2
Fore
SplineSet
72 54 m 0,0,1
 72 91 72 91 90 106 c 128,-1,2
 108 121 108 121 133 121 c 0,3,4
 159 121 159 121 177.5 106 c 128,-1,5
 196 91 196 91 196 54 c 0,6,7
 196 18 196 18 177.5 2 c 128,-1,8
 159 -14 159 -14 133 -14 c 0,9,10
 108 -14 108 -14 90 2 c 128,-1,11
 72 18 72 18 72 54 c 0,0,1
EndSplineSet
Substitution2: "'locl' Localized Forms lookup 166 subtable" period.deva
EndChar

StartChar: slash
Encoding: 47 47 18
AltUni2: 002215.ffffffff.0
Width: 372
Flags: W
LayerCount: 2
Fore
SplineSet
362 714 m 1,0,-1
 96 0 l 1,1,-1
 10 0 l 1,2,-1
 276 714 l 1,3,-1
 362 714 l 1,0,-1
EndSplineSet
Substitution2: "'locl' Localized Forms lookup 166 subtable" slash.deva
Substitution2: "'frac' Diagonal Fractions lookup 25 subtable" fraction
Substitution2: "'aalt' Access All Alternates lookup 0 subtable" fraction
EndChar

StartChar: zero
Encoding: 48 48 19
Width: 572
Flags: W
LayerCount: 2
Fore
SplineSet
523 358 m 0,0,1
 523 243 523 243 499 160.5 c 128,-1,2
 475 78 475 78 423 34 c 128,-1,3
 371 -10 371 -10 285 -10 c 0,4,5
 164 -10 164 -10 106.5 87.5 c 128,-1,6
 49 185 49 185 49 358 c 0,7,8
 49 474 49 474 72.5 556 c 128,-1,9
 96 638 96 638 148 681.5 c 128,-1,10
 200 725 200 725 285 725 c 0,11,12
 405 725 405 725 464 628.5 c 128,-1,13
 523 532 523 532 523 358 c 0,0,1
137 358 m 0,14,15
 137 211 137 211 170.5 138 c 128,-1,16
 204 65 204 65 285 65 c 0,17,18
 365 65 365 65 399.5 137.5 c 128,-1,19
 434 210 434 210 434 358 c 0,20,21
 434 504 434 504 399.5 577 c 128,-1,22
 365 650 365 650 285 650 c 0,23,24
 204 650 204 650 170.5 577 c 128,-1,25
 137 504 137 504 137 358 c 0,14,15
EndSplineSet
Substitution2: "'locl' Localized Forms lookup 166 subtable" zero.deva
Substitution2: "'zero' Slashed Zero lookup 41 subtable" zero.slash
Substitution2: "'case' Case-Sensitive Forms lookup 38 subtable" zero.lf
Substitution2: "'onum' Oldstyle Figures lookup 35 subtable" zero.tosf
Substitution2: "'pnum' Proportional Numbers lookup 33 subtable" zero.lf
Substitution2: "'frac' Diagonal Fractions lookup 26 subtable" zero.numr
Substitution2: "'dnom' Denominators lookup 24 subtable" zero.dnom
Substitution2: "'numr' Numerators lookup 23 subtable" zero.numr
Substitution2: "'sups' Superscript lookup 22 subtable" uni2070
Substitution2: "'sinf' Scientific Inferiors lookup 21 subtable" uni2080
Substitution2: "'subs' Subscript lookup 20 subtable" uni2080
AlternateSubs2: "'aalt' Access All Alternates lookup 1 subtable" uni2070 zero.tosf zero.lf zero.slash uni2080 zero.dnom zero.numr
EndChar

StartChar: one
Encoding: 49 49 20
Width: 572
Flags: W
LayerCount: 2
Fore
SplineSet
355 0 m 1,0,-1
 269 0 l 1,1,-1
 269 499 l 2,2,3
 269 542 269 542 270 568 c 128,-1,4
 271 594 271 594 273 622 c 1,5,6
 257 606 257 606 244 595 c 128,-1,7
 231 584 231 584 211 567 c 2,8,-1
 135 505 l 1,9,-1
 89 564 l 1,10,-1
 282 714 l 1,11,-1
 355 714 l 1,12,-1
 355 0 l 1,0,-1
EndSplineSet
Substitution2: "'locl' Localized Forms lookup 166 subtable" one.deva
Substitution2: "'case' Case-Sensitive Forms lookup 38 subtable" one.lf
Substitution2: "'onum' Oldstyle Figures lookup 35 subtable" one.tosf
Substitution2: "'pnum' Proportional Numbers lookup 33 subtable" one.lf
Substitution2: "'frac' Diagonal Fractions lookup 26 subtable" one.numr
Substitution2: "'dnom' Denominators lookup 24 subtable" one.dnom
Substitution2: "'numr' Numerators lookup 23 subtable" one.numr
Substitution2: "'sups' Superscript lookup 22 subtable" uni00B9
Substitution2: "'sinf' Scientific Inferiors lookup 21 subtable" uni2081
Substitution2: "'subs' Subscript lookup 20 subtable" uni2081
AlternateSubs2: "'aalt' Access All Alternates lookup 1 subtable" uni00B9 one.tosf one.lf uni2081 one.dnom one.numr
EndChar

StartChar: two
Encoding: 50 50 21
Width: 572
Flags: W
LayerCount: 2
Fore
SplineSet
520 0 m 1,0,-1
 48 0 l 1,1,-1
 48 73 l 1,2,-1
 235 262 l 2,3,4
 289 316 289 316 326 358 c 128,-1,5
 363 400 363 400 382 440.5 c 128,-1,6
 401 481 401 481 401 529 c 0,7,8
 401 588 401 588 366 618.5 c 128,-1,9
 331 649 331 649 275 649 c 0,10,11
 223 649 223 649 183.5 631 c 128,-1,12
 144 613 144 613 103 581 c 1,13,-1
 56 640 l 1,14,15
 98 675 98 675 152.5 699.5 c 128,-1,16
 207 724 207 724 275 724 c 0,17,18
 375 724 375 724 433 673.5 c 128,-1,19
 491 623 491 623 491 534 c 0,20,21
 491 478 491 478 468 429 c 128,-1,22
 445 380 445 380 404 332.5 c 128,-1,23
 363 285 363 285 308 231 c 2,24,-1
 159 84 l 1,25,-1
 159 80 l 1,26,-1
 520 80 l 1,27,-1
 520 0 l 1,0,-1
EndSplineSet
Substitution2: "'locl' Localized Forms lookup 166 subtable" two.deva
Substitution2: "'case' Case-Sensitive Forms lookup 38 subtable" two.lf
Substitution2: "'onum' Oldstyle Figures lookup 35 subtable" two.tosf
Substitution2: "'pnum' Proportional Numbers lookup 33 subtable" two.lf
Substitution2: "'frac' Diagonal Fractions lookup 26 subtable" two.numr
Substitution2: "'dnom' Denominators lookup 24 subtable" two.dnom
Substitution2: "'numr' Numerators lookup 23 subtable" two.numr
Substitution2: "'sups' Superscript lookup 22 subtable" uni00B2
Substitution2: "'sinf' Scientific Inferiors lookup 21 subtable" uni2082
Substitution2: "'subs' Subscript lookup 20 subtable" uni2082
AlternateSubs2: "'aalt' Access All Alternates lookup 1 subtable" uni00B2 two.tosf two.lf uni2082 two.dnom two.numr
EndChar

StartChar: three
Encoding: 51 51 22
Width: 572
Flags: W
LayerCount: 2
Fore
SplineSet
493 547 m 0,0,1
 493 475 493 475 453 432.5 c 128,-1,2
 413 390 413 390 345 376 c 1,3,-1
 345 372 l 1,4,5
 431 362 431 362 473 318 c 128,-1,6
 515 274 515 274 515 203 c 0,7,8
 515 141 515 141 486 92.5 c 128,-1,9
 457 44 457 44 396.5 17 c 128,-1,10
 336 -10 336 -10 241 -10 c 0,11,12
 185 -10 185 -10 137 -1.5 c 128,-1,13
 89 7 89 7 45 29 c 1,14,-1
 45 111 l 1,15,16
 90 89 90 89 142 76.5 c 128,-1,17
 194 64 194 64 242 64 c 0,18,19
 338 64 338 64 380.5 101.5 c 128,-1,20
 423 139 423 139 423 205 c 0,21,22
 423 272 423 272 370.5 301.5 c 128,-1,23
 318 331 318 331 223 331 c 2,24,-1
 154 331 l 1,25,-1
 154 406 l 1,26,-1
 224 406 l 2,27,28
 312 406 312 406 357.5 443 c 128,-1,29
 403 480 403 480 403 541 c 0,30,31
 403 593 403 593 368 621.5 c 128,-1,32
 333 650 333 650 273 650 c 0,33,34
 215 650 215 650 174 633 c 128,-1,35
 133 616 133 616 93 590 c 1,36,-1
 49 650 l 1,37,38
 87 680 87 680 143.5 702 c 128,-1,39
 200 724 200 724 272 724 c 0,40,41
 384 724 384 724 438.5 674 c 128,-1,42
 493 624 493 624 493 547 c 0,0,1
EndSplineSet
Substitution2: "'locl' Localized Forms lookup 166 subtable" three.deva
Substitution2: "'case' Case-Sensitive Forms lookup 38 subtable" three.lf
Substitution2: "'onum' Oldstyle Figures lookup 35 subtable" three.tosf
Substitution2: "'pnum' Proportional Numbers lookup 33 subtable" three.lf
Substitution2: "'frac' Diagonal Fractions lookup 26 subtable" three.numr
Substitution2: "'dnom' Denominators lookup 24 subtable" three.dnom
Substitution2: "'numr' Numerators lookup 23 subtable" three.numr
Substitution2: "'sups' Superscript lookup 22 subtable" uni00B3
Substitution2: "'sinf' Scientific Inferiors lookup 21 subtable" uni2083
Substitution2: "'subs' Subscript lookup 20 subtable" uni2083
AlternateSubs2: "'aalt' Access All Alternates lookup 1 subtable" uni00B3 three.tosf three.lf uni2083 three.dnom three.numr
EndChar

StartChar: four
Encoding: 52 52 23
Width: 572
Flags: W
LayerCount: 2
Fore
SplineSet
552 162 m 1,0,-1
 448 162 l 1,1,-1
 448 0 l 1,2,-1
 363 0 l 1,3,-1
 363 162 l 1,4,-1
 21 162 l 1,5,-1
 21 237 l 1,6,-1
 357 718 l 1,7,-1
 448 718 l 1,8,-1
 448 241 l 1,9,-1
 552 241 l 1,10,-1
 552 162 l 1,0,-1
363 466 m 2,11,12
 363 518 363 518 365 554.5 c 128,-1,13
 367 591 367 591 368 624 c 1,14,-1
 364 624 l 1,15,16
 356 605 356 605 344 583 c 128,-1,17
 332 561 332 561 321 546 c 2,18,-1
 107 241 l 1,19,-1
 363 241 l 1,20,-1
 363 466 l 2,11,12
EndSplineSet
Substitution2: "'locl' Localized Forms lookup 166 subtable" four.deva
Substitution2: "'case' Case-Sensitive Forms lookup 38 subtable" four.lf
Substitution2: "'onum' Oldstyle Figures lookup 35 subtable" four.tosf
Substitution2: "'pnum' Proportional Numbers lookup 33 subtable" four.lf
Substitution2: "'frac' Diagonal Fractions lookup 26 subtable" four.numr
Substitution2: "'dnom' Denominators lookup 24 subtable" four.dnom
Substitution2: "'numr' Numerators lookup 23 subtable" four.numr
Substitution2: "'sups' Superscript lookup 22 subtable" uni2074
Substitution2: "'sinf' Scientific Inferiors lookup 21 subtable" uni2084
Substitution2: "'subs' Subscript lookup 20 subtable" uni2084
AlternateSubs2: "'aalt' Access All Alternates lookup 1 subtable" uni2074 four.tosf four.lf uni2084 four.dnom four.numr
EndChar

StartChar: five
Encoding: 53 53 24
Width: 572
Flags: W
LayerCount: 2
Fore
SplineSet
275 438 m 0,0,1
 385 438 385 438 450 383 c 128,-1,2
 515 328 515 328 515 228 c 0,3,4
 515 117 515 117 444.5 53.5 c 128,-1,5
 374 -10 374 -10 248 -10 c 0,6,7
 193 -10 193 -10 144.5 0 c 128,-1,8
 96 10 96 10 63 29 c 1,9,-1
 63 112 l 1,10,11
 99 90 99 90 150.5 77.5 c 128,-1,12
 202 65 202 65 249 65 c 0,13,14
 328 65 328 65 376.5 102.5 c 128,-1,15
 425 140 425 140 425 219 c 0,16,17
 425 289 425 289 382 326.5 c 128,-1,18
 339 364 339 364 246 364 c 0,19,20
 218 364 218 364 182 359 c 128,-1,21
 146 354 146 354 124 349 c 1,22,-1
 80 377 l 1,23,-1
 107 714 l 1,24,-1
 465 714 l 1,25,-1
 465 634 l 1,26,-1
 182 634 l 1,27,-1
 165 427 l 1,28,29
 182 430 182 430 211 434 c 128,-1,30
 240 438 240 438 275 438 c 0,0,1
EndSplineSet
Substitution2: "'locl' Localized Forms lookup 166 subtable" five.deva
Substitution2: "'case' Case-Sensitive Forms lookup 38 subtable" five.lf
Substitution2: "'onum' Oldstyle Figures lookup 35 subtable" five.tosf
Substitution2: "'pnum' Proportional Numbers lookup 33 subtable" five.lf
Substitution2: "'frac' Diagonal Fractions lookup 26 subtable" five.numr
Substitution2: "'dnom' Denominators lookup 24 subtable" five.dnom
Substitution2: "'numr' Numerators lookup 23 subtable" five.numr
Substitution2: "'sups' Superscript lookup 22 subtable" uni2075
Substitution2: "'sinf' Scientific Inferiors lookup 21 subtable" uni2085
Substitution2: "'subs' Subscript lookup 20 subtable" uni2085
AlternateSubs2: "'aalt' Access All Alternates lookup 1 subtable" uni2075 five.tosf five.lf uni2085 five.dnom five.numr
EndChar

StartChar: six
Encoding: 54 54 25
Width: 572
Flags: W
LayerCount: 2
Fore
SplineSet
55 305 m 0,0,1
 55 382 55 382 68.5 456.5 c 128,-1,2
 82 531 82 531 117.5 591.5 c 128,-1,3
 153 652 153 652 217 688 c 128,-1,4
 281 724 281 724 382 724 c 0,5,6
 403 724 403 724 428.5 722 c 128,-1,7
 454 720 454 720 470 715 c 1,8,-1
 470 640 l 1,9,10
 452 646 452 646 429.5 649 c 128,-1,11
 407 652 407 652 384 652 c 0,12,13
 315 652 315 652 269 629 c 128,-1,14
 223 606 223 606 196.5 566 c 128,-1,15
 170 526 170 526 158 474 c 128,-1,16
 146 422 146 422 143 363 c 1,17,-1
 149 363 l 1,18,19
 172 398 172 398 213 422.5 c 128,-1,20
 254 447 254 447 318 447 c 0,21,22
 411 447 411 447 468 390.5 c 128,-1,23
 525 334 525 334 525 230 c 0,24,25
 525 118 525 118 463.5 54 c 128,-1,26
 402 -10 402 -10 298 -10 c 0,27,28
 230 -10 230 -10 175 24 c 128,-1,29
 120 58 120 58 87.5 128 c 128,-1,30
 55 198 55 198 55 305 c 0,0,1
297 64 m 0,31,32
 360 64 360 64 399 104.5 c 128,-1,33
 438 145 438 145 438 230 c 0,34,35
 438 298 438 298 403.5 338 c 128,-1,36
 369 378 369 378 300 378 c 0,37,38
 253 378 253 378 218 358.5 c 128,-1,39
 183 339 183 339 163.5 309 c 128,-1,40
 144 279 144 279 144 247 c 0,41,42
 144 204 144 204 161 161.5 c 128,-1,43
 178 119 178 119 212 91.5 c 128,-1,44
 246 64 246 64 297 64 c 0,31,32
EndSplineSet
Substitution2: "'locl' Localized Forms lookup 166 subtable" six.deva
Substitution2: "'case' Case-Sensitive Forms lookup 38 subtable" six.lf
Substitution2: "'onum' Oldstyle Figures lookup 35 subtable" six.tosf
Substitution2: "'pnum' Proportional Numbers lookup 33 subtable" six.lf
Substitution2: "'frac' Diagonal Fractions lookup 26 subtable" six.numr
Substitution2: "'dnom' Denominators lookup 24 subtable" six.dnom
Substitution2: "'numr' Numerators lookup 23 subtable" six.numr
Substitution2: "'sups' Superscript lookup 22 subtable" uni2076
Substitution2: "'sinf' Scientific Inferiors lookup 21 subtable" uni2086
Substitution2: "'subs' Subscript lookup 20 subtable" uni2086
AlternateSubs2: "'aalt' Access All Alternates lookup 1 subtable" uni2076 six.tosf six.lf uni2086 six.dnom six.numr
EndChar

StartChar: seven
Encoding: 55 55 26
Width: 572
Flags: W
LayerCount: 2
Fore
SplineSet
136 0 m 1,0,-1
 429 634 l 1,1,-1
 44 634 l 1,2,-1
 44 714 l 1,3,-1
 523 714 l 1,4,-1
 523 646 l 1,5,-1
 233 0 l 1,6,-1
 136 0 l 1,0,-1
EndSplineSet
Substitution2: "'locl' Localized Forms lookup 166 subtable" seven.deva
Substitution2: "'case' Case-Sensitive Forms lookup 38 subtable" seven.lf
Substitution2: "'onum' Oldstyle Figures lookup 35 subtable" seven.tosf
Substitution2: "'pnum' Proportional Numbers lookup 33 subtable" seven.lf
Substitution2: "'frac' Diagonal Fractions lookup 26 subtable" seven.numr
Substitution2: "'dnom' Denominators lookup 24 subtable" seven.dnom
Substitution2: "'numr' Numerators lookup 23 subtable" seven.numr
Substitution2: "'sups' Superscript lookup 22 subtable" uni2077
Substitution2: "'sinf' Scientific Inferiors lookup 21 subtable" uni2087
Substitution2: "'subs' Subscript lookup 20 subtable" uni2087
AlternateSubs2: "'aalt' Access All Alternates lookup 1 subtable" uni2077 seven.tosf seven.lf uni2087 seven.dnom seven.numr
EndChar

StartChar: eight
Encoding: 56 56 27
Width: 572
Flags: W
LayerCount: 2
Fore
SplineSet
285 724 m 0,0,1
 379 724 379 724 439 680 c 128,-1,2
 499 636 499 636 499 553 c 0,3,4
 499 510 499 510 480.5 478 c 128,-1,5
 462 446 462 446 431 421.5 c 128,-1,6
 400 397 400 397 363 378 c 1,7,8
 407 357 407 357 443 330.5 c 128,-1,9
 479 304 479 304 500.5 269 c 128,-1,10
 522 234 522 234 522 185 c 0,11,12
 522 95 522 95 458.5 42.5 c 128,-1,13
 395 -10 395 -10 288 -10 c 0,14,15
 173 -10 173 -10 111 40.5 c 128,-1,16
 49 91 49 91 49 182 c 0,17,18
 49 231 49 231 69.5 267 c 128,-1,19
 90 303 90 303 124 329 c 128,-1,20
 158 355 158 355 197 373 c 1,21,22
 145 403 145 403 108.5 445.5 c 128,-1,23
 72 488 72 488 72 554 c 0,24,25
 72 609 72 609 100 646.5 c 128,-1,26
 128 684 128 684 176 704 c 128,-1,27
 224 724 224 724 285 724 c 0,0,1
284 653 m 0,28,29
 229 653 229 653 193.5 626.5 c 128,-1,30
 158 600 158 600 158 550 c 0,31,32
 158 513 158 513 175.5 488 c 128,-1,33
 193 463 193 463 223 445.5 c 128,-1,34
 253 428 253 428 289 412 c 1,35,36
 341 434 341 434 376.5 465 c 128,-1,37
 412 496 412 496 412 550 c 0,38,39
 412 600 412 600 377 626.5 c 128,-1,40
 342 653 342 653 284 653 c 0,28,29
135 181 m 0,41,42
 135 129 135 129 172 94.5 c 128,-1,43
 209 60 209 60 286 60 c 0,44,45
 359 60 359 60 397.5 94.5 c 128,-1,46
 436 129 436 129 436 184 c 0,47,48
 436 236 436 236 395 270.5 c 128,-1,49
 354 305 354 305 286 331 c 2,50,-1
 270 337 l 1,51,52
 204 309 204 309 169.5 272.5 c 128,-1,53
 135 236 135 236 135 181 c 0,41,42
EndSplineSet
Substitution2: "'locl' Localized Forms lookup 166 subtable" eight.deva
Substitution2: "'case' Case-Sensitive Forms lookup 38 subtable" eight.lf
Substitution2: "'onum' Oldstyle Figures lookup 35 subtable" eight.tosf
Substitution2: "'pnum' Proportional Numbers lookup 33 subtable" eight.lf
Substitution2: "'frac' Diagonal Fractions lookup 26 subtable" eight.numr
Substitution2: "'dnom' Denominators lookup 24 subtable" eight.dnom
Substitution2: "'numr' Numerators lookup 23 subtable" eight.numr
Substitution2: "'sups' Superscript lookup 22 subtable" uni2078
Substitution2: "'sinf' Scientific Inferiors lookup 21 subtable" uni2088
Substitution2: "'subs' Subscript lookup 20 subtable" uni2088
AlternateSubs2: "'aalt' Access All Alternates lookup 1 subtable" uni2078 eight.tosf eight.lf uni2088 eight.dnom eight.numr
EndChar

StartChar: nine
Encoding: 57 57 28
Width: 572
Flags: W
LayerCount: 2
Fore
SplineSet
520 409 m 0,0,1
 520 332 520 332 506.5 257.5 c 128,-1,2
 493 183 493 183 457.5 122.5 c 128,-1,3
 422 62 422 62 357.5 26 c 128,-1,4
 293 -10 293 -10 192 -10 c 0,5,6
 172 -10 172 -10 145.5 -7.5 c 128,-1,7
 119 -5 119 -5 102 0 c 1,8,-1
 102 75 l 1,9,10
 141 62 141 62 190 62 c 0,11,12
 260 62 260 62 305.5 85 c 128,-1,13
 351 108 351 108 378 147.5 c 128,-1,14
 405 187 405 187 417 239.5 c 128,-1,15
 429 292 429 292 431 350 c 1,16,-1
 425 350 l 1,17,18
 403 316 403 316 361.5 291.5 c 128,-1,19
 320 267 320 267 255 267 c 0,20,21
 163 267 163 267 106.5 323.5 c 128,-1,22
 50 380 50 380 50 483 c 0,23,24
 50 558 50 558 78.5 612 c 128,-1,25
 107 666 107 666 158 695 c 128,-1,26
 209 724 209 724 278 724 c 0,27,28
 346 724 346 724 401 689.5 c 128,-1,29
 456 655 456 655 488 585.5 c 128,-1,30
 520 516 520 516 520 409 c 0,0,1
278 650 m 0,31,32
 216 650 216 650 176.5 609 c 128,-1,33
 137 568 137 568 137 484 c 0,34,35
 137 415 137 415 170.5 375.5 c 128,-1,36
 204 336 204 336 274 336 c 0,37,38
 322 336 322 336 357 355.5 c 128,-1,39
 392 375 392 375 411.5 405 c 128,-1,40
 431 435 431 435 431 467 c 0,41,42
 431 510 431 510 414 552 c 128,-1,43
 397 594 397 594 363 622 c 128,-1,44
 329 650 329 650 278 650 c 0,31,32
EndSplineSet
Substitution2: "'locl' Localized Forms lookup 166 subtable" nine.deva
Substitution2: "'case' Case-Sensitive Forms lookup 38 subtable" nine.lf
Substitution2: "'onum' Oldstyle Figures lookup 35 subtable" nine.tosf
Substitution2: "'pnum' Proportional Numbers lookup 33 subtable" nine.lf
Substitution2: "'frac' Diagonal Fractions lookup 26 subtable" nine.numr
Substitution2: "'dnom' Denominators lookup 24 subtable" nine.dnom
Substitution2: "'numr' Numerators lookup 23 subtable" nine.numr
Substitution2: "'sups' Superscript lookup 22 subtable" uni2079
Substitution2: "'sinf' Scientific Inferiors lookup 21 subtable" uni2089
Substitution2: "'subs' Subscript lookup 20 subtable" uni2089
AlternateSubs2: "'aalt' Access All Alternates lookup 1 subtable" uni2079 nine.tosf nine.lf uni2089 nine.dnom nine.numr
EndChar

StartChar: colon
Encoding: 58 58 29
Width: 268
Flags: W
LayerCount: 2
Fore
SplineSet
72 482 m 0,0,1
 72 520 72 520 90 535 c 128,-1,2
 108 550 108 550 133 550 c 0,3,4
 159 550 159 550 177.5 535 c 128,-1,5
 196 520 196 520 196 482 c 0,6,7
 196 446 196 446 177.5 430 c 128,-1,8
 159 414 159 414 133 414 c 0,9,10
 108 414 108 414 90 430 c 128,-1,11
 72 446 72 446 72 482 c 0,0,1
72 54 m 0,12,13
 72 91 72 91 90 106 c 128,-1,14
 108 121 108 121 133 121 c 0,15,16
 159 121 159 121 177.5 106 c 128,-1,17
 196 91 196 91 196 54 c 0,18,19
 196 18 196 18 177.5 2 c 128,-1,20
 159 -14 159 -14 133 -14 c 0,21,22
 108 -14 108 -14 90 2 c 128,-1,23
 72 18 72 18 72 54 c 0,12,13
EndSplineSet
Substitution2: "'locl' Localized Forms lookup 166 subtable" colon.deva
EndChar

StartChar: semicolon
Encoding: 59 59 30
Width: 268
Flags: W
LayerCount: 2
Fore
SplineSet
70 482 m 0,0,1
 70 520 70 520 88 535 c 128,-1,2
 106 550 106 550 131 550 c 0,3,4
 157 550 157 550 175.5 535 c 128,-1,5
 194 520 194 520 194 482 c 0,6,7
 194 446 194 446 175.5 430 c 128,-1,8
 157 414 157 414 131 414 c 0,9,10
 106 414 106 414 88 430 c 128,-1,11
 70 446 70 446 70 482 c 0,0,1
183 105 m 1,12,13
 170 53 170 53 145.5 -11.5 c 128,-1,14
 121 -76 121 -76 97 -129 c 1,15,-1
 31 -129 l 1,16,17
 41 -91 41 -91 50.5 -47.5 c 128,-1,18
 60 -4 60 -4 68.5 38.5 c 128,-1,19
 77 81 77 81 82 116 c 1,20,-1
 176 116 l 1,21,-1
 183 105 l 1,12,13
EndSplineSet
Substitution2: "'locl' Localized Forms lookup 166 subtable" semicolon.deva
EndChar

StartChar: less
Encoding: 60 60 31
Width: 572
Flags: W
LayerCount: 2
Fore
SplineSet
521 116 m 1,0,-1
 50 323 l 1,1,-1
 50 373 l 1,2,-1
 521 608 l 1,3,-1
 521 530 l 1,4,-1
 144 352 l 1,5,-1
 521 194 l 1,6,-1
 521 116 l 1,0,-1
EndSplineSet
Substitution2: "'locl' Localized Forms lookup 166 subtable" less.deva
EndChar

StartChar: equal
Encoding: 61 61 32
Width: 572
Flags: W
LayerCount: 2
Fore
SplineSet
56 416 m 1,0,-1
 56 487 l 1,1,-1
 514 487 l 1,2,-1
 514 416 l 1,3,-1
 56 416 l 1,0,-1
56 217 m 1,4,-1
 56 288 l 1,5,-1
 514 288 l 1,6,-1
 514 217 l 1,7,-1
 56 217 l 1,4,-1
EndSplineSet
Substitution2: "'locl' Localized Forms lookup 166 subtable" equal.deva
Substitution2: "'sups' Superscript lookup 22 subtable" uni207C
Substitution2: "'sinf' Scientific Inferiors lookup 21 subtable" uni208C
Substitution2: "'subs' Subscript lookup 20 subtable" uni208C
AlternateSubs2: "'aalt' Access All Alternates lookup 1 subtable" uni208C uni207C
EndChar

StartChar: greater
Encoding: 62 62 33
Width: 572
Flags: W
LayerCount: 2
Fore
SplineSet
50 194 m 1,0,-1
 427 351 l 1,1,-1
 50 530 l 1,2,-1
 50 608 l 1,3,-1
 521 373 l 1,4,-1
 521 323 l 1,5,-1
 50 116 l 1,6,-1
 50 194 l 1,0,-1
EndSplineSet
Substitution2: "'locl' Localized Forms lookup 166 subtable" greater.deva
EndChar

StartChar: question
Encoding: 63 63 34
Width: 434
Flags: W
LayerCount: 2
Fore
SplineSet
140 228 m 2,0,1
 140 266 140 266 147.5 293.5 c 128,-1,2
 155 321 155 321 173.5 346 c 128,-1,3
 192 371 192 371 224 398 c 0,4,5
 263 431 263 431 284.5 453 c 128,-1,6
 306 475 306 475 315 496 c 128,-1,7
 324 517 324 517 324 547 c 0,8,9
 324 595 324 595 293 621 c 128,-1,10
 262 647 262 647 203 647 c 0,11,12
 154 647 154 647 116 634.5 c 128,-1,13
 78 622 78 622 43 605 c 1,14,-1
 12 675 l 1,15,16
 52 696 52 696 100.5 710 c 128,-1,17
 149 724 149 724 209 724 c 0,18,19
 304 724 304 724 356 677 c 128,-1,20
 408 630 408 630 408 549 c 0,21,22
 408 504 408 504 393.5 472.5 c 128,-1,23
 379 441 379 441 352.5 414.5 c 128,-1,24
 326 388 326 388 290 358 c 0,25,26
 257 330 257 330 239.5 309 c 128,-1,27
 222 288 222 288 216 267.5 c 128,-1,28
 210 247 210 247 210 218 c 2,29,-1
 210 201 l 1,30,-1
 140 201 l 1,31,-1
 140 228 l 2,0,1
117 54 m 0,32,33
 117 91 117 91 134.5 106 c 128,-1,34
 152 121 152 121 179 121 c 0,35,36
 204 121 204 121 222 106 c 128,-1,37
 240 91 240 91 240 54 c 0,38,39
 240 18 240 18 222 2 c 128,-1,40
 204 -14 204 -14 179 -14 c 0,41,42
 152 -14 152 -14 134.5 2 c 128,-1,43
 117 18 117 18 117 54 c 0,32,33
EndSplineSet
Substitution2: "'locl' Localized Forms lookup 166 subtable" question.deva
Substitution2: "'smcp' Lowercase to Small Capitals lookup 37 subtable" question.sc
Substitution2: "'c2sc' Capitals to Small Capitals lookup 36 subtable" question.sc
Substitution2: "'aalt' Access All Alternates lookup 0 subtable" question.sc
EndChar

StartChar: at
Encoding: 64 64 35
Width: 899
Flags: W
LayerCount: 2
Fore
SplineSet
841 357 m 0,0,1
 841 311 841 311 830.5 267 c 128,-1,2
 820 223 820 223 798 187.5 c 128,-1,3
 776 152 776 152 744 130.5 c 128,-1,4
 712 109 712 109 668 109 c 0,5,6
 622 109 622 109 595.5 135.5 c 128,-1,7
 569 162 569 162 563 196 c 1,8,-1
 558 196 l 1,9,10
 540 159 540 159 505 134 c 128,-1,11
 470 109 470 109 417 109 c 0,12,13
 341 109 341 109 299.5 160 c 128,-1,14
 258 211 258 211 258 295 c 0,15,16
 258 361 258 361 284 411.5 c 128,-1,17
 310 462 310 462 357.5 491 c 128,-1,18
 405 520 405 520 470 520 c 0,19,20
 514 520 514 520 556.5 512.5 c 128,-1,21
 599 505 599 505 623 496 c 1,22,-1
 613 293 l 2,23,24
 612 275 612 275 612 267.5 c 128,-1,25
 612 260 612 260 612 257 c 0,26,27
 612 205 612 205 630.5 188 c 128,-1,28
 649 171 649 171 674 171 c 0,29,30
 705 171 705 171 726.5 196.5 c 128,-1,31
 748 222 748 222 759.5 264.5 c 128,-1,32
 771 307 771 307 771 358 c 0,33,34
 771 451 771 451 733.5 515.5 c 128,-1,35
 696 580 696 580 630.5 614 c 128,-1,36
 565 648 565 648 482 648 c 0,37,38
 368 648 368 648 289.5 601 c 128,-1,39
 211 554 211 554 170.5 471.5 c 128,-1,40
 130 389 130 389 130 283 c 0,41,42
 130 135 130 135 208 56 c 128,-1,43
 286 -23 286 -23 433 -23 c 0,44,45
 494 -23 494 -23 549.5 -9.5 c 128,-1,46
 605 4 605 4 648 20 c 1,47,-1
 648 -48 l 1,48,49
 605 -66 605 -66 551.5 -77.5 c 128,-1,50
 498 -89 498 -89 433 -89 c 0,51,52
 315 -89 315 -89 231 -45 c 128,-1,53
 147 -1 147 -1 102.5 81.5 c 128,-1,54
 58 164 58 164 58 280 c 0,55,56
 58 373 58 373 87 452.5 c 128,-1,57
 116 532 116 532 171 590.5 c 128,-1,58
 226 649 226 649 304.5 681.5 c 128,-1,59
 383 714 383 714 482 714 c 0,60,61
 586 714 586 714 667 671 c 128,-1,62
 748 628 748 628 794.5 548 c 128,-1,63
 841 468 841 468 841 357 c 0,0,1
336 293 m 0,64,65
 336 229 336 229 361.5 200 c 128,-1,66
 387 171 387 171 430 171 c 0,67,68
 486 171 486 171 510.5 213 c 128,-1,69
 535 255 535 255 539 322 c 2,70,-1
 545 447 l 1,71,72
 532 451 532 451 512 454 c 128,-1,73
 492 457 492 457 471 457 c 0,74,75
 422 457 422 457 392 433 c 128,-1,76
 362 409 362 409 349 371.5 c 128,-1,77
 336 334 336 334 336 293 c 0,64,65
EndSplineSet
EndChar

StartChar: A
Encoding: 65 65 36
Width: 527
GlyphClass: 2
Flags: W
AnchorPoint: "Anchor-1" 264 536 basechar 0
AnchorPoint: "Anchor-0" 264 0 basechar 0
LayerCount: 2
Fore
SplineSet
10 0 m 1,0,-1
 225 538 l 1,1,-1
 302 538 l 1,2,-1
 516 0 l 1,3,-1
 425 0 l 1,4,-1
 360 161 l 1,5,-1
 164 161 l 1,6,-1
 101 0 l 1,7,-1
 10 0 l 1,0,-1
192 234 m 1,8,-1
 335 234 l 1,9,-1
 278 382 l 2,10,11
 268 407 268 407 263 435 c 1,12,13
 261 422 261 422 258 409.5 c 128,-1,14
 255 397 255 397 249 382 c 2,15,-1
 192 234 l 1,8,-1
EndSplineSet
Substitution2: "'c2sc' Capitals to Small Capitals lookup 36 subtable" a.sc
Substitution2: "Single Substitution lookup 31 subtable" ordfeminine
AlternateSubs2: "'aalt' Access All Alternates lookup 1 subtable" ordfeminine a.sc
EndChar

StartChar: B
Encoding: 66 66 37
Width: 576
GlyphClass: 2
Flags: W
AnchorPoint: "Anchor-1" 288 536 basechar 0
AnchorPoint: "Anchor-0" 288 0 basechar 0
LayerCount: 2
Fore
SplineSet
85 0 m 1,0,-1
 85 536 l 1,1,-1
 315 536 l 2,2,3
 372 536 372 536 417.5 523.5 c 128,-1,4
 463 511 463 511 489.5 481.5 c 128,-1,5
 516 452 516 452 516 401 c 0,6,7
 516 351 516 351 486 323 c 128,-1,8
 456 295 456 295 409 285 c 1,9,-1
 409 281 l 1,10,11
 459 274 459 274 496 245.5 c 128,-1,12
 533 217 533 217 533 157 c 0,13,14
 533 89 533 89 482.5 44.5 c 128,-1,15
 432 0 432 0 316 0 c 2,16,-1
 85 0 l 1,0,-1
294 316 m 2,17,18
 427 316 427 316 427 390 c 0,19,20
 427 428 427 428 399.5 445.5 c 128,-1,21
 372 463 372 463 310 463 c 2,22,-1
 173 463 l 1,23,-1
 173 316 l 1,24,-1
 294 316 l 2,17,18
306 71 m 2,25,26
 372 71 372 71 407 90.5 c 128,-1,27
 442 110 442 110 442 157 c 0,28,29
 442 203 442 203 407 223 c 128,-1,30
 372 243 372 243 304 243 c 2,31,-1
 173 243 l 1,32,-1
 173 71 l 1,33,-1
 306 71 l 2,25,26
EndSplineSet
Substitution2: "'c2sc' Capitals to Small Capitals lookup 36 subtable" b.sc
Substitution2: "'aalt' Access All Alternates lookup 0 subtable" b.sc
EndChar

StartChar: C
Encoding: 67 67 38
Width: 522
GlyphClass: 2
Flags: W
AnchorPoint: "Anchor-1" 261 536 basechar 0
AnchorPoint: "Anchor-0" 261 0 basechar 0
LayerCount: 2
Fore
SplineSet
326 471 m 0,0,1
 245 471 245 471 198.5 417 c 128,-1,2
 152 363 152 363 152 268 c 0,3,4
 152 174 152 174 195 119.5 c 128,-1,5
 238 65 238 65 326 65 c 0,6,7
 360 65 360 65 394.5 72 c 128,-1,8
 429 79 429 79 464 89 c 1,9,-1
 464 17 l 1,10,11
 430 4 430 4 396 -1.5 c 128,-1,12
 362 -7 362 -7 316 -7 c 0,13,14
 188 -7 188 -7 123.5 67.5 c 128,-1,15
 59 142 59 142 59 269 c 0,16,17
 59 350 59 350 90 412 c 128,-1,18
 121 474 121 474 181 508.5 c 128,-1,19
 241 543 241 543 327 543 c 0,20,21
 370 543 370 543 411.5 534 c 128,-1,22
 453 525 453 525 488 508 c 1,23,-1
 454 439 l 1,24,25
 426 452 426 452 393.5 461.5 c 128,-1,26
 361 471 361 471 326 471 c 0,0,1
EndSplineSet
Substitution2: "'c2sc' Capitals to Small Capitals lookup 36 subtable" c.sc
Substitution2: "'aalt' Access All Alternates lookup 0 subtable" c.sc
EndChar

StartChar: D
Encoding: 68 68 39
Width: 596
GlyphClass: 2
Flags: W
AnchorPoint: "Anchor-1" 298 536 basechar 0
AnchorPoint: "Anchor-0" 298 0 basechar 0
LayerCount: 2
Fore
SplineSet
536 273 m 0,0,1
 536 137 536 137 459.5 68.5 c 128,-1,2
 383 0 383 0 246 0 c 2,3,-1
 86 0 l 1,4,-1
 86 536 l 1,5,-1
 262 536 l 2,6,7
 388 536 388 536 462 469 c 128,-1,8
 536 402 536 402 536 273 c 0,0,1
444 271 m 0,9,10
 444 371 444 371 394 418 c 128,-1,11
 344 465 344 465 252 465 c 2,12,-1
 175 465 l 1,13,-1
 175 71 l 1,14,-1
 237 71 l 2,15,16
 444 71 444 71 444 271 c 0,9,10
EndSplineSet
Substitution2: "'c2sc' Capitals to Small Capitals lookup 36 subtable" d.sc
Substitution2: "'aalt' Access All Alternates lookup 0 subtable" d.sc
EndChar

StartChar: E
Encoding: 69 69 40
Width: 465
GlyphClass: 2
Flags: W
AnchorPoint: "Anchor-1" 233 536 basechar 0
AnchorPoint: "Anchor-0" 233 0 basechar 0
LayerCount: 2
Fore
SplineSet
407 0 m 1,0,-1
 86 0 l 1,1,-1
 86 536 l 1,2,-1
 407 536 l 1,3,-1
 407 464 l 1,4,-1
 175 464 l 1,5,-1
 175 315 l 1,6,-1
 393 315 l 1,7,-1
 393 244 l 1,8,-1
 175 244 l 1,9,-1
 175 72 l 1,10,-1
 407 72 l 1,11,-1
 407 0 l 1,0,-1
EndSplineSet
Substitution2: "'c2sc' Capitals to Small Capitals lookup 36 subtable" e.sc
Substitution2: "'aalt' Access All Alternates lookup 0 subtable" e.sc
EndChar

StartChar: F
Encoding: 70 70 41
Width: 519
GlyphClass: 2
Flags: W
AnchorPoint: "Anchor-2" 499 714 basechar 0
AnchorPoint: "Anchor-1" 298 714 basechar 0
AnchorPoint: "Anchor-0" 260 0 basechar 0
LayerCount: 2
Fore
SplineSet
187 0 m 1,0,-1
 97 0 l 1,1,-1
 97 714 l 1,2,-1
 496 714 l 1,3,-1
 496 635 l 1,4,-1
 187 635 l 1,5,-1
 187 382 l 1,6,-1
 477 382 l 1,7,-1
 477 303 l 1,8,-1
 187 303 l 1,9,-1
 187 0 l 1,0,-1
EndSplineSet
Substitution2: "'c2sc' Capitals to Small Capitals lookup 36 subtable" f.sc
Substitution2: "'aalt' Access All Alternates lookup 0 subtable" f.sc
EndChar

StartChar: G
Encoding: 71 71 42
Width: 574
GlyphClass: 2
Flags: W
AnchorPoint: "Anchor-2" 519 536 basechar 0
AnchorPoint: "Anchor-1" 287 536 basechar 0
AnchorPoint: "Anchor-0" 287 0 basechar 0
LayerCount: 2
Fore
SplineSet
323 546 m 0,0,1
 433 546 433 546 494 510 c 1,2,-1
 462 434 l 1,3,4
 431 450 431 450 395.5 459.5 c 128,-1,5
 360 469 360 469 328 469 c 0,6,7
 146 469 146 469 146 266 c 0,8,9
 146 169 146 169 184.5 117.5 c 128,-1,10
 223 66 223 66 299 66 c 0,11,12
 335 66 335 66 360.5 69.5 c 128,-1,13
 386 73 386 73 414 80 c 1,14,-1
 414 227 l 1,15,-1
 299 227 l 1,16,-1
 299 298 l 1,17,-1
 502 298 l 1,18,-1
 502 28 l 1,19,20
 453 10 453 10 406 0 c 128,-1,21
 359 -10 359 -10 300 -10 c 0,22,23
 229 -10 229 -10 173.5 19 c 128,-1,24
 118 48 118 48 86.5 109 c 128,-1,25
 55 170 55 170 55 265 c 0,26,27
 55 364 55 364 91 426 c 128,-1,28
 127 488 127 488 187.5 517 c 128,-1,29
 248 546 248 546 323 546 c 0,0,1
EndSplineSet
Substitution2: "'c2sc' Capitals to Small Capitals lookup 36 subtable" g.sc
Substitution2: "'aalt' Access All Alternates lookup 0 subtable" g.sc
EndChar

StartChar: H
Encoding: 72 72 43
Width: 637
GlyphClass: 2
Flags: W
AnchorPoint: "Anchor-1" 319 536 basechar 0
AnchorPoint: "Anchor-0" 319 0 basechar 0
LayerCount: 2
Fore
SplineSet
85 0 m 1,0,-1
 85 536 l 1,1,-1
 173 536 l 1,2,-1
 173 313 l 1,3,-1
 464 313 l 1,4,-1
 464 536 l 1,5,-1
 552 536 l 1,6,-1
 552 0 l 1,7,-1
 464 0 l 1,8,-1
 464 239 l 1,9,-1
 173 239 l 1,10,-1
 173 0 l 1,11,-1
 85 0 l 1,0,-1
EndSplineSet
Substitution2: "'c2sc' Capitals to Small Capitals lookup 36 subtable" h.sc
Substitution2: "'aalt' Access All Alternates lookup 0 subtable" h.sc
EndChar

StartChar: I
Encoding: 73 73 44
Width: 320
GlyphClass: 2
Flags: W
AnchorPoint: "Anchor-1" 160 536 basechar 0
AnchorPoint: "Anchor-0" 160 0 basechar 0
LayerCount: 2
Fore
SplineSet
284 536 m 1,0,-1
 284 484 l 1,1,-1
 204 466 l 1,2,-1
 204 69 l 1,3,-1
 284 52 l 1,4,-1
 284 0 l 1,5,-1
 36 0 l 1,6,-1
 36 52 l 1,7,-1
 116 69 l 1,8,-1
 116 466 l 1,9,-1
 36 484 l 1,10,-1
 36 536 l 1,11,-1
 284 536 l 1,0,-1
EndSplineSet
Substitution2: "'ss04' Style Set 4 lookup 43 subtable" I.salt
Substitution2: "'c2sc' Capitals to Small Capitals lookup 36 subtable" i.sc
AlternateSubs2: "'aalt' Access All Alternates lookup 1 subtable" I.salt i.sc
EndChar

StartChar: J
Encoding: 74 74 45
Width: 572
GlyphClass: 2
Flags: W
LayerCount: 2
Fore
SplineSet
235 -8 m 4,0,1
 180 -8 180 -8 136 4 c 132,-1,2
 92 16 92 16 58 33 c 5,3,-1
 89 103 l 5,4,5
 119 89 119 89 155.5 77 c 132,-1,6
 192 65 192 65 233 65 c 4,7,8
 290 65 290 65 320 94.5 c 132,-1,9
 350 124 350 124 350 190 c 6,10,-1
 350 329 l 5,11,-1
 146 329 l 5,12,-1
 146 395 l 5,13,-1
 350 395 l 5,14,-1
 350 499 l 6,15,16
 350 539 350 539 359.5 565.5 c 132,-1,17
 369 592 369 592 384.5 608 c 132,-1,18
 400 624 400 624 418 635 c 5,19,-1
 34 635 l 5,20,-1
 34 715 l 5,21,-1
 537 715 l 5,22,-1
 537 641 l 5,23,24
 508 634 508 634 486 617.5 c 132,-1,25
 464 601 464 601 451 572.5 c 132,-1,26
 438 544 438 544 438 500 c 6,27,-1
 438 395 l 5,28,-1
 534 395 l 5,29,-1
 534 329 l 5,30,-1
 438 329 l 5,31,-1
 438 181 l 6,32,33
 438 121 438 121 413 79 c 132,-1,34
 388 37 388 37 342 14.5 c 132,-1,35
 296 -8 296 -8 235 -8 c 4,0,1
EndSplineSet
Substitution2: "'ss04' Style Set 4 lookup 43 subtable" J.salt
Substitution2: "'c2sc' Capitals to Small Capitals lookup 36 subtable" j.sc
AlternateSubs2: "'aalt' Access All Alternates lookup 1 subtable" J.salt j.sc
EndChar

StartChar: K
Encoding: 75 75 46
Width: 534
GlyphClass: 2
Flags: W
AnchorPoint: "Anchor-1" 267 536 basechar 0
AnchorPoint: "Anchor-0" 267 0 basechar 0
LayerCount: 2
Fore
SplineSet
509 536 m 1,0,-1
 306 299 l 1,1,-1
 525 0 l 1,2,-1
 420 0 l 1,3,-1
 244 242 l 1,4,-1
 178 188 l 1,5,-1
 178 0 l 1,6,-1
 85 0 l 1,7,-1
 85 536 l 1,8,-1
 178 536 l 1,9,-1
 178 397 l 2,10,11
 178 357 178 357 176 319 c 128,-1,12
 174 281 174 281 172 261 c 1,13,-1
 174 261 l 1,14,15
 183 274 183 274 193.5 287.5 c 128,-1,16
 204 301 204 301 213 312 c 2,17,-1
 403 536 l 1,18,-1
 509 536 l 1,0,-1
EndSplineSet
Substitution2: "'c2sc' Capitals to Small Capitals lookup 36 subtable" k.sc
Substitution2: "'aalt' Access All Alternates lookup 0 subtable" k.sc
EndChar

StartChar: L
Encoding: 76 76 47
Width: 572
GlyphClass: 2
Flags: W
LayerCount: 2
Fore
SplineSet
334 723 m 0,0,1
 389 723 389 723 433 711 c 128,-1,2
 477 699 477 699 511 682 c 1,3,-1
 480 612 l 1,4,5
 450 626 450 626 413.5 638 c 128,-1,6
 377 650 377 650 336 650 c 0,7,8
 279 650 279 650 249 620.5 c 128,-1,9
 219 591 219 591 219 525 c 2,10,-1
 219 386 l 1,11,-1
 423 386 l 1,12,-1
 423 320 l 1,13,-1
 219 320 l 1,14,-1
 219 216 l 2,15,16
 219 176 219 176 209.5 149.5 c 128,-1,17
 200 123 200 123 184.5 107 c 128,-1,18
 169 91 169 91 151 80 c 1,19,-1
 535 80 l 1,20,-1
 535 0 l 1,21,-1
 32 0 l 1,22,-1
 32 74 l 1,23,24
 61 81 61 81 83 97.5 c 128,-1,25
 105 114 105 114 118 142.5 c 128,-1,26
 131 171 131 171 131 215 c 2,27,-1
 131 320 l 1,28,-1
 35 320 l 1,29,-1
 35 386 l 1,30,-1
 131 386 l 1,31,-1
 131 534 l 2,32,33
 131 594 131 594 156 636 c 128,-1,34
 181 678 181 678 227 700.5 c 128,-1,35
 273 723 273 723 334 723 c 0,0,1
EndSplineSet
Substitution2: "'c2sc' Capitals to Small Capitals lookup 36 subtable" l.sc
Substitution2: "'aalt' Access All Alternates lookup 0 subtable" l.sc
EndChar

StartChar: M
Encoding: 77 77 48
Width: 746
GlyphClass: 2
Flags: W
AnchorPoint: "Anchor-1" 373 536 basechar 0
AnchorPoint: "Anchor-0" 373 0 basechar 0
LayerCount: 2
Fore
SplineSet
660 536 m 1,0,-1
 660 0 l 1,1,-1
 581 0 l 1,2,-1
 581 342 l 2,3,4
 581 363 581 363 582.5 386 c 128,-1,5
 584 409 584 409 586 431 c 1,6,-1
 583 431 l 1,7,-1
 408 0 l 1,8,-1
 334 0 l 1,9,-1
 164 431 l 1,10,-1
 161 431 l 1,11,12
 164 386 164 386 164 339 c 2,13,-1
 164 0 l 1,14,-1
 85 0 l 1,15,-1
 85 536 l 1,16,-1
 202 536 l 1,17,-1
 371 105 l 1,18,-1
 543 536 l 1,19,-1
 660 536 l 1,0,-1
EndSplineSet
Substitution2: "'c2sc' Capitals to Small Capitals lookup 36 subtable" m.sc
Substitution2: "'aalt' Access All Alternates lookup 0 subtable" m.sc
EndChar

StartChar: N
Encoding: 78 78 49
Width: 632
GlyphClass: 2
Flags: W
AnchorPoint: "Anchor-2" 578 536 basechar 0
AnchorPoint: "Anchor-1" 316 536 basechar 0
AnchorPoint: "Anchor-0" 316 0 basechar 0
LayerCount: 2
Fore
SplineSet
85 0 m 1,0,-1
 85 536 l 1,1,-1
 193 536 l 1,2,-1
 470 104 l 1,3,4
 469 118 469 118 467.5 142 c 128,-1,5
 466 166 466 166 465 190 c 128,-1,6
 464 214 464 214 464 226 c 2,7,-1
 464 536 l 1,8,-1
 547 536 l 1,9,-1
 547 0 l 1,10,-1
 438 0 l 1,11,-1
 164 431 l 1,12,13
 165 418 165 418 166 392.5 c 128,-1,14
 167 367 167 367 167.5 341 c 128,-1,15
 168 315 168 315 168 299 c 2,16,-1
 168 0 l 1,17,-1
 85 0 l 1,0,-1
EndSplineSet
Substitution2: "'c2sc' Capitals to Small Capitals lookup 36 subtable" n.sc
Substitution2: "'aalt' Access All Alternates lookup 0 subtable" n.sc
EndChar

StartChar: O
Encoding: 79 79 50
Width: 605
GlyphClass: 2
Flags: W
AnchorPoint: "Anchor-3" 303 268 basechar 0
AnchorPoint: "Anchor-2" 575 536 basechar 0
AnchorPoint: "Anchor-1" 303 536 basechar 0
AnchorPoint: "Anchor-0" 301 0 basechar 0
LayerCount: 2
Fore
SplineSet
219 312 m 1,0,-1
 390 312 l 5,1,-1
 390 230 l 5,2,-1
 219 230 l 1,3,-1
 219 312 l 1,0,-1
EndSplineSet
Refer: 82 111 N 1 0 0 1 0 0 3
Substitution2: "'c2sc' Capitals to Small Capitals lookup 36 subtable" o.sc
Substitution2: "Single Substitution lookup 31 subtable" ordmasculine
AlternateSubs2: "'aalt' Access All Alternates lookup 1 subtable" ordmasculine o.sc
EndChar

StartChar: Q
Encoding: 81 81 52
Width: 680
GlyphClass: 2
Flags: W
LayerCount: 2
Fore
SplineSet
558 -5 m 1,0,1
 538 -5 538 -5 519 2 c 128,-1,2
 500 9 500 9 486 26 c 1,3,-1
 486 291 l 5,4,5
 458 266 458 266 421 250.5 c 132,-1,6
 384 235 384 235 334 235 c 4,7,8
 292 235 292 235 243 258 c 132,-1,9
 194 281 194 281 152 318 c 132,-1,10
 110 355 110 355 82 401 c 132,-1,11
 54 447 54 447 54 493 c 4,12,13
 54 541 54 541 71.5 578 c 132,-1,14
 89 615 89 615 119 640.5 c 132,-1,15
 149 666 149 666 189.5 679 c 132,-1,16
 230 692 230 692 276 692 c 4,17,18
 310 692 310 692 340 684 c 4,19,20
 389 671 389 671 396 662.5 c 4,21,22
 431 622 431 622 444.5 631.5 c 4,23,24
 448 634 448 634 486 718 c 5,25,-1
 484 717 l 5,26,-1
 560 717 l 6,27,-1
 558 -5 l 1,0,1
277 292 m 4,28,29
 315 292 315 292 351 304.5 c 132,-1,30
 387 317 387 317 417 340 c 5,31,-1
 184 580 l 5,32,33
 157 556 157 556 142 521.5 c 132,-1,34
 127 487 127 487 127 442 c 4,35,36
 127 406 127 406 138.5 378 c 132,-1,37
 150 350 150 350 170 331 c 132,-1,38
 190 312 190 312 217.5 302 c 132,-1,39
 245 292 245 292 277 292 c 4,28,29
486 571 m 5,40,41
 451 598 451 598 413.5 613.5 c 132,-1,42
 376 629 376 629 327 629 c 4,43,44
 255 629 255 629 204 596 c 5,45,-1
 435 356 l 5,46,47
 451 371 451 371 464 389 c 132,-1,48
 477 407 477 407 486 427 c 5,49,-1
 486 571 l 5,40,41
EndSplineSet
Substitution2: "'c2sc' Capitals to Small Capitals lookup 36 subtable" q.sc
Substitution2: "'aalt' Access All Alternates lookup 0 subtable" q.sc
EndChar

StartChar: R
Encoding: 82 82 53
Width: 559
GlyphClass: 2
Flags: W
AnchorPoint: "Anchor-1" 280 536 basechar 0
AnchorPoint: "Anchor-0" 280 0 basechar 0
LayerCount: 2
Fore
SplineSet
85 0 m 1,0,-1
 85 536 l 1,1,-1
 325 536 l 2,2,3
 411 536 411 536 463 495.5 c 128,-1,4
 515 455 515 455 515 378 c 0,5,6
 515 331 515 331 497 299.5 c 128,-1,7
 479 268 479 268 450.5 250.5 c 128,-1,8
 422 233 422 233 390 225 c 1,9,-1
 543 0 l 1,10,-1
 441 0 l 1,11,-1
 303 213 l 1,12,-1
 173 213 l 1,13,-1
 173 0 l 1,14,-1
 85 0 l 1,0,-1
299 286 m 2,15,16
 361 286 361 286 395.5 308.5 c 128,-1,17
 430 331 430 331 430 377 c 0,18,19
 430 415 430 415 404 439 c 128,-1,20
 378 463 378 463 316 463 c 2,21,-1
 173 463 l 1,22,-1
 173 286 l 1,23,-1
 299 286 l 2,15,16
EndSplineSet
Substitution2: "'c2sc' Capitals to Small Capitals lookup 36 subtable" r.sc
Substitution2: "'aalt' Access All Alternates lookup 0 subtable" r.sc
EndChar

StartChar: S
Encoding: 83 83 54
Width: 421
GlyphClass: 2
Flags: W
LayerCount: 2
Fore
SplineSet
259 606 m 4,0,1
 210 606 210 606 180 634 c 132,-1,2
 150 662 150 662 150 712 c 260,3,4
 150 762 150 762 180 789.5 c 132,-1,5
 210 817 210 817 259 817 c 4,6,7
 306 817 306 817 338 789.5 c 132,-1,8
 370 762 370 762 370 713 c 4,9,10
 370 662 370 662 338.5 634 c 132,-1,11
 307 606 307 606 259 606 c 4,0,1
259 656 m 4,12,13
 284 656 284 656 299.5 671 c 132,-1,14
 315 686 315 686 315 712 c 260,15,16
 315 738 315 738 299 753 c 132,-1,17
 283 768 283 768 259 768 c 260,18,19
 235 768 235 768 219 753 c 132,-1,20
 203 738 203 738 203 712 c 260,21,22
 203 686 203 686 217.5 671 c 132,-1,23
 232 656 232 656 259 656 c 4,12,13
384 143 m 0,24,25
 384 71 384 71 332 31.5 c 128,-1,26
 280 -8 280 -8 194 -8 c 0,27,28
 100 -8 100 -8 40 19 c 1,29,-1
 40 91 l 1,30,31
 75 76 75 76 113.5 66 c 128,-1,32
 152 56 152 56 195 56 c 0,33,34
 246 56 246 56 276.5 78 c 128,-1,35
 307 100 307 100 307 140 c 0,36,37
 307 182 307 182 273 203 c 128,-1,38
 239 224 239 224 184 246 c 0,39,40
 148 260 148 260 116.5 278.5 c 128,-1,41
 85 297 85 297 66 326.5 c 128,-1,42
 47 356 47 356 47 401 c 0,43,44
 47 469 47 469 95.5 507.5 c 128,-1,45
 144 546 144 546 223 546 c 0,46,47
 264 546 264 546 301.5 537.5 c 128,-1,48
 339 529 339 529 376 513 c 1,49,-1
 350 452 l 1,50,51
 315 467 315 467 284.5 474.5 c 128,-1,52
 254 482 254 482 223 482 c 0,53,54
 179 482 179 482 151.5 461.5 c 128,-1,55
 124 441 124 441 124 403 c 0,56,57
 124 375 124 375 138 357.5 c 128,-1,58
 152 340 152 340 178.5 327.5 c 128,-1,59
 205 315 205 315 241 300 c 0,60,61
 282 283 282 283 314.5 263.5 c 128,-1,62
 347 244 347 244 365.5 215.5 c 128,-1,63
 384 187 384 187 384 143 c 0,24,25
EndSplineSet
Substitution2: "'c2sc' Capitals to Small Capitals lookup 36 subtable" s.sc
Substitution2: "'aalt' Access All Alternates lookup 0 subtable" s.sc
EndChar

StartChar: T
Encoding: 84 84 55
Width: 476
GlyphClass: 2
Flags: W
AnchorPoint: "Anchor-1" 238 536 basechar 0
AnchorPoint: "Anchor-0" 238 0 basechar 0
LayerCount: 2
Fore
SplineSet
455 462 m 1,0,-1
 280 462 l 1,1,-1
 280 0 l 1,2,-1
 193 0 l 1,3,-1
 193 462 l 1,4,-1
 20 462 l 1,5,-1
 20 536 l 1,6,-1
 455 536 l 1,7,-1
 455 462 l 1,0,-1
EndSplineSet
Substitution2: "'c2sc' Capitals to Small Capitals lookup 36 subtable" t.sc
Substitution2: "'aalt' Access All Alternates lookup 0 subtable" t.sc
EndChar

StartChar: U
Encoding: 85 85 56
Width: 596
GlyphClass: 2
Flags: W
AnchorPoint: "Anchor-1" 298 536 basechar 0
AnchorPoint: "Anchor-0" 298 0 basechar 0
LayerCount: 2
Fore
SplineSet
515 191 m 2,0,1
 515 135 515 135 491.5 90 c 128,-1,2
 468 45 468 45 419.5 19 c 128,-1,3
 371 -7 371 -7 296 -7 c 0,4,5
 190 -7 190 -7 135.5 47.5 c 128,-1,6
 81 102 81 102 81 193 c 2,7,-1
 81 536 l 1,8,-1
 170 536 l 1,9,-1
 170 191 l 2,10,11
 170 130 170 130 202 97 c 128,-1,12
 234 64 234 64 299 64 c 0,13,14
 367 64 367 64 397 100 c 128,-1,15
 427 136 427 136 427 191 c 2,16,-1
 427 536 l 1,17,-1
 515 536 l 1,18,-1
 515 191 l 2,0,1
EndSplineSet
Substitution2: "'c2sc' Capitals to Small Capitals lookup 36 subtable" u.sc
Substitution2: "'aalt' Access All Alternates lookup 0 subtable" u.sc
EndChar

StartChar: V
Encoding: 86 86 57
Width: 479
GlyphClass: 2
Flags: W
AnchorPoint: "Anchor-1" 240 536 basechar 0
AnchorPoint: "Anchor-0" 240 0 basechar 0
LayerCount: 2
Fore
SplineSet
272 578 m 4,0,1
 223 578 223 578 193 606 c 132,-1,2
 163 634 163 634 163 684 c 260,3,4
 163 734 163 734 193 761.5 c 132,-1,5
 223 789 223 789 272 789 c 4,6,7
 319 789 319 789 351 761.5 c 132,-1,8
 383 734 383 734 383 685 c 4,9,10
 383 634 383 634 351.5 606 c 132,-1,11
 320 578 320 578 272 578 c 4,0,1
272 628 m 4,12,13
 297 628 297 628 312.5 643 c 132,-1,14
 328 658 328 658 328 684 c 260,15,16
 328 710 328 710 312 725 c 132,-1,17
 296 740 296 740 272 740 c 260,18,19
 248 740 248 740 232 725 c 132,-1,20
 216 710 216 710 216 684 c 260,21,22
 216 658 216 658 230.5 643 c 132,-1,23
 245 628 245 628 272 628 c 4,12,13
191 0 m 1,24,-1
 0 536 l 1,25,-1
 89 536 l 1,26,-1
 196 220 l 2,27,28
 204 198 204 198 212 171 c 128,-1,29
 220 144 220 144 227 119.5 c 128,-1,30
 234 95 234 95 236 78 c 1,31,-1
 240 78 l 1,32,33
 244 95 244 95 251 120 c 128,-1,34
 258 145 258 145 267 172 c 128,-1,35
 276 199 276 199 283 220 c 2,36,-1
 390 536 l 1,37,-1
 479 536 l 1,38,-1
 286 0 l 1,39,-1
 191 0 l 1,24,-1
EndSplineSet
Substitution2: "'c2sc' Capitals to Small Capitals lookup 36 subtable" v.sc
Substitution2: "'aalt' Access All Alternates lookup 0 subtable" v.sc
EndChar

StartChar: W
Encoding: 87 87 58
Width: 930
GlyphClass: 2
Flags: W
AnchorPoint: "Anchor-2" 910 714 basechar 0
AnchorPoint: "Anchor-1" 465 714 basechar 0
AnchorPoint: "Anchor-0" 458 0 basechar 0
LayerCount: 2
Fore
SplineSet
917 714 m 1,0,-1
 727 0 l 1,1,-1
 636 0 l 1,2,-1
 497 468 l 2,3,4
 489 497 489 497 481 526 c 128,-1,5
 473 555 473 555 468 577.5 c 128,-1,6
 463 600 463 600 461 609 c 1,7,8
 460 596 460 596 450.5 553.5 c 128,-1,9
 441 511 441 511 427 465 c 2,10,-1
 292 0 l 1,11,-1
 201 0 l 1,12,-1
 12 714 l 1,13,-1
 106 714 l 1,14,-1
 217 278 l 2,15,16
 229 232 229 232 237.5 189 c 128,-1,17
 246 146 246 146 251 108 c 1,18,19
 256 147 256 147 266 193 c 128,-1,20
 276 239 276 239 289 283 c 2,21,-1
 415 714 l 1,22,-1
 508 714 l 1,23,-1
 639 280 l 2,24,25
 653 234 653 234 663 188.5 c 128,-1,26
 673 143 673 143 678 108 c 1,27,28
 683 145 683 145 692 188.5 c 128,-1,29
 701 232 701 232 713 279 c 2,30,-1
 823 714 l 1,31,-1
 917 714 l 1,0,-1
EndSplineSet
Substitution2: "'c2sc' Capitals to Small Capitals lookup 36 subtable" w.sc
Substitution2: "'aalt' Access All Alternates lookup 0 subtable" w.sc
EndChar

StartChar: X
Encoding: 88 88 59
Width: 586
GlyphClass: 2
Flags: W
AnchorPoint: "Anchor-2" 566 714 basechar 0
AnchorPoint: "Anchor-1" 292 714 basechar 0
AnchorPoint: "Anchor-0" 293 0 basechar 0
LayerCount: 2
Fore
SplineSet
582 0 m 1,0,-1
 480 0 l 1,1,-1
 291 310 l 1,2,-1
 99 0 l 1,3,-1
 4 0 l 1,4,-1
 241 372 l 1,5,-1
 19 714 l 1,6,-1
 119 714 l 1,7,-1
 294 434 l 1,8,-1
 470 714 l 1,9,-1
 565 714 l 1,10,-1
 344 374 l 1,11,-1
 582 0 l 1,0,-1
EndSplineSet
Substitution2: "'c2sc' Capitals to Small Capitals lookup 36 subtable" x.sc
Substitution2: "'aalt' Access All Alternates lookup 0 subtable" x.sc
EndChar

StartChar: Y
Encoding: 89 89 60
Width: 474
GlyphClass: 2
Flags: W
AnchorPoint: "Anchor-1" 237 536 basechar 0
AnchorPoint: "Anchor-0" 237 0 basechar 0
LayerCount: 2
Fore
SplineSet
474 536 m 1,0,-1
 282 221 l 1,1,-1
 282 0 l 1,2,-1
 194 0 l 1,3,-1
 194 221 l 1,4,-1
 0 536 l 1,5,-1
 100 536 l 1,6,-1
 238 294 l 1,7,-1
 375 536 l 1,8,-1
 474 536 l 1,0,-1
EndSplineSet
Substitution2: "'c2sc' Capitals to Small Capitals lookup 36 subtable" y.sc
Substitution2: "'aalt' Access All Alternates lookup 0 subtable" y.sc
EndChar

StartChar: Z
Encoding: 90 90 61
Width: 470
GlyphClass: 2
Flags: W
AnchorPoint: "Anchor-1" 235 536 basechar 0
AnchorPoint: "Anchor-0" 235 0 basechar 0
LayerCount: 2
Fore
SplineSet
424 536 m 1,0,-1
 424 470 l 1,1,-1
 313 313 l 1,2,-1
 414 313 l 1,3,-1
 414 243 l 1,4,-1
 263 243 l 1,5,-1
 140 68 l 1,6,-1
 431 68 l 1,7,-1
 431 0 l 1,8,-1
 39 0 l 1,9,-1
 39 58 l 1,10,-1
 169 243 l 1,11,-1
 57 243 l 1,12,-1
 57 313 l 1,13,-1
 218 313 l 1,14,-1
 327 468 l 1,15,-1
 56 468 l 1,16,-1
 56 536 l 1,17,-1
 424 536 l 1,0,-1
EndSplineSet
Substitution2: "'c2sc' Capitals to Small Capitals lookup 36 subtable" z.sc
Substitution2: "'aalt' Access All Alternates lookup 0 subtable" z.sc
EndChar

StartChar: bracketleft
Encoding: 91 91 62
Width: 329
Flags: W
LayerCount: 2
Fore
SplineSet
304 -158 m 1,0,-1
 80 -158 l 1,1,-1
 80 714 l 1,2,-1
 304 714 l 1,3,-1
 304 642 l 1,4,-1
 166 642 l 1,5,-1
 166 -86 l 1,6,-1
 304 -86 l 1,7,-1
 304 -158 l 1,0,-1
EndSplineSet
Substitution2: "'locl' Localized Forms lookup 166 subtable" bracketleft.deva
Substitution2: "'smcp' Lowercase to Small Capitals lookup 37 subtable" bracketleft.sc
Substitution2: "'c2sc' Capitals to Small Capitals lookup 36 subtable" bracketleft.sc
Substitution2: "'aalt' Access All Alternates lookup 0 subtable" bracketleft.sc
EndChar

StartChar: backslash
Encoding: 92 92 63
Width: 372
Flags: W
LayerCount: 2
Fore
SplineSet
96 714 m 1,0,-1
 363 0 l 1,1,-1
 276 0 l 1,2,-1
 10 714 l 1,3,-1
 96 714 l 1,0,-1
EndSplineSet
Substitution2: "'locl' Localized Forms lookup 166 subtable" backslash.deva
EndChar

StartChar: bracketright
Encoding: 93 93 64
Width: 329
Flags: W
LayerCount: 2
Fore
SplineSet
25 -86 m 1,0,-1
 163 -86 l 1,1,-1
 163 642 l 1,2,-1
 25 642 l 1,3,-1
 25 714 l 1,4,-1
 249 714 l 1,5,-1
 249 -158 l 1,6,-1
 25 -158 l 1,7,-1
 25 -86 l 1,0,-1
EndSplineSet
Substitution2: "'locl' Localized Forms lookup 166 subtable" bracketright.deva
Substitution2: "'smcp' Lowercase to Small Capitals lookup 37 subtable" bracketright.sc
Substitution2: "'c2sc' Capitals to Small Capitals lookup 36 subtable" bracketright.sc
Substitution2: "'aalt' Access All Alternates lookup 0 subtable" bracketright.sc
EndChar

StartChar: asciicircum
Encoding: 94 94 65
Width: 572
Flags: W
LayerCount: 2
Fore
SplineSet
38 267 m 1,0,-1
 250 719 l 1,1,-1
 300 719 l 1,2,-1
 534 267 l 1,3,-1
 456 267 l 1,4,-1
 276 626 l 1,5,-1
 116 267 l 1,6,-1
 38 267 l 1,0,-1
EndSplineSet
Substitution2: "'locl' Localized Forms lookup 166 subtable" asciicircum.deva
EndChar

StartChar: underscore
Encoding: 95 95 66
Width: 444
Flags: W
LayerCount: 2
Fore
SplineSet
446 -154 m 1,0,-1
 -2 -154 l 1,1,-1
 -2 -90 l 1,2,-1
 446 -90 l 1,3,-1
 446 -154 l 1,0,-1
EndSplineSet
Substitution2: "'locl' Localized Forms lookup 166 subtable" underscore.deva
EndChar

StartChar: grave
Encoding: 96 96 67
Width: 281
Flags: W
LayerCount: 2
Fore
SplineSet
145 766 m 1,0,1
 156 744 156 744 172.5 716.5 c 128,-1,2
 189 689 189 689 207.5 663 c 128,-1,3
 226 637 226 637 241 618 c 1,4,-1
 241 606 l 1,5,-1
 182 606 l 1,6,7
 159 624 159 624 130 652.5 c 128,-1,8
 101 681 101 681 76.5 709.5 c 128,-1,9
 52 738 52 738 40 756 c 1,10,-1
 40 766 l 1,11,-1
 145 766 l 1,0,1
EndSplineSet
EndChar

StartChar: a
Encoding: 97 97 68
Width: 561
GlyphClass: 2
Flags: W
AnchorPoint: "Anchor-2" 511 536 basechar 0
AnchorPoint: "Anchor-1" 281 536 basechar 0
AnchorPoint: "Anchor-0" 281 0 basechar 0
LayerCount: 2
Fore
SplineSet
288 545 m 0,0,1
 386 545 386 545 433 502 c 128,-1,2
 480 459 480 459 480 365 c 2,3,-1
 480 0 l 1,4,-1
 416 0 l 1,5,-1
 399 76 l 1,6,-1
 395 76 l 1,7,8
 360 32 360 32 321.5 11 c 128,-1,9
 283 -10 283 -10 215 -10 c 0,10,11
 142 -10 142 -10 94 28.5 c 128,-1,12
 46 67 46 67 46 149 c 0,13,14
 46 229 46 229 109 272.5 c 128,-1,15
 172 316 172 316 303 320 c 2,16,-1
 394 323 l 1,17,-1
 394 355 l 2,18,19
 394 422 394 422 365 448 c 128,-1,20
 336 474 336 474 283 474 c 0,21,22
 241 474 241 474 203 461.5 c 128,-1,23
 165 449 165 449 132 433 c 1,24,-1
 105 499 l 1,25,26
 140 518 140 518 188 531.5 c 128,-1,27
 236 545 236 545 288 545 c 0,0,1
314 259 m 2,28,29
 214 255 214 255 175.5 227 c 128,-1,30
 137 199 137 199 137 148 c 0,31,32
 137 103 137 103 164.5 82 c 128,-1,33
 192 61 192 61 235 61 c 0,34,35
 303 61 303 61 348 98.5 c 128,-1,36
 393 136 393 136 393 214 c 2,37,-1
 393 262 l 1,38,-1
 314 259 l 2,28,29
EndSplineSet
Substitution2: "'smcp' Lowercase to Small Capitals lookup 37 subtable" a.sc
Substitution2: "Single Substitution lookup 31 subtable" ordfeminine
AlternateSubs2: "'aalt' Access All Alternates lookup 1 subtable" ordfeminine a.sc
EndChar

StartChar: b
Encoding: 98 98 69
Width: 615
GlyphClass: 2
Flags: W
AnchorPoint: "Anchor-2" 515 760 basechar 0
AnchorPoint: "Anchor-1" 338 760 basechar 0
AnchorPoint: "Anchor-0" 322 0 basechar 0
LayerCount: 2
Fore
SplineSet
173 575 m 2,0,1
 173 541 173 541 171.5 511.5 c 128,-1,2
 170 482 170 482 168 465 c 1,3,-1
 173 465 l 1,4,5
 196 499 196 499 236 522 c 128,-1,6
 276 545 276 545 339 545 c 0,7,8
 439 545 439 545 499.5 475.5 c 128,-1,9
 560 406 560 406 560 268 c 256,10,11
 560 130 560 130 499 60 c 128,-1,12
 438 -10 438 -10 339 -10 c 0,13,14
 276 -10 276 -10 236 13 c 128,-1,15
 196 36 196 36 173 68 c 1,16,-1
 166 68 l 1,17,-1
 148 0 l 1,18,-1
 85 0 l 1,19,-1
 85 760 l 1,20,-1
 173 760 l 1,21,-1
 173 575 l 2,0,1
324 472 m 0,22,23
 239 472 239 472 206 423 c 128,-1,24
 173 374 173 374 173 271 c 2,25,-1
 173 267 l 2,26,27
 173 168 173 168 205.5 115.5 c 128,-1,28
 238 63 238 63 326 63 c 0,29,30
 398 63 398 63 433.5 116 c 128,-1,31
 469 169 469 169 469 269 c 0,32,33
 469 472 469 472 324 472 c 0,22,23
EndSplineSet
Substitution2: "'smcp' Lowercase to Small Capitals lookup 37 subtable" b.sc
Substitution2: "'aalt' Access All Alternates lookup 0 subtable" b.sc
EndChar

StartChar: c
Encoding: 99 99 70
Width: 632
GlyphClass: 2
Flags: W
LayerCount: 2
Fore
SplineSet
376.888671875 409.82421875 m 6,0,1
 376.888671875 391.015625 376.888671875 391.015625 376.088867188 388.259765625 c 4,2,3
 375.3203125 377 375.3203125 377 374.223632812 368.352539062 c 5,4,-1
 377.421875 368.352539062 l 5,5,6
 386.240234375 383.719726562 386.240234375 383.719726562 400.334960938 393.7890625 c 4,7,8
 413.959960938 403.879882812 413.959960938 403.879882812 431.243164062 408.995117188 c 4,9,10
 448.400390625 414.440429688 448.400390625 414.440429688 466.415039062 414.248046875 c 4,11,12
 501.3203125 414.440429688 501.3203125 414.440429688 524.233398438 402.912109375 c 4,13,14
 547.51953125 391.400390625 547.51953125 391.400390625 559.138671875 367.80078125 c 4,15,16
 570.862304688 344.7109375 570.862304688 344.7109375 570.862304688 305.868164062 c 6,17,-1
 570.862304688 134.004882812 l 5,18,-1
 516.940429688 134.004882812 l 5,19,-1
 516.940429688 263.190429688 l 6,20,21
 517.280273438 299.240234375 517.280273438 299.240234375 501.486328125 316.827148438 c 4,22,23
 486.200195312 334.759765625 486.200195312 334.759765625 452.993164062 334.521484375 c 4,24,25
 420.6796875 334.759765625 420.6796875 334.759765625 402.901367188 322.080078125 c 4,26,27
 384.559570312 309.799804688 384.559570312 309.799804688 377.0546875 285.584960938 c 4,28,29
 369.328125 261.451171875 369.328125 261.451171875 369.328125 226.6953125 c 6,30,-1
 369.328125 134.004882812 l 5,31,-1
 311.513671875 134.004882812 l 5,32,-1
 311.513671875 533.133789062 l 5,33,-1
 376.888671875 533.133789062 l 5,34,-1
 376.888671875 409.82421875 l 6,0,1
403 645 m 0,35,36
 346 645 346 645 300 625.5 c 128,-1,37
 254 606 254 606 222 568.5 c 128,-1,38
 190 531 190 531 173 477.5 c 128,-1,39
 156 424 156 424 156 357 c 0,40,41
 156 269 156 269 183.5 204 c 128,-1,42
 211 139 211 139 265.5 104 c 128,-1,43
 320 69 320 69 402 69 c 0,44,45
 449 69 449 69 491 77 c 128,-1,46
 533 85 533 85 573 97 c 1,47,-1
 573 19 l 1,48,49
 533 4 533 4 490.5 -3 c 128,-1,50
 448 -10 448 -10 389 -10 c 0,51,52
 280 -10 280 -10 207 35 c 128,-1,53
 134 80 134 80 97.5 163 c 128,-1,54
 61 246 61 246 61 358 c 0,55,56
 61 439 61 439 83.5 506 c 128,-1,57
 106 573 106 573 149.5 622 c 128,-1,58
 193 671 193 671 257 697.5 c 128,-1,59
 321 724 321 724 404 724 c 0,60,61
 459 724 459 724 510 713 c 128,-1,62
 561 702 561 702 601 682 c 1,63,-1
 565 606 l 1,64,65
 532 621 532 621 491.5 633 c 128,-1,66
 451 645 451 645 403 645 c 0,35,36
EndSplineSet
Substitution2: "'smcp' Lowercase to Small Capitals lookup 37 subtable" c.sc
Substitution2: "'aalt' Access All Alternates lookup 0 subtable" c.sc
EndChar

StartChar: d
Encoding: 100 100 71
Width: 615
GlyphClass: 2
Flags: W
AnchorPoint: "Anchor-3" 308 268 basechar 0
AnchorPoint: "Anchor-2" 553 760 basechar 0
AnchorPoint: "Anchor-1" 275 760 basechar 0
AnchorPoint: "Anchor-0" 292 0 basechar 0
LayerCount: 2
Fore
SplineSet
275 -10 m 0,0,1
 175 -10 175 -10 115 59.5 c 128,-1,2
 55 129 55 129 55 267 c 256,3,4
 55 405 55 405 115.5 475.5 c 128,-1,5
 176 546 176 546 276 546 c 0,6,7
 338 546 338 546 377.5 523 c 128,-1,8
 417 500 417 500 442 467 c 1,9,-1
 448 467 l 1,10,11
 447 480 447 480 444.5 505.5 c 128,-1,12
 442 531 442 531 442 546 c 2,13,-1
 442 760 l 1,14,-1
 530 760 l 1,15,-1
 530 0 l 1,16,-1
 459 0 l 1,17,-1
 446 72 l 1,18,-1
 442 72 l 1,19,20
 418 38 418 38 378 14 c 128,-1,21
 338 -10 338 -10 275 -10 c 0,0,1
289 63 m 0,22,23
 374 63 374 63 408.5 109.5 c 128,-1,24
 443 156 443 156 443 250 c 2,25,-1
 443 266 l 2,26,27
 443 366 443 366 410 419.5 c 128,-1,28
 377 473 377 473 288 473 c 0,29,30
 217 473 217 473 181.5 416.5 c 128,-1,31
 146 360 146 360 146 265 c 0,32,33
 146 169 146 169 181.5 116 c 128,-1,34
 217 63 217 63 289 63 c 0,22,23
EndSplineSet
Substitution2: "'smcp' Lowercase to Small Capitals lookup 37 subtable" d.sc
Substitution2: "'aalt' Access All Alternates lookup 0 subtable" d.sc
EndChar

StartChar: e
Encoding: 101 101 72
Width: 564
GlyphClass: 2
Flags: W
AnchorPoint: "Anchor-2" 544 536 basechar 0
AnchorPoint: "Anchor-1" 285 536 basechar 0
AnchorPoint: "Anchor-0" 301 0 basechar 0
LayerCount: 2
Fore
SplineSet
292 546 m 0,0,1
 361 546 361 546 410.5 516 c 128,-1,2
 460 486 460 486 486.5 431.5 c 128,-1,3
 513 377 513 377 513 304 c 2,4,-1
 513 251 l 1,5,-1
 146 251 l 1,6,7
 148 160 148 160 192.5 112.5 c 128,-1,8
 237 65 237 65 317 65 c 0,9,10
 368 65 368 65 407.5 74.5 c 128,-1,11
 447 84 447 84 489 102 c 1,12,-1
 489 25 l 1,13,14
 448 7 448 7 408 -1.5 c 128,-1,15
 368 -10 368 -10 313 -10 c 0,16,17
 237 -10 237 -10 178.5 21 c 128,-1,18
 120 52 120 52 87.5 113.5 c 128,-1,19
 55 175 55 175 55 264 c 0,20,21
 55 352 55 352 84.5 415 c 128,-1,22
 114 478 114 478 167.5 512 c 128,-1,23
 221 546 221 546 292 546 c 0,0,1
291 474 m 0,24,25
 228 474 228 474 191.5 433.5 c 128,-1,26
 155 393 155 393 148 321 c 1,27,-1
 421 321 l 1,28,29
 420 389 420 389 389 431.5 c 128,-1,30
 358 474 358 474 291 474 c 0,24,25
EndSplineSet
Substitution2: "'smcp' Lowercase to Small Capitals lookup 37 subtable" e.sc
Substitution2: "'aalt' Access All Alternates lookup 0 subtable" e.sc
EndChar

StartChar: f
Encoding: 102 102 73
Width: 344
GlyphClass: 2
Flags: W
AnchorPoint: "Anchor-2" 380 765 basechar 0
AnchorPoint: "Anchor-1" 252 765 basechar 0
AnchorPoint: "Anchor-0" 153 0 basechar 0
LayerCount: 2
Fore
SplineSet
332 468 m 1,0,-1
 197 468 l 1,1,-1
 197 0 l 1,2,-1
 109 0 l 1,3,-1
 109 468 l 1,4,-1
 15 468 l 1,5,-1
 15 509 l 1,6,-1
 109 539 l 1,7,-1
 109 570 l 2,8,9
 109 674 109 674 155 719.5 c 128,-1,10
 201 765 201 765 283 765 c 0,11,12
 315 765 315 765 341.5 759.5 c 128,-1,13
 368 754 368 754 387 747 c 1,14,-1
 364 678 l 1,15,16
 348 683 348 683 327 688 c 128,-1,17
 306 693 306 693 284 693 c 0,18,19
 240 693 240 693 218.5 663.5 c 128,-1,20
 197 634 197 634 197 571 c 2,21,-1
 197 536 l 1,22,-1
 332 536 l 1,23,-1
 332 468 l 1,0,-1
EndSplineSet
Substitution2: "'smcp' Lowercase to Small Capitals lookup 37 subtable" f.sc
Substitution2: "'aalt' Access All Alternates lookup 0 subtable" f.sc
EndChar

StartChar: g
Encoding: 103 103 74
Width: 615
GlyphClass: 2
Flags: W
AnchorPoint: "Anchor-2" 555 536 basechar 0
AnchorPoint: "Anchor-1" 297 536 basechar 0
AnchorPoint: "Anchor-0" 298 -240 basechar 0
LayerCount: 2
Fore
SplineSet
275 546 m 0,0,1
 328 546 328 546 370.5 526 c 128,-1,2
 413 506 413 506 443 465 c 1,3,-1
 448 465 l 1,4,-1
 460 536 l 1,5,-1
 530 536 l 1,6,-1
 530 -9 l 2,7,8
 530 -124 530 -124 471.5 -182 c 128,-1,9
 413 -240 413 -240 290 -240 c 0,10,11
 172 -240 172 -240 97 -206 c 1,12,-1
 97 -125 l 1,13,14
 176 -167 176 -167 295 -167 c 0,15,16
 364 -167 364 -167 403.5 -126.5 c 128,-1,17
 443 -86 443 -86 443 -16 c 2,18,-1
 443 5 l 2,19,20
 443 17 443 17 444 39.5 c 128,-1,21
 445 62 445 62 446 71 c 1,22,-1
 442 71 l 1,23,24
 388 -10 388 -10 276 -10 c 0,25,26
 172 -10 172 -10 113.5 63 c 128,-1,27
 55 136 55 136 55 267 c 0,28,29
 55 395 55 395 113.5 470.5 c 128,-1,30
 172 546 172 546 275 546 c 0,0,1
287 472 m 0,31,32
 220 472 220 472 183 418.5 c 128,-1,33
 146 365 146 365 146 266 c 256,34,35
 146 167 146 167 182.5 114.5 c 128,-1,36
 219 62 219 62 289 62 c 0,37,38
 370 62 370 62 407 105.5 c 128,-1,39
 444 149 444 149 444 246 c 2,40,-1
 444 267 l 2,41,42
 444 377 444 377 406 424.5 c 128,-1,43
 368 472 368 472 287 472 c 0,31,32
EndSplineSet
Substitution2: "'smcp' Lowercase to Small Capitals lookup 37 subtable" g.sc
Substitution2: "'aalt' Access All Alternates lookup 0 subtable" g.sc
EndChar

StartChar: h
Encoding: 104 104 75
Width: 618
GlyphClass: 2
Flags: W
AnchorPoint: "Anchor-3" 309 268 basechar 0
AnchorPoint: "Anchor-2" 535 760 basechar 0
AnchorPoint: "Anchor-1" 130 760 basechar 0
AnchorPoint: "Anchor-0" 310 0 basechar 0
LayerCount: 2
Fore
SplineSet
173 537 m 2,0,1
 173 497 173 497 168 462 c 1,2,-1
 174 462 l 1,3,4
 200 503 200 503 244.5 524 c 128,-1,5
 289 545 289 545 341 545 c 0,6,7
 439 545 439 545 488 498.5 c 128,-1,8
 537 452 537 452 537 349 c 2,9,-1
 537 0 l 1,10,-1
 450 0 l 1,11,-1
 450 343 l 2,12,13
 450 472 450 472 330 472 c 0,14,15
 240 472 240 472 206.5 421.5 c 128,-1,16
 173 371 173 371 173 277 c 2,17,-1
 173 0 l 1,18,-1
 85 0 l 1,19,-1
 85 760 l 1,20,-1
 173 760 l 1,21,-1
 173 537 l 2,0,1
EndSplineSet
Substitution2: "'smcp' Lowercase to Small Capitals lookup 37 subtable" h.sc
Substitution2: "'sinf' Scientific Inferiors lookup 21 subtable" uni2095
Substitution2: "'subs' Subscript lookup 20 subtable" uni2095
AlternateSubs2: "'aalt' Access All Alternates lookup 1 subtable" h.sc uni2095
EndChar

StartChar: i
Encoding: 105 105 76
Width: 258
GlyphClass: 2
Flags: W
AnchorPoint: "Anchor-2" 238 737 basechar 0
AnchorPoint: "Anchor-1" 129 737 basechar 0
AnchorPoint: "Anchor-0" 131 0 basechar 0
LayerCount: 2
Fore
SplineSet
130 737 m 0,0,1
 150 737 150 737 165.5 723.5 c 128,-1,2
 181 710 181 710 181 681 c 0,3,4
 181 653 181 653 165.5 639 c 128,-1,5
 150 625 150 625 130 625 c 0,6,7
 108 625 108 625 93 639 c 128,-1,8
 78 653 78 653 78 681 c 0,9,10
 78 710 78 710 93 723.5 c 128,-1,11
 108 737 108 737 130 737 c 0,0,1
173 536 m 1,12,-1
 173 0 l 1,13,-1
 85 0 l 1,14,-1
 85 536 l 1,15,-1
 173 536 l 1,12,-1
EndSplineSet
Substitution2: "'smcp' Lowercase to Small Capitals lookup 37 subtable" i.sc
Substitution2: "Single Substitution lookup 5 subtable" dotlessi
Substitution2: "Single Substitution lookup 4 subtable" dotlessi
AlternateSubs2: "'aalt' Access All Alternates lookup 1 subtable" dotlessi i.sc
EndChar

StartChar: j
Encoding: 106 106 77
Width: 470
GlyphClass: 2
Flags: W
AnchorPoint: "Anchor-9" 242 0 basechar 0
AnchorPoint: "Anchor-8" 235 536 basechar 0
AnchorPoint: "Anchor-6" 430 536 basechar 0
LayerCount: 2
Fore
SplineSet
280 606 m 4,0,1
 231 606 231 606 201 634 c 132,-1,2
 171 662 171 662 171 712 c 260,3,4
 171 762 171 762 201 789.5 c 132,-1,5
 231 817 231 817 280 817 c 4,6,7
 327 817 327 817 359 789.5 c 132,-1,8
 391 762 391 762 391 713 c 4,9,10
 391 662 391 662 359.5 634 c 132,-1,11
 328 606 328 606 280 606 c 4,0,1
280 656 m 4,12,13
 305 656 305 656 320.5 671 c 132,-1,14
 336 686 336 686 336 712 c 260,15,16
 336 738 336 738 320 753 c 132,-1,17
 304 768 304 768 280 768 c 260,18,19
 256 768 256 768 240 753 c 132,-1,20
 224 738 224 738 224 712 c 260,21,22
 224 686 224 686 238.5 671 c 132,-1,23
 253 656 253 656 280 656 c 4,12,13
431 0 m 1,24,-1
 39 0 l 1,25,-1
 39 58 l 1,26,-1
 327 468 l 1,27,-1
 56 468 l 1,28,-1
 56 536 l 1,29,-1
 424 536 l 1,30,-1
 424 470 l 1,31,-1
 140 68 l 1,32,-1
 431 68 l 1,33,-1
 431 0 l 1,24,-1
EndSplineSet
Substitution2: "'smcp' Lowercase to Small Capitals lookup 37 subtable" j.sc
Substitution2: "Single Substitution lookup 5 subtable" uni0237
Substitution2: "Single Substitution lookup 4 subtable" uni0237
AlternateSubs2: "'aalt' Access All Alternates lookup 1 subtable" uni0237 j.sc
EndChar

StartChar: k
Encoding: 107 107 78
Width: 534
GlyphClass: 2
Flags: W
AnchorPoint: "Anchor-2" 369 840 basechar 0
AnchorPoint: "Anchor-1" 129 760 basechar 0
AnchorPoint: "Anchor-0" 267 0 basechar 0
LayerCount: 2
Fore
SplineSet
172 363 m 2,0,1
 172 347 172 347 170.5 321 c 128,-1,2
 169 295 169 295 168 276 c 1,3,-1
 172 276 l 1,4,5
 178 284 178 284 190 299 c 128,-1,6
 202 314 202 314 214.5 329.5 c 128,-1,7
 227 345 227 345 236 355 c 2,8,-1
 407 536 l 1,9,-1
 510 536 l 1,10,-1
 293 307 l 1,11,-1
 525 0 l 1,12,-1
 419 0 l 1,13,-1
 233 250 l 1,14,-1
 172 197 l 1,15,-1
 172 0 l 1,16,-1
 85 0 l 1,17,-1
 85 760 l 1,18,-1
 172 760 l 1,19,-1
 172 363 l 2,0,1
EndSplineSet
Substitution2: "'smcp' Lowercase to Small Capitals lookup 37 subtable" k.sc
Substitution2: "'sinf' Scientific Inferiors lookup 21 subtable" uni2096
Substitution2: "'subs' Subscript lookup 20 subtable" uni2096
AlternateSubs2: "'aalt' Access All Alternates lookup 1 subtable" k.sc uni2096
EndChar

StartChar: l
Encoding: 108 108 79
Width: 258
GlyphClass: 2
Flags: W
AnchorPoint: "Anchor-3" 129 268 basechar 0
AnchorPoint: "Anchor-2" 202 760 basechar 0
AnchorPoint: "Anchor-1" 129 760 basechar 0
AnchorPoint: "Anchor-0" 129 0 basechar 0
LayerCount: 2
Fore
SplineSet
173 0 m 1,0,-1
 85 0 l 1,1,-1
 85 760 l 1,2,-1
 173 760 l 1,3,-1
 173 0 l 1,0,-1
EndSplineSet
Substitution2: "'smcp' Lowercase to Small Capitals lookup 37 subtable" l.sc
Substitution2: "'sinf' Scientific Inferiors lookup 21 subtable" uni2097
Substitution2: "'subs' Subscript lookup 20 subtable" uni2097
AlternateSubs2: "'aalt' Access All Alternates lookup 1 subtable" l.sc uni2097
EndChar

StartChar: m
Encoding: 109 109 80
Width: 935
GlyphClass: 2
Flags: W
AnchorPoint: "Anchor-2" 885 536 basechar 0
AnchorPoint: "Anchor-1" 479 536 basechar 0
AnchorPoint: "Anchor-0" 471 0 basechar 0
LayerCount: 2
Fore
SplineSet
673 546 m 0,0,1
 764 546 764 546 809 499.5 c 128,-1,2
 854 453 854 453 854 349 c 2,3,-1
 854 0 l 1,4,-1
 767 0 l 1,5,-1
 767 345 l 2,6,7
 767 472 767 472 658 472 c 0,8,9
 580 472 580 472 546.5 427 c 128,-1,10
 513 382 513 382 513 296 c 2,11,-1
 513 0 l 1,12,-1
 426 0 l 1,13,-1
 426 345 l 2,14,15
 426 472 426 472 316 472 c 0,16,17
 235 472 235 472 204 422 c 128,-1,18
 173 372 173 372 173 278 c 2,19,-1
 173 0 l 1,20,-1
 85 0 l 1,21,-1
 85 536 l 1,22,-1
 156 536 l 1,23,-1
 169 463 l 1,24,-1
 174 463 l 1,25,26
 199 505 199 505 241.5 525.5 c 128,-1,27
 284 546 284 546 332 546 c 0,28,29
 458 546 458 546 496 456 c 1,30,-1
 501 456 l 1,31,32
 528 502 528 502 574.5 524 c 128,-1,33
 621 546 621 546 673 546 c 0,0,1
EndSplineSet
Substitution2: "'smcp' Lowercase to Small Capitals lookup 37 subtable" m.sc
Substitution2: "'sinf' Scientific Inferiors lookup 21 subtable" uni2098
Substitution2: "'subs' Subscript lookup 20 subtable" uni2098
AlternateSubs2: "'aalt' Access All Alternates lookup 1 subtable" m.sc uni2098
EndChar

StartChar: n
Encoding: 110 110 81
Width: 618
GlyphClass: 2
Flags: W
AnchorPoint: "Anchor-2" 562 536 basechar 0
AnchorPoint: "Anchor-1" 309 536 basechar 0
AnchorPoint: "Anchor-0" 309 0 basechar 0
LayerCount: 2
Fore
SplineSet
343 546 m 0,0,1
 439 546 439 546 488 499.5 c 128,-1,2
 537 453 537 453 537 349 c 2,3,-1
 537 0 l 1,4,-1
 450 0 l 1,5,-1
 450 343 l 2,6,7
 450 472 450 472 330 472 c 0,8,9
 241 472 241 472 207 422 c 128,-1,10
 173 372 173 372 173 278 c 2,11,-1
 173 0 l 1,12,-1
 85 0 l 1,13,-1
 85 536 l 1,14,-1
 156 536 l 1,15,-1
 169 463 l 1,16,-1
 174 463 l 1,17,18
 200 505 200 505 246 525.5 c 128,-1,19
 292 546 292 546 343 546 c 0,0,1
EndSplineSet
Substitution2: "'smcp' Lowercase to Small Capitals lookup 37 subtable" n.sc
Substitution2: "'sups' Superscript lookup 22 subtable" uni207F
Substitution2: "'sinf' Scientific Inferiors lookup 21 subtable" uni2099
Substitution2: "'subs' Subscript lookup 20 subtable" uni2099
AlternateSubs2: "'aalt' Access All Alternates lookup 1 subtable" uni207F n.sc uni2099
EndChar

StartChar: o
Encoding: 111 111 82
Width: 605
GlyphClass: 2
Flags: W
AnchorPoint: "Anchor-3" 303 268 basechar 0
AnchorPoint: "Anchor-2" 575 536 basechar 0
AnchorPoint: "Anchor-1" 303 536 basechar 0
AnchorPoint: "Anchor-0" 301 0 basechar 0
LayerCount: 2
Fore
SplineSet
551 269 m 0,0,1
 551 136 551 136 483.5 63 c 128,-1,2
 416 -10 416 -10 301 -10 c 0,3,4
 230 -10 230 -10 174.5 22.5 c 128,-1,5
 119 55 119 55 87 117.5 c 128,-1,6
 55 180 55 180 55 269 c 0,7,8
 55 402 55 402 122 474 c 128,-1,9
 189 546 189 546 304 546 c 0,10,11
 377 546 377 546 432.5 513.5 c 128,-1,12
 488 481 488 481 519.5 419.5 c 128,-1,13
 551 358 551 358 551 269 c 0,0,1
146 269 m 256,14,15
 146 174 146 174 183.5 118.5 c 128,-1,16
 221 63 221 63 303 63 c 0,17,18
 384 63 384 63 422 118.5 c 128,-1,19
 460 174 460 174 460 269 c 256,20,21
 460 364 460 364 422 418 c 128,-1,22
 384 472 384 472 302 472 c 256,23,24
 220 472 220 472 183 418 c 128,-1,25
 146 364 146 364 146 269 c 256,14,15
EndSplineSet
Substitution2: "'smcp' Lowercase to Small Capitals lookup 37 subtable" o.sc
Substitution2: "Single Substitution lookup 31 subtable" ordmasculine
AlternateSubs2: "'aalt' Access All Alternates lookup 1 subtable" ordmasculine o.sc
EndChar

StartChar: p
Encoding: 112 112 83
Width: 615
GlyphClass: 2
Flags: W
AnchorPoint: "Anchor-2" 585 536 basechar 0
AnchorPoint: "Anchor-1" 332 536 basechar 0
AnchorPoint: "Anchor-0" 129 -240 basechar 0
LayerCount: 2
Fore
SplineSet
340 546 m 0,0,1
 439 546 439 546 499.5 477 c 128,-1,2
 560 408 560 408 560 269 c 0,3,4
 560 132 560 132 499.5 61 c 128,-1,5
 439 -10 439 -10 339 -10 c 0,6,7
 277 -10 277 -10 236.5 13.5 c 128,-1,8
 196 37 196 37 173 68 c 1,9,-1
 167 68 l 1,10,11
 169 51 169 51 171 25 c 128,-1,12
 173 -1 173 -1 173 -20 c 2,13,-1
 173 -240 l 1,14,-1
 85 -240 l 1,15,-1
 85 536 l 1,16,-1
 157 536 l 1,17,-1
 169 463 l 1,18,-1
 173 463 l 1,19,20
 197 498 197 498 236 522 c 128,-1,21
 275 546 275 546 340 546 c 0,0,1
324 472 m 0,22,23
 242 472 242 472 208.5 426 c 128,-1,24
 175 380 175 380 173 286 c 2,25,-1
 173 269 l 2,26,27
 173 170 173 170 205.5 116.5 c 128,-1,28
 238 63 238 63 326 63 c 0,29,30
 375 63 375 63 406.5 90 c 128,-1,31
 438 117 438 117 453.5 163.5 c 128,-1,32
 469 210 469 210 469 270 c 0,33,34
 469 362 469 362 433.5 417 c 128,-1,35
 398 472 398 472 324 472 c 0,22,23
EndSplineSet
Substitution2: "'smcp' Lowercase to Small Capitals lookup 37 subtable" p.sc
Substitution2: "'sinf' Scientific Inferiors lookup 21 subtable" uni209A
Substitution2: "'subs' Subscript lookup 20 subtable" uni209A
AlternateSubs2: "'aalt' Access All Alternates lookup 1 subtable" p.sc uni209A
EndChar

StartChar: q
Encoding: 113 113 84
Width: 534
GlyphClass: 2
Flags: W
AnchorPoint: "Anchor-9" 267 0 basechar 0
AnchorPoint: "Anchor-8" 129 535 basechar 0
AnchorPoint: "Anchor-6" 369 840 basechar 0
LayerCount: 2
Fore
SplineSet
272 578 m 4,0,1
 223 578 223 578 193 606 c 132,-1,2
 163 634 163 634 163 684 c 260,3,4
 163 734 163 734 193 761.5 c 132,-1,5
 223 789 223 789 272 789 c 4,6,7
 319 789 319 789 351 761.5 c 132,-1,8
 383 734 383 734 383 685 c 4,9,10
 383 634 383 634 351.5 606 c 132,-1,11
 320 578 320 578 272 578 c 4,0,1
272 628 m 4,12,13
 297 628 297 628 312.5 643 c 132,-1,14
 328 658 328 658 328 684 c 260,15,16
 328 710 328 710 312 725 c 132,-1,17
 296 740 296 740 272 740 c 260,18,19
 248 740 248 740 232 725 c 132,-1,20
 216 710 216 710 216 684 c 260,21,22
 216 658 216 658 230.5 643 c 132,-1,23
 245 628 245 628 272 628 c 4,12,13
172 363 m 2,24,25
 172 347 172 347 170.5 321 c 128,-1,26
 169 295 169 295 168 276 c 1,27,-1
 172 276 l 1,28,29
 178 284 178 284 190 299 c 128,-1,30
 202 314 202 314 214.5 329.5 c 0,31,32
 235 353 235 353 236 355 c 2,33,-1
 407 536 l 1,34,-1
 510 536 l 1,35,-1
 293 307 l 1,36,-1
 525 0 l 1,37,-1
 419 0 l 1,38,-1
 233 250 l 1,39,-1
 172 197 l 1,40,-1
 172 0 l 1,41,-1
 85 0 l 1,42,-1
 85 535 l 1,43,-1
 172 535 l 1,44,-1
 172 363 l 2,24,25
EndSplineSet
Substitution2: "'smcp' Lowercase to Small Capitals lookup 37 subtable" q.sc
Substitution2: "'aalt' Access All Alternates lookup 0 subtable" q.sc
EndChar

StartChar: r
Encoding: 114 114 85
Width: 413
GlyphClass: 2
Flags: W
AnchorPoint: "Anchor-2" 393 536 basechar 0
AnchorPoint: "Anchor-1" 240 536 basechar 0
AnchorPoint: "Anchor-0" 126 0 basechar 0
LayerCount: 2
Fore
SplineSet
335 546 m 0,0,1
 350 546 350 546 367.5 544.5 c 128,-1,2
 385 543 385 543 398 540 c 1,3,-1
 387 459 l 1,4,5
 374 462 374 462 358.5 464 c 128,-1,6
 343 466 343 466 329 466 c 0,7,8
 288 466 288 466 252 443.5 c 128,-1,9
 216 421 216 421 194.5 380.5 c 128,-1,10
 173 340 173 340 173 286 c 2,11,-1
 173 0 l 1,12,-1
 85 0 l 1,13,-1
 85 536 l 1,14,-1
 157 536 l 1,15,-1
 167 438 l 1,16,-1
 171 438 l 1,17,18
 197 482 197 482 238 514 c 128,-1,19
 279 546 279 546 335 546 c 0,0,1
EndSplineSet
Substitution2: "'smcp' Lowercase to Small Capitals lookup 37 subtable" r.sc
Substitution2: "'aalt' Access All Alternates lookup 0 subtable" r.sc
EndChar

StartChar: s
Encoding: 115 115 86
Width: 479
GlyphClass: 2
Flags: W
AnchorPoint: "Anchor-2" 439 536 basechar 0
AnchorPoint: "Anchor-1" 240 536 basechar 0
AnchorPoint: "Anchor-0" 240 0 basechar 0
LayerCount: 2
Fore
SplineSet
434 148 m 0,0,1
 434 70 434 70 376 30 c 128,-1,2
 318 -10 318 -10 220 -10 c 0,3,4
 164 -10 164 -10 123.5 -1 c 128,-1,5
 83 8 83 8 52 24 c 1,6,-1
 52 104 l 1,7,8
 84 88 84 88 129.5 74.5 c 128,-1,9
 175 61 175 61 222 61 c 0,10,11
 289 61 289 61 319 82.5 c 128,-1,12
 349 104 349 104 349 140 c 0,13,14
 349 160 349 160 338 176 c 128,-1,15
 327 192 327 192 298.5 208 c 128,-1,16
 270 224 270 224 217 244 c 0,17,18
 165 264 165 264 128 284 c 128,-1,19
 91 304 91 304 71 332 c 128,-1,20
 51 360 51 360 51 404 c 0,21,22
 51 472 51 472 106.5 509 c 128,-1,23
 162 546 162 546 252 546 c 0,24,25
 301 546 301 546 343.5 536.5 c 128,-1,26
 386 527 386 527 423 510 c 1,27,-1
 393 440 l 1,28,29
 359 454 359 454 322 464 c 128,-1,30
 285 474 285 474 246 474 c 0,31,32
 192 474 192 474 163.5 456.5 c 128,-1,33
 135 439 135 439 135 409 c 0,34,35
 135 387 135 387 148 371.5 c 128,-1,36
 161 356 161 356 191.5 341.5 c 128,-1,37
 222 327 222 327 273 307 c 0,38,39
 324 288 324 288 360 268 c 128,-1,40
 396 248 396 248 415 219.5 c 128,-1,41
 434 191 434 191 434 148 c 0,0,1
EndSplineSet
Substitution2: "'smcp' Lowercase to Small Capitals lookup 37 subtable" s.sc
Substitution2: "'sinf' Scientific Inferiors lookup 21 subtable" uni209B
Substitution2: "'subs' Subscript lookup 20 subtable" uni209B
AlternateSubs2: "'aalt' Access All Alternates lookup 1 subtable" s.sc uni209B
EndChar

StartChar: t
Encoding: 116 116 87
Width: 361
GlyphClass: 2
Flags: W
AnchorPoint: "Anchor-3" 181 268 basechar 0
AnchorPoint: "Anchor-2" 225 840 basechar 0
AnchorPoint: "Anchor-1" 154 659 basechar 0
AnchorPoint: "Anchor-0" 214 0 basechar 0
LayerCount: 2
Fore
SplineSet
264 62 m 0,0,1
 284 62 284 62 305 65.5 c 128,-1,2
 326 69 326 69 339 73 c 1,3,-1
 339 6 l 1,4,5
 325 -1 325 -1 299 -5.5 c 128,-1,6
 273 -10 273 -10 249 -10 c 0,7,8
 207 -10 207 -10 171.5 4.5 c 128,-1,9
 136 19 136 19 114 55 c 128,-1,10
 92 91 92 91 92 156 c 2,11,-1
 92 468 l 1,12,-1
 16 468 l 1,13,-1
 16 510 l 1,14,-1
 93 545 l 1,15,-1
 128 659 l 1,16,-1
 180 659 l 1,17,-1
 180 536 l 1,18,-1
 335 536 l 1,19,-1
 335 468 l 1,20,-1
 180 468 l 1,21,-1
 180 158 l 2,22,23
 180 109 180 109 203.5 85.5 c 128,-1,24
 227 62 227 62 264 62 c 0,0,1
EndSplineSet
Substitution2: "'smcp' Lowercase to Small Capitals lookup 37 subtable" t.sc
Substitution2: "'sinf' Scientific Inferiors lookup 21 subtable" uni209C
Substitution2: "'subs' Subscript lookup 20 subtable" uni209C
AlternateSubs2: "'aalt' Access All Alternates lookup 1 subtable" t.sc uni209C
EndChar

StartChar: u
Encoding: 117 117 88
Width: 618
GlyphClass: 2
Flags: W
AnchorPoint: "Anchor-2" 562 536 basechar 0
AnchorPoint: "Anchor-1" 309 536 basechar 0
AnchorPoint: "Anchor-0" 294 0 basechar 0
LayerCount: 2
Fore
SplineSet
533 536 m 1,0,-1
 533 0 l 1,1,-1
 461 0 l 1,2,-1
 448 71 l 1,3,-1
 444 71 l 1,4,5
 418 29 418 29 372 9.5 c 128,-1,6
 326 -10 326 -10 274 -10 c 0,7,8
 177 -10 177 -10 128 36.5 c 128,-1,9
 79 83 79 83 79 185 c 2,10,-1
 79 536 l 1,11,-1
 168 536 l 1,12,-1
 168 191 l 2,13,14
 168 63 168 63 287 63 c 0,15,16
 376 63 376 63 410.5 113 c 128,-1,17
 445 163 445 163 445 257 c 2,18,-1
 445 536 l 1,19,-1
 533 536 l 1,0,-1
EndSplineSet
Substitution2: "'smcp' Lowercase to Small Capitals lookup 37 subtable" u.sc
Substitution2: "'aalt' Access All Alternates lookup 0 subtable" u.sc
EndChar

StartChar: v
Encoding: 118 118 89
Width: 508
GlyphClass: 2
Flags: W
AnchorPoint: "Anchor-2" 488 536 basechar 0
AnchorPoint: "Anchor-1" 252 536 basechar 0
AnchorPoint: "Anchor-0" 252 0 basechar 0
LayerCount: 2
Fore
SplineSet
203 0 m 1,0,-1
 0 536 l 1,1,-1
 94 536 l 1,2,-1
 208 220 l 2,3,4
 216 198 216 198 225 171 c 128,-1,5
 234 144 234 144 241 119.5 c 128,-1,6
 248 95 248 95 251 78 c 1,7,-1
 255 78 l 1,8,9
 259 95 259 95 266.5 120 c 128,-1,10
 274 145 274 145 283.5 172 c 128,-1,11
 293 199 293 199 300 220 c 2,12,-1
 414 536 l 1,13,-1
 508 536 l 1,14,-1
 304 0 l 1,15,-1
 203 0 l 1,0,-1
EndSplineSet
Substitution2: "'smcp' Lowercase to Small Capitals lookup 37 subtable" v.sc
Substitution2: "'aalt' Access All Alternates lookup 0 subtable" v.sc
EndChar

StartChar: w
Encoding: 119 119 90
Width: 786
GlyphClass: 2
Flags: W
AnchorPoint: "Anchor-2" 766 536 basechar 0
AnchorPoint: "Anchor-1" 393 536 basechar 0
AnchorPoint: "Anchor-0" 391 0 basechar 0
LayerCount: 2
Fore
SplineSet
431 303 m 2,0,1
 418 344 418 344 408.5 383.5 c 128,-1,2
 399 423 399 423 394 445 c 1,3,-1
 390 445 l 1,4,5
 386 423 386 423 377 383.5 c 128,-1,6
 368 344 368 344 354 302 c 2,7,-1
 258 1 l 1,8,-1
 158 1 l 1,9,-1
 11 537 l 1,10,-1
 102 537 l 1,11,-1
 176 251 l 2,12,13
 187 208 187 208 197 164 c 128,-1,14
 207 120 207 120 211 91 c 1,15,-1
 215 91 l 1,16,17
 219 108 219 108 224.5 133 c 128,-1,18
 230 158 230 158 237 185.5 c 128,-1,19
 244 213 244 213 251 235 c 2,20,-1
 346 537 l 1,21,-1
 442 537 l 1,22,-1
 534 235 l 2,23,24
 545 201 545 201 555.5 161 c 128,-1,25
 566 121 566 121 570 92 c 1,26,-1
 574 92 l 1,27,28
 577 117 577 117 587.5 161 c 128,-1,29
 598 205 598 205 610 251 c 2,30,-1
 685 537 l 1,31,-1
 775 537 l 1,32,-1
 626 1 l 1,33,-1
 523 1 l 1,34,-1
 431 303 l 2,0,1
EndSplineSet
Substitution2: "'smcp' Lowercase to Small Capitals lookup 37 subtable" w.sc
Substitution2: "'aalt' Access All Alternates lookup 0 subtable" w.sc
EndChar

StartChar: x
Encoding: 120 120 91
Width: 529
GlyphClass: 2
Flags: W
AnchorPoint: "Anchor-2" 509 536 basechar 0
AnchorPoint: "Anchor-1" 263 536 basechar 0
AnchorPoint: "Anchor-0" 265 0 basechar 0
LayerCount: 2
Fore
SplineSet
212 274 m 1,0,-1
 27 536 l 1,1,-1
 127 536 l 1,2,-1
 265 334 l 1,3,-1
 402 536 l 1,4,-1
 501 536 l 1,5,-1
 316 274 l 1,6,-1
 511 0 l 1,7,-1
 411 0 l 1,8,-1
 265 214 l 1,9,-1
 117 0 l 1,10,-1
 18 0 l 1,11,-1
 212 274 l 1,0,-1
EndSplineSet
Substitution2: "'smcp' Lowercase to Small Capitals lookup 37 subtable" x.sc
Substitution2: "'aalt' Access All Alternates lookup 0 subtable" x.sc
EndChar

StartChar: y
Encoding: 121 121 92
Width: 510
GlyphClass: 2
Flags: W
AnchorPoint: "Anchor-2" 490 536 basechar 0
AnchorPoint: "Anchor-1" 255 536 basechar 0
AnchorPoint: "Anchor-0" 94 -240 basechar 0
LayerCount: 2
Fore
SplineSet
1 536 m 1,0,-1
 95 536 l 1,1,-1
 211 231 l 2,2,3
 226 191 226 191 238 154.5 c 128,-1,4
 250 118 250 118 256 85 c 1,5,-1
 260 85 l 1,6,7
 266 110 266 110 279 150.5 c 128,-1,8
 292 191 292 191 306 232 c 2,9,-1
 415 536 l 1,10,-1
 510 536 l 1,11,-1
 279 -74 l 2,12,13
 251 -150 251 -150 206.5 -195 c 128,-1,14
 162 -240 162 -240 84 -240 c 0,15,16
 60 -240 60 -240 42 -237.5 c 128,-1,17
 24 -235 24 -235 11 -232 c 1,18,-1
 11 -162 l 1,19,20
 22 -164 22 -164 37.5 -166 c 128,-1,21
 53 -168 53 -168 70 -168 c 0,22,23
 116 -168 116 -168 144.5 -142 c 128,-1,24
 173 -116 173 -116 189 -73 c 2,25,-1
 217 -2 l 1,26,-1
 1 536 l 1,0,-1
EndSplineSet
Substitution2: "'smcp' Lowercase to Small Capitals lookup 37 subtable" y.sc
Substitution2: "'aalt' Access All Alternates lookup 0 subtable" y.sc
EndChar

StartChar: z
Encoding: 122 122 93
Width: 470
GlyphClass: 2
Flags: W
AnchorPoint: "Anchor-2" 430 536 basechar 0
AnchorPoint: "Anchor-1" 235 536 basechar 0
AnchorPoint: "Anchor-0" 242 0 basechar 0
LayerCount: 2
Fore
SplineSet
431 0 m 1,0,-1
 39 0 l 1,1,-1
 39 58 l 1,2,-1
 327 468 l 1,3,-1
 56 468 l 1,4,-1
 56 536 l 1,5,-1
 424 536 l 1,6,-1
 424 470 l 1,7,-1
 140 68 l 1,8,-1
 431 68 l 1,9,-1
 431 0 l 1,0,-1
EndSplineSet
Substitution2: "'smcp' Lowercase to Small Capitals lookup 37 subtable" z.sc
Substitution2: "'aalt' Access All Alternates lookup 0 subtable" z.sc
EndChar

StartChar: braceleft
Encoding: 123 123 94
Width: 380
Flags: W
LayerCount: 2
Fore
SplineSet
348 -158 m 1,0,1
 256 -157 256 -157 203 -118 c 128,-1,2
 150 -79 150 -79 150 1 c 2,3,-1
 150 148 l 2,4,5
 150 199 150 199 118.5 220.5 c 128,-1,6
 87 242 87 242 28 242 c 1,7,-1
 28 315 l 1,8,9
 87 316 87 316 118.5 337 c 128,-1,10
 150 358 150 358 150 408 c 2,11,-1
 150 556 l 2,12,13
 150 636 150 636 205 675 c 128,-1,14
 260 714 260 714 348 714 c 1,15,-1
 348 642 l 1,16,17
 296 641 296 641 266.5 619 c 128,-1,18
 237 597 237 597 237 548 c 2,19,-1
 237 404 l 2,20,21
 237 301 237 301 128 282 c 1,22,-1
 128 276 l 1,23,24
 237 257 237 257 237 154 c 2,25,-1
 237 7 l 2,26,27
 237 -42 237 -42 266 -63.5 c 128,-1,28
 295 -85 295 -85 348 -86 c 1,29,-1
 348 -158 l 1,0,1
EndSplineSet
Substitution2: "'locl' Localized Forms lookup 166 subtable" braceleft.deva
Substitution2: "'smcp' Lowercase to Small Capitals lookup 37 subtable" braceleft.sc
Substitution2: "'c2sc' Capitals to Small Capitals lookup 36 subtable" braceleft.sc
Substitution2: "'aalt' Access All Alternates lookup 0 subtable" braceleft.sc
EndChar

StartChar: bar
Encoding: 124 124 95
Width: 551
Flags: W
LayerCount: 2
Fore
SplineSet
239 760 m 1,0,-1
 312 760 l 1,1,-1
 312 -241 l 1,2,-1
 239 -241 l 1,3,-1
 239 760 l 1,0,-1
EndSplineSet
Substitution2: "'locl' Localized Forms lookup 166 subtable" bar.deva
EndChar

StartChar: braceright
Encoding: 125 125 96
Width: 380
Flags: W
LayerCount: 2
Fore
SplineSet
32 -86 m 1,0,1
 84 -84 84 -84 113.5 -62.5 c 128,-1,2
 143 -41 143 -41 143 8 c 2,3,-1
 143 153 l 2,4,5
 143 256 143 256 252 275 c 1,6,-1
 252 281 l 1,7,8
 143 300 143 300 143 403 c 2,9,-1
 143 549 l 2,10,11
 143 598 143 598 114 619.5 c 128,-1,12
 85 641 85 641 32 642 c 1,13,-1
 32 714 l 1,14,15
 124 713 124 713 177 674 c 128,-1,16
 230 635 230 635 230 555 c 2,17,-1
 230 409 l 2,18,19
 230 358 230 358 261.5 336.5 c 128,-1,20
 293 315 293 315 352 315 c 1,21,-1
 352 242 l 1,22,23
 293 241 293 241 261.5 220 c 128,-1,24
 230 199 230 199 230 149 c 2,25,-1
 230 0 l 2,26,27
 230 -79 230 -79 175 -118.5 c 128,-1,28
 120 -158 120 -158 32 -158 c 1,29,-1
 32 -86 l 1,0,1
EndSplineSet
Substitution2: "'locl' Localized Forms lookup 166 subtable" braceright.deva
Substitution2: "'smcp' Lowercase to Small Capitals lookup 37 subtable" braceright.sc
Substitution2: "'c2sc' Capitals to Small Capitals lookup 36 subtable" braceright.sc
Substitution2: "'aalt' Access All Alternates lookup 0 subtable" braceright.sc
EndChar

StartChar: asciitilde
Encoding: 126 126 97
Width: 572
Flags: W
LayerCount: 2
Fore
SplineSet
269 319 m 0,0,1
 233 335 233 335 209.5 340.5 c 128,-1,2
 186 346 186 346 164 346 c 0,3,4
 136 346 136 346 105 329 c 128,-1,5
 74 312 74 312 50 287 c 1,6,-1
 50 365 l 1,7,8
 98 418 98 418 170 418 c 0,9,10
 199 418 199 418 227.5 412 c 128,-1,11
 256 406 256 406 302 386 c 0,12,13
 338 370 338 370 361.5 364.5 c 128,-1,14
 385 359 385 359 406 359 c 0,15,16
 435 359 435 359 466 376 c 128,-1,17
 497 393 497 393 521 418 c 1,18,-1
 521 341 l 1,19,20
 472 287 472 287 401 287 c 0,21,22
 373 287 373 287 343.5 293.5 c 128,-1,23
 314 300 314 300 269 319 c 0,0,1
EndSplineSet
Substitution2: "'locl' Localized Forms lookup 166 subtable" asciitilde.deva
EndChar

StartChar: cent
Encoding: 162 162 99
Width: 527
Flags: W
AnchorPoint: "Anchor-1" 264 536 basechar 0
AnchorPoint: "Anchor-0" 264 0 basechar 0
LayerCount: 2
Fore
SplineSet
10 0 m 1,0,-1
 225 538 l 1,1,-1
 302 538 l 1,2,-1
 516 0 l 1,3,-1
 425 0 l 1,4,-1
 360 161 l 1,5,-1
 164 161 l 1,6,-1
 101 0 l 1,7,-1
 10 0 l 1,0,-1
192 234 m 1,8,-1
 335 234 l 1,9,-1
 278 382 l 2,10,11
 268 407 268 407 263 435 c 1,12,13
 261 422 261 422 258 409.5 c 128,-1,14
 255 397 255 397 249 382 c 2,15,-1
 192 234 l 1,8,-1
EndSplineSet
EndChar

StartChar: sterling
Encoding: 163 163 100
Width: 576
Flags: W
AnchorPoint: "Anchor-1" 288 536 basechar 0
AnchorPoint: "Anchor-0" 288 0 basechar 0
LayerCount: 2
Fore
SplineSet
85 0 m 1,0,-1
 85 536 l 1,1,-1
 315 536 l 2,2,3
 372 536 372 536 417.5 523.5 c 128,-1,4
 463 511 463 511 489.5 481.5 c 128,-1,5
 516 452 516 452 516 401 c 0,6,7
 516 351 516 351 486 323 c 128,-1,8
 456 295 456 295 409 285 c 1,9,-1
 409 281 l 1,10,11
 459 274 459 274 496 245.5 c 128,-1,12
 533 217 533 217 533 157 c 0,13,14
 533 89 533 89 482.5 44.5 c 128,-1,15
 432 0 432 0 316 0 c 2,16,-1
 85 0 l 1,0,-1
294 316 m 2,17,18
 427 316 427 316 427 390 c 0,19,20
 427 428 427 428 399.5 445.5 c 128,-1,21
 372 463 372 463 310 463 c 2,22,-1
 173 463 l 1,23,-1
 173 316 l 1,24,-1
 294 316 l 2,17,18
306 71 m 2,25,26
 372 71 372 71 407 90.5 c 128,-1,27
 442 110 442 110 442 157 c 0,28,29
 442 203 442 203 407 223 c 128,-1,30
 372 243 372 243 304 243 c 2,31,-1
 173 243 l 1,32,-1
 173 71 l 1,33,-1
 306 71 l 2,25,26
EndSplineSet
EndChar

StartChar: currency
Encoding: 164 164 101
Width: 522
Flags: W
AnchorPoint: "Anchor-1" 261 536 basechar 0
AnchorPoint: "Anchor-0" 261 0 basechar 0
LayerCount: 2
Fore
SplineSet
326 471 m 0,0,1
 245 471 245 471 198.5 417 c 128,-1,2
 152 363 152 363 152 268 c 0,3,4
 152 174 152 174 195 119.5 c 128,-1,5
 238 65 238 65 326 65 c 0,6,7
 360 65 360 65 394.5 72 c 128,-1,8
 429 79 429 79 464 89 c 1,9,-1
 464 17 l 1,10,11
 430 4 430 4 396 -1.5 c 128,-1,12
 362 -7 362 -7 316 -7 c 0,13,14
 188 -7 188 -7 123.5 67.5 c 128,-1,15
 59 142 59 142 59 269 c 0,16,17
 59 350 59 350 90 412 c 128,-1,18
 121 474 121 474 181 508.5 c 128,-1,19
 241 543 241 543 327 543 c 0,20,21
 370 543 370 543 411.5 534 c 128,-1,22
 453 525 453 525 488 508 c 1,23,-1
 454 439 l 1,24,25
 426 452 426 452 393.5 461.5 c 128,-1,26
 361 471 361 471 326 471 c 0,0,1
EndSplineSet
EndChar

StartChar: yen
Encoding: 165 165 102
Width: 596
Flags: W
AnchorPoint: "Anchor-1" 298 536 basechar 0
AnchorPoint: "Anchor-0" 298 0 basechar 0
LayerCount: 2
Fore
SplineSet
536 273 m 0,0,1
 536 137 536 137 459.5 68.5 c 128,-1,2
 383 0 383 0 246 0 c 2,3,-1
 86 0 l 1,4,-1
 86 536 l 1,5,-1
 262 536 l 2,6,7
 388 536 388 536 462 469 c 128,-1,8
 536 402 536 402 536 273 c 0,0,1
444 271 m 0,9,10
 444 371 444 371 394 418 c 128,-1,11
 344 465 344 465 252 465 c 2,12,-1
 175 465 l 1,13,-1
 175 71 l 1,14,-1
 237 71 l 2,15,16
 444 71 444 71 444 271 c 0,9,10
EndSplineSet
EndChar

StartChar: brokenbar
Encoding: 166 166 103
Width: 465
Flags: W
AnchorPoint: "Anchor-1" 233 536 basechar 0
AnchorPoint: "Anchor-0" 233 0 basechar 0
LayerCount: 2
Fore
SplineSet
407 0 m 1,0,-1
 86 0 l 1,1,-1
 86 536 l 1,2,-1
 407 536 l 1,3,-1
 407 464 l 1,4,-1
 175 464 l 1,5,-1
 175 315 l 1,6,-1
 393 315 l 1,7,-1
 393 244 l 1,8,-1
 175 244 l 1,9,-1
 175 72 l 1,10,-1
 407 72 l 1,11,-1
 407 0 l 1,0,-1
EndSplineSet
EndChar

StartChar: section
Encoding: 167 167 104
Width: 415
Flags: W
LayerCount: 2
Fore
SplineSet
155 0 m 1,0,-1
 79 0 l 1,1,-1
 79 537 l 1,2,-1
 382 537 l 1,3,-1
 382 473 l 1,4,-1
 155 473 l 1,5,-1
 155 289 l 1,6,-1
 368 289 l 1,7,-1
 368 226 l 1,8,-1
 155 226 l 1,9,-1
 155 0 l 1,0,-1
EndSplineSet
EndChar

StartChar: dieresis
Encoding: 168 168 105
Width: 574
Flags: W
AnchorPoint: "Anchor-2" 519 536 basechar 0
AnchorPoint: "Anchor-1" 287 536 basechar 0
AnchorPoint: "Anchor-0" 287 0 basechar 0
LayerCount: 2
Fore
SplineSet
323 546 m 0,0,1
 433 546 433 546 494 510 c 1,2,-1
 462 434 l 1,3,4
 431 450 431 450 395.5 459.5 c 128,-1,5
 360 469 360 469 328 469 c 0,6,7
 146 469 146 469 146 266 c 0,8,9
 146 169 146 169 184.5 117.5 c 128,-1,10
 223 66 223 66 299 66 c 0,11,12
 335 66 335 66 360.5 69.5 c 128,-1,13
 386 73 386 73 414 80 c 1,14,-1
 414 227 l 1,15,-1
 299 227 l 1,16,-1
 299 298 l 1,17,-1
 502 298 l 1,18,-1
 502 28 l 1,19,20
 453 10 453 10 406 0 c 128,-1,21
 359 -10 359 -10 300 -10 c 0,22,23
 229 -10 229 -10 173.5 19 c 128,-1,24
 118 48 118 48 86.5 109 c 128,-1,25
 55 170 55 170 55 265 c 0,26,27
 55 364 55 364 91 426 c 128,-1,28
 127 488 127 488 187.5 517 c 128,-1,29
 248 546 248 546 323 546 c 0,0,1
EndSplineSet
EndChar

StartChar: copyright
Encoding: 169 169 106
Width: 637
Flags: W
AnchorPoint: "Anchor-1" 319 536 basechar 0
AnchorPoint: "Anchor-0" 319 0 basechar 0
LayerCount: 2
Fore
SplineSet
85 0 m 1,0,-1
 85 536 l 1,1,-1
 173 536 l 1,2,-1
 173 313 l 1,3,-1
 464 313 l 1,4,-1
 464 536 l 1,5,-1
 552 536 l 1,6,-1
 552 0 l 1,7,-1
 464 0 l 1,8,-1
 464 239 l 1,9,-1
 173 239 l 1,10,-1
 173 0 l 1,11,-1
 85 0 l 1,0,-1
EndSplineSet
EndChar

StartChar: ordfeminine
Encoding: 170 170 107
Width: 320
GlyphClass: 2
Flags: W
AnchorPoint: "Anchor-1" 160 536 basechar 0
AnchorPoint: "Anchor-0" 160 0 basechar 0
LayerCount: 2
Fore
SplineSet
284 536 m 1,0,-1
 284 484 l 1,1,-1
 204 466 l 1,2,-1
 204 69 l 1,3,-1
 284 52 l 1,4,-1
 284 0 l 1,5,-1
 36 0 l 1,6,-1
 36 52 l 1,7,-1
 116 69 l 1,8,-1
 116 466 l 1,9,-1
 36 484 l 1,10,-1
 36 536 l 1,11,-1
 284 536 l 1,0,-1
EndSplineSet
EndChar

StartChar: guillemotleft
Encoding: 171 171 108
Width: 347
Flags: W
AnchorPoint: "Anchor-1" 222 536 basechar 0
AnchorPoint: "Anchor-0" 222 -139 basechar 0
LayerCount: 2
Fore
SplineSet
116 -10 m 0,0,1
 97 -10 97 -10 80.5 -6.5 c 128,-1,2
 64 -3 64 -3 50 3 c 1,3,-1
 50 74 l 1,4,5
 86 63 86 63 114 63 c 0,6,7
 139 63 139 63 158.5 78.5 c 128,-1,8
 178 94 178 94 178 139 c 2,9,-1
 178 536 l 1,10,-1
 266 536 l 1,11,-1
 266 144 l 2,12,13
 266 65 266 65 225 27.5 c 128,-1,14
 184 -10 184 -10 116 -10 c 0,0,1
EndSplineSet
EndChar

StartChar: logicalnot
Encoding: 172 172 109
Width: 534
Flags: W
AnchorPoint: "Anchor-1" 267 536 basechar 0
AnchorPoint: "Anchor-0" 267 0 basechar 0
LayerCount: 2
Fore
SplineSet
509 536 m 1,0,-1
 306 299 l 1,1,-1
 525 0 l 1,2,-1
 420 0 l 1,3,-1
 244 242 l 1,4,-1
 178 188 l 1,5,-1
 178 0 l 1,6,-1
 85 0 l 1,7,-1
 85 536 l 1,8,-1
 178 536 l 1,9,-1
 178 397 l 2,10,11
 178 357 178 357 176 319 c 128,-1,12
 174 281 174 281 172 261 c 1,13,-1
 174 261 l 1,14,15
 183 274 183 274 193.5 287.5 c 128,-1,16
 204 301 204 301 213 312 c 2,17,-1
 403 536 l 1,18,-1
 509 536 l 1,0,-1
EndSplineSet
EndChar

StartChar: uni00AD
Encoding: 173 173 110
Width: 435
Flags: W
AnchorPoint: "Anchor-1" 218 536 basechar 0
AnchorPoint: "Anchor-0" 218 0 basechar 0
LayerCount: 2
Fore
SplineSet
85 0 m 1,0,-1
 85 536 l 1,1,-1
 173 536 l 1,2,-1
 173 73 l 1,3,-1
 417 73 l 1,4,-1
 417 0 l 1,5,-1
 85 0 l 1,0,-1
EndSplineSet
EndChar

StartChar: registered
Encoding: 174 174 111
Width: 746
Flags: W
AnchorPoint: "Anchor-1" 373 536 basechar 0
AnchorPoint: "Anchor-0" 373 0 basechar 0
LayerCount: 2
Fore
SplineSet
660 536 m 1,0,-1
 660 0 l 1,1,-1
 581 0 l 1,2,-1
 581 342 l 2,3,4
 581 363 581 363 582.5 386 c 128,-1,5
 584 409 584 409 586 431 c 1,6,-1
 583 431 l 1,7,-1
 408 0 l 1,8,-1
 334 0 l 1,9,-1
 164 431 l 1,10,-1
 161 431 l 1,11,12
 164 386 164 386 164 339 c 2,13,-1
 164 0 l 1,14,-1
 85 0 l 1,15,-1
 85 536 l 1,16,-1
 202 536 l 1,17,-1
 371 105 l 1,18,-1
 543 536 l 1,19,-1
 660 536 l 1,0,-1
EndSplineSet
EndChar

StartChar: overscore
Encoding: 175 175 112
Width: 502
Flags: W
AnchorPoint: "Anchor-2" 578 536 basechar 0
AnchorPoint: "Anchor-1" 316 536 basechar 0
AnchorPoint: "Anchor-0" 316 0 basechar 0
LayerCount: 2
Fore
SplineSet
85 0 m 1,0,-1
 85 536 l 1,1,-1
 193 536 l 1,2,-1
 470 104 l 1,3,4
 469 118 469 118 467.5 142 c 128,-1,5
 466 166 466 166 465 190 c 128,-1,6
 464 214 464 214 464 226 c 2,7,-1
 464 536 l 1,8,-1
 547 536 l 1,9,-1
 547 0 l 1,10,-1
 438 0 l 1,11,-1
 164 431 l 1,12,13
 165 418 165 418 166 392.5 c 128,-1,14
 167 367 167 367 167.5 341 c 128,-1,15
 168 315 168 315 168 299 c 2,16,-1
 168 0 l 1,17,-1
 85 0 l 1,0,-1
EndSplineSet
Substitution2: "'c2sc' Capitals to Small Capitals lookup 36 subtable" macron.sc
Substitution2: "'aalt' Access All Alternates lookup 0 subtable" macron.sc
EndChar

StartChar: degree
Encoding: 176 176 113
Width: 605
Flags: W
AnchorPoint: "Anchor-3" 303 268 basechar 0
AnchorPoint: "Anchor-2" 575 536 basechar 0
AnchorPoint: "Anchor-1" 303 536 basechar 0
AnchorPoint: "Anchor-0" 301 0 basechar 0
LayerCount: 2
Fore
SplineSet
219 312 m 1,0,-1
 390 312 l 5,1,-1
 390 230 l 5,2,-1
 219 230 l 1,3,-1
 219 312 l 1,0,-1
EndSplineSet
Refer: 82 111 N 1 0 0 1 0 0 3
EndChar

StartChar: uni00B2
Encoding: 178 178 115
Width: 632
Flags: W
AnchorPoint: "Anchor-3" 316 286 basechar 0
AnchorPoint: "Anchor-2" 615 573 basechar 0
AnchorPoint: "Anchor-1" 317 573 basechar 0
AnchorPoint: "Anchor-0" 317 -139 basechar 0
LayerCount: 2
Fore
SplineSet
584 287 m 0,0,1
 584 184 584 184 544.5 110.5 c 128,-1,2
 505 37 505 37 423 8 c 1,3,-1
 562 -139 l 1,4,-1
 448 -139 l 1,5,-1
 336 -8 l 1,6,7
 326 -8 326 -8 317 -8 c 0,8,9
 227 -8 227 -8 167 29 c 128,-1,10
 107 66 107 66 77.5 133 c 128,-1,11
 48 200 48 200 48 288 c 0,12,13
 48 375 48 375 77.5 441 c 128,-1,14
 107 507 107 507 167 544 c 128,-1,15
 227 581 227 581 317 581 c 0,16,17
 408 581 408 581 467 544 c 128,-1,18
 526 507 526 507 555 440.5 c 128,-1,19
 584 374 584 374 584 287 c 0,0,1
140 287 m 256,20,21
 140 187 140 187 182.5 127 c 128,-1,22
 225 67 225 67 316 67 c 0,23,24
 408 67 408 67 450 127 c 128,-1,25
 492 187 492 187 492 287 c 0,26,27
 492 391 492 391 448 448.5 c 128,-1,28
 404 506 404 506 316 506 c 0,29,30
 225 506 225 506 182.5 446.5 c 128,-1,31
 140 387 140 387 140 287 c 256,20,21
EndSplineSet
EndChar

StartChar: uni00B3
Encoding: 179 179 116
Width: 559
Flags: W
AnchorPoint: "Anchor-1" 280 536 basechar 0
AnchorPoint: "Anchor-0" 280 0 basechar 0
LayerCount: 2
Fore
SplineSet
85 0 m 1,0,-1
 85 536 l 1,1,-1
 325 536 l 2,2,3
 411 536 411 536 463 495.5 c 128,-1,4
 515 455 515 455 515 378 c 0,5,6
 515 331 515 331 497 299.5 c 128,-1,7
 479 268 479 268 450.5 250.5 c 128,-1,8
 422 233 422 233 390 225 c 1,9,-1
 543 0 l 1,10,-1
 441 0 l 1,11,-1
 303 213 l 1,12,-1
 173 213 l 1,13,-1
 173 0 l 1,14,-1
 85 0 l 1,0,-1
299 286 m 2,15,16
 361 286 361 286 395.5 308.5 c 128,-1,17
 430 331 430 331 430 377 c 0,18,19
 430 415 430 415 404 439 c 128,-1,20
 378 463 378 463 316 463 c 2,21,-1
 173 463 l 1,22,-1
 173 286 l 1,23,-1
 299 286 l 2,15,16
EndSplineSet
EndChar

StartChar: acute
Encoding: 180 180 117
Width: 421
Flags: W
LayerCount: 2
Fore
SplineSet
384 143 m 0,0,1
 384 71 384 71 332 31.5 c 128,-1,2
 280 -8 280 -8 194 -8 c 0,3,4
 100 -8 100 -8 40 19 c 1,5,-1
 40 91 l 1,6,7
 75 76 75 76 113.5 66 c 128,-1,8
 152 56 152 56 195 56 c 0,9,10
 246 56 246 56 276.5 78 c 128,-1,11
 307 100 307 100 307 140 c 0,12,13
 307 182 307 182 273 203 c 128,-1,14
 239 224 239 224 184 246 c 0,15,16
 148 260 148 260 116.5 278.5 c 128,-1,17
 85 297 85 297 66 326.5 c 128,-1,18
 47 356 47 356 47 401 c 0,19,20
 47 469 47 469 95.5 507.5 c 128,-1,21
 144 546 144 546 223 546 c 0,22,23
 264 546 264 546 301.5 537.5 c 128,-1,24
 339 529 339 529 376 513 c 1,25,-1
 350 452 l 1,26,27
 315 467 315 467 284.5 474.5 c 128,-1,28
 254 482 254 482 223 482 c 0,29,30
 179 482 179 482 151.5 461.5 c 128,-1,31
 124 441 124 441 124 403 c 0,32,33
 124 375 124 375 138 357.5 c 128,-1,34
 152 340 152 340 178.5 327.5 c 128,-1,35
 205 315 205 315 241 300 c 0,36,37
 282 283 282 283 314.5 263.5 c 128,-1,38
 347 244 347 244 365.5 215.5 c 128,-1,39
 384 187 384 187 384 143 c 0,0,1
EndSplineSet
EndChar

StartChar: uni00B5
Encoding: 181 181 118
Width: 476
Flags: W
AnchorPoint: "Anchor-1" 238 536 basechar 0
AnchorPoint: "Anchor-0" 238 0 basechar 0
LayerCount: 2
Fore
SplineSet
455 462 m 1,0,-1
 280 462 l 1,1,-1
 280 0 l 1,2,-1
 193 0 l 1,3,-1
 193 462 l 1,4,-1
 20 462 l 1,5,-1
 20 536 l 1,6,-1
 455 536 l 1,7,-1
 455 462 l 1,0,-1
EndSplineSet
EndChar

StartChar: paragraph
Encoding: 182 182 119
Width: 596
Flags: W
AnchorPoint: "Anchor-1" 298 536 basechar 0
AnchorPoint: "Anchor-0" 298 0 basechar 0
LayerCount: 2
Fore
SplineSet
515 191 m 2,0,1
 515 135 515 135 491.5 90 c 128,-1,2
 468 45 468 45 419.5 19 c 128,-1,3
 371 -7 371 -7 296 -7 c 0,4,5
 190 -7 190 -7 135.5 47.5 c 128,-1,6
 81 102 81 102 81 193 c 2,7,-1
 81 536 l 1,8,-1
 170 536 l 1,9,-1
 170 191 l 2,10,11
 170 130 170 130 202 97 c 128,-1,12
 234 64 234 64 299 64 c 0,13,14
 367 64 367 64 397 100 c 128,-1,15
 427 136 427 136 427 191 c 2,16,-1
 427 536 l 1,17,-1
 515 536 l 1,18,-1
 515 191 l 2,0,1
EndSplineSet
EndChar

StartChar: periodcentered
Encoding: 183 183 120
Width: 479
Flags: W
AnchorPoint: "Anchor-1" 240 536 basechar 0
AnchorPoint: "Anchor-0" 240 0 basechar 0
LayerCount: 2
Fore
SplineSet
191 0 m 1,0,-1
 0 536 l 1,1,-1
 89 536 l 1,2,-1
 196 220 l 2,3,4
 204 198 204 198 212 171 c 128,-1,5
 220 144 220 144 227 119.5 c 128,-1,6
 234 95 234 95 236 78 c 1,7,-1
 240 78 l 1,8,9
 244 95 244 95 251 120 c 128,-1,10
 258 145 258 145 267 172 c 128,-1,11
 276 199 276 199 283 220 c 2,12,-1
 390 536 l 1,13,-1
 479 536 l 1,14,-1
 286 0 l 1,15,-1
 191 0 l 1,0,-1
EndSplineSet
EndChar

StartChar: cedilla
Encoding: 184 184 121
Width: 712
Flags: W
AnchorPoint: "Anchor-1" 356 536 basechar 0
AnchorPoint: "Anchor-0" 356 0 basechar 0
LayerCount: 2
Fore
SplineSet
143 0 m 1,0,-1
 10 536 l 1,1,-1
 92 536 l 1,2,-1
 159 250 l 2,3,4
 170 207 170 207 179 163 c 128,-1,5
 188 119 188 119 191 90 c 1,6,-1
 195 90 l 1,7,8
 198 107 198 107 203.5 132 c 128,-1,9
 209 157 209 157 215 184.5 c 128,-1,10
 221 212 221 212 227 234 c 2,11,-1
 313 536 l 1,12,-1
 400 536 l 1,13,-1
 484 234 l 2,14,15
 493 200 493 200 503 160 c 128,-1,16
 513 120 513 120 516 91 c 1,17,-1
 520 91 l 1,18,19
 523 116 523 116 532.5 160 c 128,-1,20
 542 204 542 204 553 250 c 2,21,-1
 621 536 l 1,22,-1
 702 536 l 1,23,-1
 567 0 l 1,24,-1
 474 0 l 1,25,-1
 390 302 l 2,26,27
 383 330 383 330 376 359 c 128,-1,28
 369 388 369 388 364 411 c 128,-1,29
 359 434 359 434 357 444 c 1,30,-1
 353 444 l 1,31,32
 352 434 352 434 347 410.5 c 128,-1,33
 342 387 342 387 335.5 358 c 128,-1,34
 329 329 329 329 321 301 c 2,35,-1
 234 0 l 1,36,-1
 143 0 l 1,0,-1
EndSplineSet
EndChar

StartChar: uni00B9
Encoding: 185 185 122
Width: 572
Flags: W
LayerCount: 2
Fore
SplineSet
456 574 m 1,0,-1
 506 523 l 1,1,-1
 336 353 l 1,2,-1
 505 183 l 1,3,-1
 455 132 l 1,4,-1
 284 301 l 1,5,-1
 117 132 l 1,6,-1
 65 183 l 1,7,-1
 234 353 l 1,8,-1
 64 522 l 1,9,-1
 116 574 l 1,10,-1
 285 403 l 1,11,-1
 456 574 l 1,0,-1
EndSplineSet
EndChar

StartChar: ordmasculine
Encoding: 186 186 123
Width: 474
GlyphClass: 2
Flags: W
AnchorPoint: "Anchor-1" 237 536 basechar 0
AnchorPoint: "Anchor-0" 237 0 basechar 0
LayerCount: 2
Fore
SplineSet
474 536 m 1,0,-1
 282 221 l 1,1,-1
 282 0 l 1,2,-1
 194 0 l 1,3,-1
 194 221 l 1,4,-1
 0 536 l 1,5,-1
 100 536 l 1,6,-1
 238 294 l 1,7,-1
 375 536 l 1,8,-1
 474 536 l 1,0,-1
EndSplineSet
EndChar

StartChar: guillemotright
Encoding: 187 187 124
Width: 470
Flags: W
AnchorPoint: "Anchor-1" 235 536 basechar 0
AnchorPoint: "Anchor-0" 235 0 basechar 0
LayerCount: 2
Fore
SplineSet
424 536 m 1,0,-1
 424 470 l 1,1,-1
 313 313 l 1,2,-1
 414 313 l 1,3,-1
 414 243 l 1,4,-1
 263 243 l 1,5,-1
 140 68 l 1,6,-1
 431 68 l 1,7,-1
 431 0 l 1,8,-1
 39 0 l 1,9,-1
 39 58 l 1,10,-1
 169 243 l 1,11,-1
 57 243 l 1,12,-1
 57 313 l 1,13,-1
 218 313 l 1,14,-1
 327 468 l 1,15,-1
 56 468 l 1,16,-1
 56 536 l 1,17,-1
 424 536 l 1,0,-1
EndSplineSet
EndChar

StartChar: onehalf
Encoding: 189 189 125
Width: 639
Flags: W
AnchorPoint: "Anchor-2" 519 714 basechar 0
AnchorPoint: "Anchor-1" 318 714 basechar 0
AnchorPoint: "Anchor-0" 324 0 basechar 0
LayerCount: 2
Fore
SplineSet
545 0 m 1,0,-1
 459 221 l 1,1,-1
 176 221 l 1,2,-1
 91 0 l 1,3,-1
 0 0 l 1,4,-1
 279 717 l 1,5,-1
 360 717 l 1,6,-1
 638 0 l 1,7,-1
 545 0 l 1,0,-1
352 517 m 2,8,9
 349 525 349 525 342 546 c 128,-1,10
 335 567 335 567 328.5 589.5 c 128,-1,11
 322 612 322 612 318 624 c 1,12,13
 311 593 311 593 302 563.5 c 128,-1,14
 293 534 293 534 287 517 c 2,15,-1
 206 301 l 1,16,-1
 432 301 l 1,17,-1
 352 517 l 2,8,9
EndSplineSet
EndChar

StartChar: threequarters
Encoding: 190 190 126
Width: 650
Flags: W
AnchorPoint: "Anchor-2" 630 714 basechar 0
AnchorPoint: "Anchor-1" 322 714 basechar 0
AnchorPoint: "Anchor-0" 315 0 basechar 0
LayerCount: 2
Fore
SplineSet
301 714 m 2,0,1
 435 714 435 714 503.5 674.5 c 128,-1,2
 572 635 572 635 572 537 c 0,3,4
 572 474 572 474 537 432.5 c 128,-1,5
 502 391 502 391 436 379 c 1,6,-1
 436 374 l 1,7,8
 481 367 481 367 517.5 348 c 128,-1,9
 554 329 554 329 575 294 c 128,-1,10
 596 259 596 259 596 203 c 0,11,12
 596 106 596 106 529.5 53 c 128,-1,13
 463 0 463 0 348 0 c 2,14,-1
 97 0 l 1,15,-1
 97 714 l 1,16,-1
 301 714 l 2,0,1
319 410 m 2,17,18
 411 410 411 410 445 439.5 c 128,-1,19
 479 469 479 469 479 527 c 0,20,21
 479 586 479 586 437.5 611.5 c 128,-1,22
 396 637 396 637 305 637 c 2,23,-1
 187 637 l 1,24,-1
 187 410 l 1,25,-1
 319 410 l 2,17,18
187 335 m 1,26,-1
 187 76 l 1,27,-1
 331 76 l 2,28,29
 426 76 426 76 463 113 c 128,-1,30
 500 150 500 150 500 210 c 0,31,32
 500 266 500 266 461.5 300.5 c 128,-1,33
 423 335 423 335 324 335 c 2,34,-1
 187 335 l 1,26,-1
EndSplineSet
EndChar

StartChar: questiondown
Encoding: 191 191 127
Width: 632
Flags: W
AnchorPoint: "Anchor-2" 612 714 basechar 0
AnchorPoint: "Anchor-1" 380 714 basechar 0
AnchorPoint: "Anchor-0" 372 0 basechar 0
LayerCount: 2
Fore
SplineSet
403 645 m 0,0,1
 288 645 288 645 222 568 c 128,-1,2
 156 491 156 491 156 357 c 0,3,4
 156 224 156 224 217.5 146.5 c 128,-1,5
 279 69 279 69 402 69 c 0,6,7
 449 69 449 69 491 77 c 128,-1,8
 533 85 533 85 573 97 c 1,9,-1
 573 19 l 1,10,11
 533 4 533 4 490.5 -3 c 128,-1,12
 448 -10 448 -10 389 -10 c 0,13,14
 280 -10 280 -10 207 35 c 128,-1,15
 134 80 134 80 97.5 163 c 128,-1,16
 61 246 61 246 61 358 c 0,17,18
 61 466 61 466 100.5 548.5 c 128,-1,19
 140 631 140 631 217 677.5 c 128,-1,20
 294 724 294 724 404 724 c 0,21,22
 517 724 517 724 601 682 c 1,23,-1
 565 606 l 1,24,25
 532 621 532 621 491.5 633 c 128,-1,26
 451 645 451 645 403 645 c 0,0,1
EndSplineSet
Substitution2: "'smcp' Lowercase to Small Capitals lookup 37 subtable" questiondown.sc
Substitution2: "'c2sc' Capitals to Small Capitals lookup 36 subtable" questiondown.sc
Substitution2: "'aalt' Access All Alternates lookup 0 subtable" questiondown.sc
EndChar

StartChar: Agrave
Encoding: 192 192 128
Width: 730
GlyphClass: 2
Flags: W
AnchorPoint: "Anchor-3" 365 357 basechar 0
AnchorPoint: "Anchor-2" 710 714 basechar 0
AnchorPoint: "Anchor-1" 361 714 basechar 0
AnchorPoint: "Anchor-0" 342 0 basechar 0
LayerCount: 2
Fore
SplineSet
669 364 m 0,0,1
 669 183 669 183 570.5 91.5 c 128,-1,2
 472 0 472 0 296 0 c 2,3,-1
 97 0 l 1,4,-1
 97 714 l 1,5,-1
 317 714 l 2,6,7
 425 714 425 714 504 674 c 128,-1,8
 583 634 583 634 626 556.5 c 128,-1,9
 669 479 669 479 669 364 c 0,0,1
574 361 m 0,10,11
 574 504 574 504 503.5 570.5 c 128,-1,12
 433 637 433 637 304 637 c 2,13,-1
 187 637 l 1,14,-1
 187 77 l 1,15,-1
 284 77 l 2,16,17
 574 77 574 77 574 361 c 0,10,11
EndSplineSet
Substitution2: "'c2sc' Capitals to Small Capitals lookup 36 subtable" agrave.sc
Substitution2: "'aalt' Access All Alternates lookup 0 subtable" agrave.sc
EndChar

StartChar: Aacute
Encoding: 193 193 129
Width: 556
GlyphClass: 2
Flags: W
AnchorPoint: "Anchor-2" 536 714 basechar 0
AnchorPoint: "Anchor-1" 305 714 basechar 0
AnchorPoint: "Anchor-0" 300 0 basechar 0
LayerCount: 2
Fore
SplineSet
496 0 m 1,0,-1
 97 0 l 1,1,-1
 97 714 l 1,2,-1
 496 714 l 1,3,-1
 496 635 l 1,4,-1
 187 635 l 1,5,-1
 187 412 l 1,6,-1
 478 412 l 1,7,-1
 478 334 l 1,8,-1
 187 334 l 1,9,-1
 187 79 l 1,10,-1
 496 79 l 1,11,-1
 496 0 l 1,0,-1
EndSplineSet
Substitution2: "'c2sc' Capitals to Small Capitals lookup 36 subtable" aacute.sc
Substitution2: "'aalt' Access All Alternates lookup 0 subtable" aacute.sc
EndChar

StartChar: Acircumflex
Encoding: 194 194 130
Width: 519
GlyphClass: 2
Flags: W
AnchorPoint: "Anchor-2" 499 714 basechar 0
AnchorPoint: "Anchor-1" 298 714 basechar 0
AnchorPoint: "Anchor-0" 260 0 basechar 0
LayerCount: 2
Fore
SplineSet
187 0 m 1,0,-1
 97 0 l 1,1,-1
 97 714 l 1,2,-1
 496 714 l 1,3,-1
 496 635 l 1,4,-1
 187 635 l 1,5,-1
 187 382 l 1,6,-1
 477 382 l 1,7,-1
 477 303 l 1,8,-1
 187 303 l 1,9,-1
 187 0 l 1,0,-1
EndSplineSet
Substitution2: "'c2sc' Capitals to Small Capitals lookup 36 subtable" acircumflex.sc
Substitution2: "'aalt' Access All Alternates lookup 0 subtable" acircumflex.sc
EndChar

StartChar: Atilde
Encoding: 195 195 131
Width: 728
GlyphClass: 2
Flags: W
AnchorPoint: "Anchor-2" 708 714 basechar 0
AnchorPoint: "Anchor-1" 405 714 basechar 0
AnchorPoint: "Anchor-0" 402 0 basechar 0
LayerCount: 2
Fore
SplineSet
407 377 m 1,0,-1
 654 377 l 1,1,-1
 654 27 l 1,2,3
 596 8 596 8 537 -1 c 128,-1,4
 478 -10 478 -10 403 -10 c 0,5,6
 292 -10 292 -10 216 34.5 c 128,-1,7
 140 79 140 79 100.5 161.5 c 128,-1,8
 61 244 61 244 61 357 c 0,9,10
 61 469 61 469 105 551 c 128,-1,11
 149 633 149 633 231.5 678.5 c 128,-1,12
 314 724 314 724 431 724 c 0,13,14
 491 724 491 724 544.5 713 c 128,-1,15
 598 702 598 702 644 682 c 1,16,-1
 610 604 l 1,17,18
 572 621 572 621 524.5 633 c 128,-1,19
 477 645 477 645 426 645 c 0,20,21
 298 645 298 645 226.5 568 c 128,-1,22
 155 491 155 491 155 357 c 0,23,24
 155 272 155 272 182.5 206.5 c 128,-1,25
 210 141 210 141 269 104.5 c 128,-1,26
 328 68 328 68 424 68 c 0,27,28
 471 68 471 68 504 73 c 128,-1,29
 537 78 537 78 564 85 c 1,30,-1
 564 297 l 1,31,-1
 407 297 l 1,32,-1
 407 377 l 1,0,-1
EndSplineSet
Substitution2: "'c2sc' Capitals to Small Capitals lookup 36 subtable" atilde.sc
Substitution2: "'aalt' Access All Alternates lookup 0 subtable" atilde.sc
EndChar

StartChar: Adieresis
Encoding: 196 196 132
Width: 741
GlyphClass: 2
Flags: W
AnchorPoint: "Anchor-3" 371 357 basechar 0
AnchorPoint: "Anchor-2" 721 714 basechar 0
AnchorPoint: "Anchor-1" 371 714 basechar 0
AnchorPoint: "Anchor-0" 368 0 basechar 0
LayerCount: 2
Fore
SplineSet
643 0 m 1,0,-1
 553 0 l 1,1,-1
 553 333 l 1,2,-1
 187 333 l 1,3,-1
 187 0 l 1,4,-1
 97 0 l 1,5,-1
 97 714 l 1,6,-1
 187 714 l 1,7,-1
 187 412 l 1,8,-1
 553 412 l 1,9,-1
 553 714 l 1,10,-1
 643 714 l 1,11,-1
 643 0 l 1,0,-1
EndSplineSet
Substitution2: "'c2sc' Capitals to Small Capitals lookup 36 subtable" adieresis.sc
Substitution2: "'aalt' Access All Alternates lookup 0 subtable" adieresis.sc
EndChar

StartChar: Aring
Encoding: 197 197 133
Width: 339
GlyphClass: 2
Flags: W
AnchorPoint: "Anchor-2" 319 714 basechar 0
AnchorPoint: "Anchor-1" 170 714 basechar 0
AnchorPoint: "Anchor-0" 170 0 basechar 0
LayerCount: 2
Fore
SplineSet
298 0 m 1,0,-1
 40 0 l 1,1,-1
 40 52 l 1,2,-1
 124 71 l 1,3,-1
 124 642 l 1,4,-1
 40 662 l 1,5,-1
 40 714 l 1,6,-1
 298 714 l 1,7,-1
 298 662 l 1,8,-1
 214 642 l 1,9,-1
 214 71 l 1,10,-1
 298 52 l 1,11,-1
 298 0 l 1,0,-1
EndSplineSet
Substitution2: "'c2sc' Capitals to Small Capitals lookup 36 subtable" aring.sc
Substitution2: "'aalt' Access All Alternates lookup 0 subtable" aring.sc
EndChar

StartChar: AE
Encoding: 198 198 134
Width: 273
GlyphClass: 2
Flags: W
AnchorPoint: "Anchor-2" 253 714 basechar 0
AnchorPoint: "Anchor-1" 137 714 basechar 0
AnchorPoint: "Anchor-0" -4 -170 basechar 0
LayerCount: 2
Fore
SplineSet
-4 -190 m 0,0,1
 -28 -190 -28 -190 -46 -186.5 c 128,-1,2
 -64 -183 -64 -183 -78 -177 c 1,3,-1
 -78 -101 l 1,4,5
 -62 -105 -62 -105 -44 -108 c 128,-1,6
 -26 -111 -26 -111 -6 -111 c 0,7,8
 19 -111 19 -111 41.5 -101 c 128,-1,9
 64 -91 64 -91 78 -66 c 128,-1,10
 92 -41 92 -41 92 4 c 2,11,-1
 92 714 l 1,12,-1
 182 714 l 1,13,-1
 182 11 l 2,14,15
 182 -92 182 -92 131 -141 c 128,-1,16
 80 -190 80 -190 -4 -190 c 0,0,1
EndSplineSet
Substitution2: "'c2sc' Capitals to Small Capitals lookup 36 subtable" ae.sc
Substitution2: "'aalt' Access All Alternates lookup 0 subtable" ae.sc
EndChar

StartChar: Ccedilla
Encoding: 199 199 135
Width: 619
GlyphClass: 2
Flags: W
AnchorPoint: "Anchor-2" 599 714 basechar 0
AnchorPoint: "Anchor-1" 340 714 basechar 0
AnchorPoint: "Anchor-0" 330 0 basechar 0
LayerCount: 2
Fore
SplineSet
619 0 m 1,0,-1
 513 0 l 1,1,-1
 260 341 l 1,2,-1
 187 277 l 1,3,-1
 187 0 l 1,4,-1
 97 0 l 1,5,-1
 97 714 l 1,6,-1
 187 714 l 1,7,-1
 187 362 l 1,8,9
 217 396 217 396 248 430 c 128,-1,10
 279 464 279 464 310 498 c 2,11,-1
 503 714 l 1,12,-1
 608 714 l 1,13,-1
 325 403 l 1,14,-1
 619 0 l 1,0,-1
EndSplineSet
Substitution2: "'c2sc' Capitals to Small Capitals lookup 36 subtable" ccedilla.sc
Substitution2: "'aalt' Access All Alternates lookup 0 subtable" ccedilla.sc
EndChar

StartChar: Egrave
Encoding: 200 200 136
Width: 524
GlyphClass: 2
Flags: W
AnchorPoint: "Anchor-3" 262 357 basechar 0
AnchorPoint: "Anchor-2" 364 714 basechar 0
AnchorPoint: "Anchor-1" 140 714 basechar 0
AnchorPoint: "Anchor-0" 300 0 basechar 0
LayerCount: 2
Fore
SplineSet
97 0 m 1,0,-1
 97 714 l 1,1,-1
 187 714 l 1,2,-1
 187 80 l 1,3,-1
 499 80 l 1,4,-1
 499 0 l 1,5,-1
 97 0 l 1,0,-1
EndSplineSet
Substitution2: "'c2sc' Capitals to Small Capitals lookup 36 subtable" egrave.sc
Substitution2: "'aalt' Access All Alternates lookup 0 subtable" egrave.sc
EndChar

StartChar: Eacute
Encoding: 201 201 137
Width: 907
GlyphClass: 2
Flags: W
AnchorPoint: "Anchor-2" 887 714 basechar 0
AnchorPoint: "Anchor-1" 454 714 basechar 0
AnchorPoint: "Anchor-0" 448 0 basechar 0
LayerCount: 2
Fore
SplineSet
412 0 m 1,0,-1
 177 626 l 1,1,-1
 173 626 l 1,2,3
 176 595 176 595 178 542.5 c 128,-1,4
 180 490 180 490 180 433 c 2,5,-1
 180 0 l 1,6,-1
 97 0 l 1,7,-1
 97 714 l 1,8,-1
 230 714 l 1,9,-1
 450 129 l 1,10,-1
 454 129 l 1,11,-1
 678 714 l 1,12,-1
 810 714 l 1,13,-1
 810 0 l 1,14,-1
 721 0 l 1,15,-1
 721 439 l 2,16,17
 721 491 721 491 723.5 542 c 128,-1,18
 726 593 726 593 728 625 c 1,19,-1
 724 625 l 1,20,-1
 486 0 l 1,21,-1
 412 0 l 1,0,-1
EndSplineSet
Substitution2: "'c2sc' Capitals to Small Capitals lookup 36 subtable" eacute.sc
Substitution2: "'aalt' Access All Alternates lookup 0 subtable" eacute.sc
EndChar

StartChar: Ecircumflex
Encoding: 202 202 138
Width: 760
GlyphClass: 2
Flags: W
AnchorPoint: "Anchor-2" 740 714 basechar 0
AnchorPoint: "Anchor-1" 380 714 basechar 0
AnchorPoint: "Anchor-0" 380 0 basechar 0
LayerCount: 2
Fore
SplineSet
663 0 m 1,0,-1
 558 0 l 1,1,-1
 176 593 l 1,2,-1
 172 593 l 1,3,4
 174 558 174 558 177 506 c 128,-1,5
 180 454 180 454 180 399 c 2,6,-1
 180 0 l 1,7,-1
 97 0 l 1,8,-1
 97 714 l 1,9,-1
 201 714 l 1,10,-1
 582 123 l 1,11,-1
 586 123 l 1,12,13
 585 139 585 139 583.5 171 c 128,-1,14
 582 203 582 203 580.5 241 c 128,-1,15
 579 279 579 279 579 311 c 2,16,-1
 579 714 l 1,17,-1
 663 714 l 1,18,-1
 663 0 l 1,0,-1
EndSplineSet
Substitution2: "'c2sc' Capitals to Small Capitals lookup 36 subtable" ecircumflex.sc
Substitution2: "'aalt' Access All Alternates lookup 0 subtable" ecircumflex.sc
EndChar

StartChar: Edieresis
Encoding: 203 203 139
Width: 781
GlyphClass: 2
Flags: W
AnchorPoint: "Anchor-3" 391 357 basechar 0
AnchorPoint: "Anchor-2" 761 714 basechar 0
AnchorPoint: "Anchor-1" 391 714 basechar 0
AnchorPoint: "Anchor-0" 392 0 basechar 0
LayerCount: 2
Fore
SplineSet
720 358 m 256,0,1
 720 247 720 247 682.5 164.5 c 128,-1,2
 645 82 645 82 572 36 c 128,-1,3
 499 -10 499 -10 391 -10 c 0,4,5
 280 -10 280 -10 206.5 36 c 128,-1,6
 133 82 133 82 97 165 c 128,-1,7
 61 248 61 248 61 359 c 0,8,9
 61 469 61 469 97 551 c 128,-1,10
 133 633 133 633 206.5 679 c 128,-1,11
 280 725 280 725 392 725 c 0,12,13
 499 725 499 725 572 679.5 c 128,-1,14
 645 634 645 634 682.5 551.5 c 128,-1,15
 720 469 720 469 720 358 c 256,0,1
156 358 m 256,16,17
 156 223 156 223 213 145.5 c 128,-1,18
 270 68 270 68 391 68 c 0,19,20
 513 68 513 68 569 145.5 c 128,-1,21
 625 223 625 223 625 358 c 256,22,23
 625 493 625 493 569 569.5 c 128,-1,24
 513 646 513 646 392 646 c 256,25,26
 271 646 271 646 213.5 569.5 c 128,-1,27
 156 493 156 493 156 358 c 256,16,17
EndSplineSet
Substitution2: "'c2sc' Capitals to Small Capitals lookup 36 subtable" edieresis.sc
Substitution2: "'aalt' Access All Alternates lookup 0 subtable" edieresis.sc
EndChar

StartChar: Igrave
Encoding: 204 204 140
Width: 605
GlyphClass: 2
Flags: W
AnchorPoint: "Anchor-2" 585 714 basechar 0
AnchorPoint: "Anchor-1" 317 714 basechar 0
AnchorPoint: "Anchor-0" 303 0 basechar 0
LayerCount: 2
Fore
SplineSet
286 714 m 2,0,1
 426 714 426 714 490 659 c 128,-1,2
 554 604 554 604 554 504 c 0,3,4
 554 445 554 445 527.5 393.5 c 128,-1,5
 501 342 501 342 438.5 310 c 128,-1,6
 376 278 376 278 269 278 c 2,7,-1
 187 278 l 1,8,-1
 187 0 l 1,9,-1
 97 0 l 1,10,-1
 97 714 l 1,11,-1
 286 714 l 2,0,1
278 637 m 2,12,-1
 187 637 l 1,13,-1
 187 355 l 1,14,-1
 259 355 l 2,15,16
 361 355 361 355 411 388 c 128,-1,17
 461 421 461 421 461 500 c 0,18,19
 461 569 461 569 417 603 c 128,-1,20
 373 637 373 637 278 637 c 2,12,-1
EndSplineSet
Substitution2: "'ss04' Style Set 4 lookup 43 subtable" Igrave.salt
Substitution2: "'c2sc' Capitals to Small Capitals lookup 36 subtable" igrave.sc
AlternateSubs2: "'aalt' Access All Alternates lookup 1 subtable" Igrave.salt igrave.sc
EndChar

StartChar: Iacute
Encoding: 205 205 141
Width: 781
GlyphClass: 2
Flags: W
AnchorPoint: "Anchor-2" 761 714 basechar 0
AnchorPoint: "Anchor-1" 391 714 basechar 0
AnchorPoint: "Anchor-0" 391 -170 basechar 0
LayerCount: 2
Fore
SplineSet
720 358 m 0,0,1
 720 227 720 227 667.5 135 c 128,-1,2
 615 43 615 43 512 8 c 1,3,-1
 683 -170 l 1,4,-1
 554 -170 l 1,5,-1
 416 -9 l 1,6,7
 410 -9 410 -9 403.5 -9.5 c 128,-1,8
 397 -10 397 -10 391 -10 c 0,9,10
 280 -10 280 -10 206.5 36 c 128,-1,11
 133 82 133 82 97 165 c 128,-1,12
 61 248 61 248 61 359 c 0,13,14
 61 469 61 469 97 551 c 128,-1,15
 133 633 133 633 206.5 679 c 128,-1,16
 280 725 280 725 392 725 c 0,17,18
 499 725 499 725 572 679.5 c 128,-1,19
 645 634 645 634 682.5 551.5 c 128,-1,20
 720 469 720 469 720 358 c 0,0,1
156 358 m 256,21,22
 156 223 156 223 213 145.5 c 128,-1,23
 270 68 270 68 391 68 c 0,24,25
 513 68 513 68 569 145.5 c 128,-1,26
 625 223 625 223 625 358 c 256,27,28
 625 493 625 493 569 569.5 c 128,-1,29
 513 646 513 646 392 646 c 256,30,31
 271 646 271 646 213.5 569.5 c 128,-1,32
 156 493 156 493 156 358 c 256,21,22
EndSplineSet
Substitution2: "'ss04' Style Set 4 lookup 43 subtable" Iacute.salt
Substitution2: "'c2sc' Capitals to Small Capitals lookup 36 subtable" iacute.sc
AlternateSubs2: "'aalt' Access All Alternates lookup 1 subtable" Iacute.salt iacute.sc
EndChar

StartChar: Icircumflex
Encoding: 206 206 142
Width: 622
GlyphClass: 2
Flags: W
AnchorPoint: "Anchor-2" 602 714 basechar 0
AnchorPoint: "Anchor-1" 311 714 basechar 0
AnchorPoint: "Anchor-0" 328 0 basechar 0
LayerCount: 2
Fore
SplineSet
294 714 m 2,0,1
 427 714 427 714 490.5 663.5 c 128,-1,2
 554 613 554 613 554 511 c 0,3,4
 554 454 554 454 533 416 c 128,-1,5
 512 378 512 378 479.5 355.5 c 128,-1,6
 447 333 447 333 411 320 c 1,7,-1
 607 0 l 1,8,-1
 502 0 l 1,9,-1
 329 295 l 1,10,-1
 187 295 l 1,11,-1
 187 0 l 1,12,-1
 97 0 l 1,13,-1
 97 714 l 1,14,-1
 294 714 l 2,0,1
289 636 m 2,15,-1
 187 636 l 1,16,-1
 187 371 l 1,17,-1
 294 371 l 2,18,19
 381 371 381 371 421 405.5 c 128,-1,20
 461 440 461 440 461 507 c 0,21,22
 461 577 461 577 419 606.5 c 128,-1,23
 377 636 377 636 289 636 c 2,15,-1
EndSplineSet
Substitution2: "'ss04' Style Set 4 lookup 43 subtable" Icircumflex.salt
Substitution2: "'c2sc' Capitals to Small Capitals lookup 36 subtable" icircumflex.sc
AlternateSubs2: "'aalt' Access All Alternates lookup 1 subtable" Icircumflex.salt icircumflex.sc
EndChar

StartChar: Idieresis
Encoding: 207 207 143
Width: 549
GlyphClass: 2
Flags: W
AnchorPoint: "Anchor-2" 529 714 basechar 0
AnchorPoint: "Anchor-1" 285 714 basechar 0
AnchorPoint: "Anchor-0" 257 0 basechar 0
LayerCount: 2
Fore
SplineSet
502 191 m 0,0,1
 502 96 502 96 433 43 c 128,-1,2
 364 -10 364 -10 247 -10 c 0,3,4
 187 -10 187 -10 136 -1 c 128,-1,5
 85 8 85 8 51 24 c 1,6,-1
 51 110 l 1,7,8
 87 94 87 94 140.5 81 c 128,-1,9
 194 68 194 68 251 68 c 0,10,11
 331 68 331 68 371.5 99 c 128,-1,12
 412 130 412 130 412 183 c 0,13,14
 412 218 412 218 397 242 c 128,-1,15
 382 266 382 266 345.5 286.5 c 128,-1,16
 309 307 309 307 244 330 c 0,17,18
 153 363 153 363 106.5 411 c 128,-1,19
 60 459 60 459 60 542 c 0,20,21
 60 599 60 599 89 639.5 c 128,-1,22
 118 680 118 680 169.5 702 c 128,-1,23
 221 724 221 724 288 724 c 0,24,25
 347 724 347 724 396 713 c 128,-1,26
 445 702 445 702 485 684 c 1,27,-1
 457 607 l 1,28,29
 420 623 420 623 376.5 634 c 128,-1,30
 333 645 333 645 286 645 c 0,31,32
 219 645 219 645 185 616.5 c 128,-1,33
 151 588 151 588 151 541 c 0,34,35
 151 505 151 505 166 481 c 128,-1,36
 181 457 181 457 215 438 c 128,-1,37
 249 419 249 419 307 397 c 0,38,39
 370 374 370 374 413.5 347.5 c 128,-1,40
 457 321 457 321 479.5 284 c 128,-1,41
 502 247 502 247 502 191 c 0,0,1
EndSplineSet
Substitution2: "'ss04' Style Set 4 lookup 43 subtable" Idieresis.salt
Substitution2: "'c2sc' Capitals to Small Capitals lookup 36 subtable" idieresis.sc
AlternateSubs2: "'aalt' Access All Alternates lookup 1 subtable" Idieresis.salt idieresis.sc
EndChar

StartChar: Eth
Encoding: 208 208 144
Width: 556
GlyphClass: 2
Flags: W
AnchorPoint: "Anchor-3" 278 357 basechar 0
AnchorPoint: "Anchor-2" 536 714 basechar 0
AnchorPoint: "Anchor-1" 278 714 basechar 0
AnchorPoint: "Anchor-0" 278 0 basechar 0
LayerCount: 2
Fore
SplineSet
323 0 m 1,0,-1
 233 0 l 1,1,-1
 233 635 l 1,2,-1
 10 635 l 1,3,-1
 10 714 l 1,4,-1
 545 714 l 1,5,-1
 545 635 l 1,6,-1
 323 635 l 1,7,-1
 323 0 l 1,0,-1
EndSplineSet
Substitution2: "'c2sc' Capitals to Small Capitals lookup 36 subtable" eth.sc
Substitution2: "'aalt' Access All Alternates lookup 0 subtable" eth.sc
EndChar

StartChar: Ntilde
Encoding: 209 209 145
Width: 731
GlyphClass: 2
Flags: W
AnchorPoint: "Anchor-2" 711 714 basechar 0
AnchorPoint: "Anchor-1" 366 714 basechar 0
AnchorPoint: "Anchor-0" 364 0 basechar 0
LayerCount: 2
Fore
SplineSet
640 252 m 2,0,1
 640 178 640 178 610 118.5 c 128,-1,2
 580 59 580 59 518.5 24.5 c 128,-1,3
 457 -10 457 -10 362 -10 c 0,4,5
 229 -10 229 -10 159.5 62.5 c 128,-1,6
 90 135 90 135 90 254 c 2,7,-1
 90 714 l 1,8,-1
 180 714 l 1,9,-1
 180 251 l 2,10,11
 180 164 180 164 226.5 116 c 128,-1,12
 273 68 273 68 367 68 c 0,13,14
 464 68 464 68 507.5 119.5 c 128,-1,15
 551 171 551 171 551 252 c 2,16,-1
 551 714 l 1,17,-1
 640 714 l 1,18,-1
 640 252 l 2,0,1
EndSplineSet
Substitution2: "'c2sc' Capitals to Small Capitals lookup 36 subtable" ntilde.sc
Substitution2: "'aalt' Access All Alternates lookup 0 subtable" ntilde.sc
EndChar

StartChar: Ograve
Encoding: 210 210 146
Width: 600
GlyphClass: 2
Flags: W
AnchorPoint: "Anchor-2" 580 714 basechar 0
AnchorPoint: "Anchor-1" 303 714 basechar 0
AnchorPoint: "Anchor-0" 299 0 basechar 0
LayerCount: 2
Fore
SplineSet
600 714 m 1,0,-1
 345 0 l 1,1,-1
 255 0 l 1,2,-1
 0 714 l 1,3,-1
 94 714 l 1,4,-1
 255 256 l 2,5,6
 271 212 271 212 282 173.5 c 128,-1,7
 293 135 293 135 300 100 c 1,8,9
 307 135 307 135 318 174 c 128,-1,10
 329 213 329 213 345 258 c 2,11,-1
 505 714 l 1,12,-1
 600 714 l 1,0,-1
EndSplineSet
Substitution2: "'c2sc' Capitals to Small Capitals lookup 36 subtable" ograve.sc
Substitution2: "'aalt' Access All Alternates lookup 0 subtable" ograve.sc
EndChar

StartChar: Oacute
Encoding: 211 211 147
Width: 930
GlyphClass: 2
Flags: W
AnchorPoint: "Anchor-2" 910 714 basechar 0
AnchorPoint: "Anchor-1" 465 714 basechar 0
AnchorPoint: "Anchor-0" 458 0 basechar 0
LayerCount: 2
Fore
SplineSet
917 714 m 1,0,-1
 727 0 l 1,1,-1
 636 0 l 1,2,-1
 497 468 l 2,3,4
 489 497 489 497 481 526 c 128,-1,5
 473 555 473 555 468 577.5 c 128,-1,6
 463 600 463 600 461 609 c 1,7,8
 460 596 460 596 450.5 553.5 c 128,-1,9
 441 511 441 511 427 465 c 2,10,-1
 292 0 l 1,11,-1
 201 0 l 1,12,-1
 12 714 l 1,13,-1
 106 714 l 1,14,-1
 217 278 l 2,15,16
 229 232 229 232 237.5 189 c 128,-1,17
 246 146 246 146 251 108 c 1,18,19
 256 147 256 147 266 193 c 128,-1,20
 276 239 276 239 289 283 c 2,21,-1
 415 714 l 1,22,-1
 508 714 l 1,23,-1
 639 280 l 2,24,25
 653 234 653 234 663 188.5 c 128,-1,26
 673 143 673 143 678 108 c 1,27,28
 683 145 683 145 692 188.5 c 128,-1,29
 701 232 701 232 713 279 c 2,30,-1
 823 714 l 1,31,-1
 917 714 l 1,0,-1
EndSplineSet
Substitution2: "'c2sc' Capitals to Small Capitals lookup 36 subtable" oacute.sc
Substitution2: "'aalt' Access All Alternates lookup 0 subtable" oacute.sc
EndChar

StartChar: Ocircumflex
Encoding: 212 212 148
Width: 586
GlyphClass: 2
Flags: W
AnchorPoint: "Anchor-2" 566 714 basechar 0
AnchorPoint: "Anchor-1" 292 714 basechar 0
AnchorPoint: "Anchor-0" 293 0 basechar 0
LayerCount: 2
Fore
SplineSet
582 0 m 1,0,-1
 480 0 l 1,1,-1
 291 310 l 1,2,-1
 99 0 l 1,3,-1
 4 0 l 1,4,-1
 241 372 l 1,5,-1
 19 714 l 1,6,-1
 119 714 l 1,7,-1
 294 434 l 1,8,-1
 470 714 l 1,9,-1
 565 714 l 1,10,-1
 344 374 l 1,11,-1
 582 0 l 1,0,-1
EndSplineSet
Substitution2: "'c2sc' Capitals to Small Capitals lookup 36 subtable" ocircumflex.sc
Substitution2: "'aalt' Access All Alternates lookup 0 subtable" ocircumflex.sc
EndChar

StartChar: Otilde
Encoding: 213 213 149
Width: 566
GlyphClass: 2
Flags: W
AnchorPoint: "Anchor-2" 546 714 basechar 0
AnchorPoint: "Anchor-1" 283 714 basechar 0
AnchorPoint: "Anchor-0" 283 0 basechar 0
LayerCount: 2
Fore
SplineSet
283 363 m 1,0,-1
 469 714 l 1,1,-1
 566 714 l 1,2,-1
 328 277 l 1,3,-1
 328 0 l 1,4,-1
 238 0 l 1,5,-1
 238 273 l 1,6,-1
 0 714 l 1,7,-1
 98 714 l 1,8,-1
 283 363 l 1,0,-1
EndSplineSet
Substitution2: "'c2sc' Capitals to Small Capitals lookup 36 subtable" otilde.sc
Substitution2: "'aalt' Access All Alternates lookup 0 subtable" otilde.sc
EndChar

StartChar: Odieresis
Encoding: 214 214 150
Width: 572
GlyphClass: 2
Flags: W
AnchorPoint: "Anchor-2" 552 714 basechar 0
AnchorPoint: "Anchor-1" 290 714 basechar 0
AnchorPoint: "Anchor-0" 297 0 basechar 0
LayerCount: 2
Fore
SplineSet
533 0 m 1,0,-1
 38 0 l 1,1,-1
 38 68 l 1,2,-1
 414 634 l 1,3,-1
 50 634 l 1,4,-1
 50 714 l 1,5,-1
 523 714 l 1,6,-1
 523 646 l 1,7,-1
 147 80 l 1,8,-1
 533 80 l 1,9,-1
 533 0 l 1,0,-1
EndSplineSet
Substitution2: "'c2sc' Capitals to Small Capitals lookup 36 subtable" odieresis.sc
Substitution2: "'aalt' Access All Alternates lookup 0 subtable" odieresis.sc
EndChar

StartChar: Oslash
Encoding: 216 216 151
Width: 618
GlyphClass: 2
Flags: W
LayerCount: 2
Fore
SplineSet
280 606 m 4,0,1
 231 606 231 606 201 634 c 132,-1,2
 171 662 171 662 171 712 c 260,3,4
 171 762 171 762 201 789.5 c 132,-1,5
 231 817 231 817 280 817 c 4,6,7
 327 817 327 817 359 789.5 c 132,-1,8
 391 762 391 762 391 713 c 4,9,10
 391 662 391 662 359.5 634 c 132,-1,11
 328 606 328 606 280 606 c 4,0,1
280 656 m 4,12,13
 305 656 305 656 320.5 671 c 132,-1,14
 336 686 336 686 336 712 c 260,15,16
 336 738 336 738 320 753 c 132,-1,17
 304 768 304 768 280 768 c 260,18,19
 256 768 256 768 240 753 c 132,-1,20
 224 738 224 738 224 712 c 260,21,22
 224 686 224 686 238.5 671 c 132,-1,23
 253 656 253 656 280 656 c 4,12,13
343 546 m 0,24,25
 439 546 439 546 488 499.5 c 128,-1,26
 537 453 537 453 537 349 c 2,27,-1
 537 0 l 1,28,-1
 450 0 l 1,29,-1
 450 343 l 2,30,31
 450 408 450 408 421 440 c 128,-1,32
 392 472 392 472 330 472 c 0,33,34
 241 472 241 472 207 422 c 128,-1,35
 173 372 173 372 173 278 c 2,36,-1
 173 0 l 1,37,-1
 85 0 l 1,38,-1
 85 536 l 1,39,-1
 156 536 l 1,40,-1
 169 463 l 1,41,-1
 174 463 l 1,42,43
 192 491 192 491 218.5 509.5 c 128,-1,44
 245 528 245 528 277 537 c 128,-1,45
 309 546 309 546 343 546 c 0,24,25
EndSplineSet
Substitution2: "'c2sc' Capitals to Small Capitals lookup 36 subtable" oslash.sc
Substitution2: "'aalt' Access All Alternates lookup 0 subtable" oslash.sc
EndChar

StartChar: Ugrave
Encoding: 217 217 152
Width: 470
GlyphClass: 2
Flags: W
AnchorPoint: "Anchor-9" 242 0 basechar 0
AnchorPoint: "Anchor-8" 235 536 basechar 0
AnchorPoint: "Anchor-6" 430 536 basechar 0
LayerCount: 2
Fore
SplineSet
280 606 m 4,0,1
 231 606 231 606 201 634 c 132,-1,2
 171 662 171 662 171 712 c 260,3,4
 171 762 171 762 201 789.5 c 132,-1,5
 231 817 231 817 280 817 c 4,6,7
 327 817 327 817 359 789.5 c 132,-1,8
 391 762 391 762 391 713 c 4,9,10
 391 662 391 662 359.5 634 c 132,-1,11
 328 606 328 606 280 606 c 4,0,1
280 656 m 4,12,13
 305 656 305 656 320.5 671 c 132,-1,14
 336 686 336 686 336 712 c 260,15,16
 336 738 336 738 320 753 c 132,-1,17
 304 768 304 768 280 768 c 260,18,19
 256 768 256 768 240 753 c 132,-1,20
 224 738 224 738 224 712 c 260,21,22
 224 686 224 686 238.5 671 c 132,-1,23
 253 656 253 656 280 656 c 4,12,13
431 0 m 1,24,-1
 39 0 l 1,25,-1
 39 58 l 1,26,-1
 327 468 l 1,27,-1
 56 468 l 1,28,-1
 56 536 l 1,29,-1
 424 536 l 1,30,-1
 424 470 l 1,31,-1
 140 68 l 1,32,-1
 431 68 l 1,33,-1
 431 0 l 1,24,-1
EndSplineSet
Substitution2: "'c2sc' Capitals to Small Capitals lookup 36 subtable" ugrave.sc
Substitution2: "'aalt' Access All Alternates lookup 0 subtable" ugrave.sc
EndChar

StartChar: Uacute
Encoding: 218 218 153
Width: 534
GlyphClass: 2
Flags: W
AnchorPoint: "Anchor-9" 267 0 basechar 0
AnchorPoint: "Anchor-8" 129 535 basechar 0
AnchorPoint: "Anchor-6" 369 840 basechar 0
LayerCount: 2
Fore
SplineSet
272 578 m 4,0,1
 223 578 223 578 193 606 c 132,-1,2
 163 634 163 634 163 684 c 260,3,4
 163 734 163 734 193 761.5 c 132,-1,5
 223 789 223 789 272 789 c 4,6,7
 319 789 319 789 351 761.5 c 132,-1,8
 383 734 383 734 383 685 c 4,9,10
 383 634 383 634 351.5 606 c 132,-1,11
 320 578 320 578 272 578 c 4,0,1
272 628 m 4,12,13
 297 628 297 628 312.5 643 c 132,-1,14
 328 658 328 658 328 684 c 260,15,16
 328 710 328 710 312 725 c 132,-1,17
 296 740 296 740 272 740 c 260,18,19
 248 740 248 740 232 725 c 132,-1,20
 216 710 216 710 216 684 c 260,21,22
 216 658 216 658 230.5 643 c 132,-1,23
 245 628 245 628 272 628 c 4,12,13
172 363 m 2,24,25
 172 347 172 347 170.5 321 c 128,-1,26
 169 295 169 295 168 276 c 1,27,-1
 172 276 l 1,28,29
 178 284 178 284 190 299 c 128,-1,30
 202 314 202 314 214.5 329.5 c 0,31,32
 235 353 235 353 236 355 c 2,33,-1
 407 536 l 1,34,-1
 510 536 l 1,35,-1
 293 307 l 1,36,-1
 525 0 l 1,37,-1
 419 0 l 1,38,-1
 233 250 l 1,39,-1
 172 197 l 1,40,-1
 172 0 l 1,41,-1
 85 0 l 1,42,-1
 85 535 l 1,43,-1
 172 535 l 1,44,-1
 172 363 l 2,24,25
EndSplineSet
Substitution2: "'c2sc' Capitals to Small Capitals lookup 36 subtable" uacute.sc
Substitution2: "'aalt' Access All Alternates lookup 0 subtable" uacute.sc
EndChar

StartChar: Ucircumflex
Encoding: 219 219 154
Width: 470
GlyphClass: 2
Flags: W
AnchorPoint: "Anchor-1" 235 536 basechar 0
AnchorPoint: "Anchor-0" 235 0 basechar 0
LayerCount: 2
Fore
SplineSet
39 0 m 1,0,-1
 39 58 l 1,1,-1
 327 468 l 1,2,-1
 56 468 l 1,3,-1
 56 536 l 1,4,-1
 424 536 l 1,5,-1
 424 470 l 1,6,-1
 140 68 l 1,7,-1
 431 68 l 1,8,-1
 431 0 l 1,9,-1
 39 0 l 1,0,-1
EndSplineSet
Substitution2: "'c2sc' Capitals to Small Capitals lookup 36 subtable" ucircumflex.sc
Substitution2: "'aalt' Access All Alternates lookup 0 subtable" ucircumflex.sc
EndChar

StartChar: Udieresis
Encoding: 220 220 155
Width: 605
GlyphClass: 2
Flags: W
AnchorPoint: "Anchor-3" 303 268 basechar 0
AnchorPoint: "Anchor-2" 575 536 basechar 0
AnchorPoint: "Anchor-1" 303 536 basechar 0
AnchorPoint: "Anchor-0" 301 0 basechar 0
LayerCount: 2
Fore
SplineSet
219 312 m 1,0,-1
 390 312 l 5,1,-1
 390 230 l 5,2,-1
 219 230 l 1,3,-1
 219 312 l 1,0,-1
EndSplineSet
Refer: 82 111 N 1 0 0 1 0 0 3
Substitution2: "'c2sc' Capitals to Small Capitals lookup 36 subtable" udieresis.sc
Substitution2: "'aalt' Access All Alternates lookup 0 subtable" udieresis.sc
EndChar

StartChar: Thorn
Encoding: 222 222 157
Width: 479
GlyphClass: 2
Flags: W
AnchorPoint: "Anchor-1" 240 536 basechar 0
AnchorPoint: "Anchor-0" 240 0 basechar 0
LayerCount: 2
Fore
SplineSet
272 578 m 4,0,1
 223 578 223 578 193 606 c 132,-1,2
 163 634 163 634 163 684 c 260,3,4
 163 734 163 734 193 761.5 c 132,-1,5
 223 789 223 789 272 789 c 4,6,7
 319 789 319 789 351 761.5 c 132,-1,8
 383 734 383 734 383 685 c 4,9,10
 383 634 383 634 351.5 606 c 132,-1,11
 320 578 320 578 272 578 c 4,0,1
272 628 m 4,12,13
 297 628 297 628 312.5 643 c 132,-1,14
 328 658 328 658 328 684 c 260,15,16
 328 710 328 710 312 725 c 132,-1,17
 296 740 296 740 272 740 c 260,18,19
 248 740 248 740 232 725 c 132,-1,20
 216 710 216 710 216 684 c 260,21,22
 216 658 216 658 230.5 643 c 132,-1,23
 245 628 245 628 272 628 c 4,12,13
191 0 m 1,24,-1
 0 536 l 1,25,-1
 89 536 l 1,26,-1
 196 220 l 2,27,28
 204 198 204 198 212 171 c 128,-1,29
 220 144 220 144 227 119.5 c 128,-1,30
 234 95 234 95 236 78 c 1,31,-1
 240 78 l 1,32,33
 244 95 244 95 251 120 c 128,-1,34
 258 145 258 145 267 172 c 128,-1,35
 276 199 276 199 283 220 c 2,36,-1
 390 536 l 1,37,-1
 479 536 l 1,38,-1
 286 0 l 1,39,-1
 191 0 l 1,24,-1
EndSplineSet
Substitution2: "'c2sc' Capitals to Small Capitals lookup 36 subtable" thorn.sc
Substitution2: "'aalt' Access All Alternates lookup 0 subtable" thorn.sc
EndChar

StartChar: germandbls
Encoding: 223 223 158
Width: 421
GlyphClass: 2
Flags: W
LayerCount: 2
Fore
SplineSet
259 606 m 4,0,1
 210 606 210 606 180 634 c 132,-1,2
 150 662 150 662 150 712 c 260,3,4
 150 762 150 762 180 789.5 c 132,-1,5
 210 817 210 817 259 817 c 4,6,7
 306 817 306 817 338 789.5 c 132,-1,8
 370 762 370 762 370 713 c 4,9,10
 370 662 370 662 338.5 634 c 132,-1,11
 307 606 307 606 259 606 c 4,0,1
259 656 m 4,12,13
 284 656 284 656 299.5 671 c 132,-1,14
 315 686 315 686 315 712 c 260,15,16
 315 738 315 738 299 753 c 132,-1,17
 283 768 283 768 259 768 c 260,18,19
 235 768 235 768 219 753 c 132,-1,20
 203 738 203 738 203 712 c 260,21,22
 203 686 203 686 217.5 671 c 132,-1,23
 232 656 232 656 259 656 c 4,12,13
384 143 m 0,24,25
 384 71 384 71 332 31.5 c 128,-1,26
 280 -8 280 -8 194 -8 c 0,27,28
 100 -8 100 -8 40 19 c 1,29,-1
 40 91 l 1,30,31
 75 76 75 76 113.5 66 c 128,-1,32
 152 56 152 56 195 56 c 0,33,34
 246 56 246 56 276.5 78 c 128,-1,35
 307 100 307 100 307 140 c 0,36,37
 307 182 307 182 273 203 c 128,-1,38
 239 224 239 224 184 246 c 0,39,40
 148 260 148 260 116.5 278.5 c 128,-1,41
 85 297 85 297 66 326.5 c 128,-1,42
 47 356 47 356 47 401 c 0,43,44
 47 469 47 469 95.5 507.5 c 128,-1,45
 144 546 144 546 223 546 c 0,46,47
 264 546 264 546 301.5 537.5 c 128,-1,48
 339 529 339 529 376 513 c 1,49,-1
 350 452 l 1,50,51
 315 467 315 467 284.5 474.5 c 128,-1,52
 254 482 254 482 223 482 c 0,53,54
 179 482 179 482 151.5 461.5 c 128,-1,55
 124 441 124 441 124 403 c 0,56,57
 124 375 124 375 138 357.5 c 128,-1,58
 152 340 152 340 178.5 327.5 c 128,-1,59
 205 315 205 315 241 300 c 0,60,61
 282 283 282 283 314.5 263.5 c 128,-1,62
 347 244 347 244 365.5 215.5 c 128,-1,63
 384 187 384 187 384 143 c 0,24,25
EndSplineSet
Substitution2: "'smcp' Lowercase to Small Capitals lookup 37 subtable" germandbls.sc
Substitution2: "'aalt' Access All Alternates lookup 0 subtable" germandbls.sc
EndChar

StartChar: otilde
Encoding: 245 245 159
Width: 639
GlyphClass: 2
Flags: W
AnchorPoint: "Anchor-2" 639 714 basechar 0
AnchorPoint: "Anchor-1" 320 714 basechar 0
AnchorPoint: "Anchor-0" 320 -3 basechar 0
LayerCount: 2
Fore
SplineSet
94 714 m 1,0,-1
 180 493 l 1,1,-1
 463 493 l 1,2,-1
 548 714 l 1,3,-1
 639 714 l 1,4,-1
 360 -3 l 1,5,-1
 279 -3 l 1,6,-1
 1 714 l 1,7,-1
 94 714 l 1,0,-1
287 197 m 2,8,9
 290 189 290 189 297 168 c 128,-1,10
 304 147 304 147 311 125 c 128,-1,11
 318 103 318 103 321 90 c 1,12,13
 329 121 329 121 337.5 150.5 c 128,-1,14
 346 180 346 180 352 197 c 2,15,-1
 433 413 l 1,16,-1
 207 413 l 1,17,-1
 287 197 l 2,8,9
EndSplineSet
Substitution2: "'smcp' Lowercase to Small Capitals lookup 37 subtable" otilde.sc
Substitution2: "'aalt' Access All Alternates lookup 0 subtable" otilde.sc
EndChar

StartChar: odieresis
Encoding: 246 246 160
Width: 344
GlyphClass: 2
Flags: W
AnchorPoint: "Anchor-2" 380 765 basechar 0
AnchorPoint: "Anchor-1" 252 765 basechar 0
AnchorPoint: "Anchor-0" 153 60 basechar 0
LayerCount: 2
Fore
SplineSet
332 468 m 1,0,-1
 197 468 l 1,1,-1
 197 60 l 1,2,-1
 109 60 l 1,3,-1
 109 468 l 1,4,-1
 10 468 l 1,5,-1
 10 539 l 1,6,-1
 109 539 l 1,7,-1
 109 570 l 2,8,9
 109 674 109 674 155 719.5 c 128,-1,10
 201 765 201 765 283 765 c 0,11,12
 315 765 315 765 341.5 759.5 c 128,-1,13
 368 754 368 754 387 747 c 1,14,-1
 364 678 l 1,15,16
 348 683 348 683 327 688 c 128,-1,17
 306 693 306 693 284 693 c 0,18,19
 240 693 240 693 218.5 663.5 c 128,-1,20
 197 634 197 634 197 571 c 2,21,-1
 197 539 l 1,22,-1
 332 539 l 1,23,-1
 332 468 l 1,0,-1
EndSplineSet
Substitution2: "'smcp' Lowercase to Small Capitals lookup 37 subtable" odieresis.sc
Substitution2: "'aalt' Access All Alternates lookup 0 subtable" odieresis.sc
EndChar

StartChar: divide
Encoding: 247 247 161
Width: 358
Flags: W
AnchorPoint: "Anchor-1" 179 760 basechar 0
AnchorPoint: "Anchor-0" 179 0 basechar 0
LayerCount: 2
Fore
SplineSet
233 140 m 2,0,1
 233 74 233 74 199.5 32 c 128,-1,2
 166 -10 166 -10 93 -10 c 0,3,4
 72 -10 72 -10 53 -7 c 128,-1,5
 34 -4 34 -4 19 3 c 1,6,-1
 19 74 l 1,7,8
 35 70 35 70 49 67 c 128,-1,9
 63 64 63 64 79 64 c 0,10,11
 145 64 145 64 145 144 c 2,12,-1
 145 618 l 2,13,14
 145 766 145 766 285 766 c 0,15,16
 308 766 308 766 327 762 c 128,-1,17
 346 758 346 758 358 753 c 1,18,-1
 358 682 l 1,19,20
 345 686 345 686 330 689 c 128,-1,21
 315 692 315 692 299 692 c 0,22,23
 233 692 233 692 233 612 c 2,24,-1
 233 140 l 2,0,1
EndSplineSet
Substitution2: "'locl' Localized Forms lookup 166 subtable" divide.deva
EndChar

StartChar: oslash
Encoding: 248 248 162
Width: 258
GlyphClass: 2
Flags: W
AnchorPoint: "Anchor-2" 238 737 basechar 0
AnchorPoint: "Anchor-1" 129 737 basechar 0
AnchorPoint: "Anchor-0" 22 -240 basechar 0
LayerCount: 2
Fore
SplineSet
78 681 m 0,0,1
 78 710 78 710 93 723.5 c 128,-1,2
 108 737 108 737 130 737 c 0,3,4
 150 737 150 737 165.5 723.5 c 128,-1,5
 181 710 181 710 181 681 c 0,6,7
 181 653 181 653 165.5 639 c 128,-1,8
 150 625 150 625 130 625 c 0,9,10
 108 625 108 625 93 639 c 128,-1,11
 78 653 78 653 78 681 c 0,0,1
22 -240 m 0,12,13
 -3 -240 -3 -240 -22 -236.5 c 128,-1,14
 -41 -233 -41 -233 -55 -228 c 1,15,-1
 -55 -157 l 1,16,17
 -40 -161 -40 -161 -24 -164 c 128,-1,18
 -8 -167 -8 -167 11 -167 c 0,19,20
 43 -167 43 -167 64 -149.5 c 128,-1,21
 85 -132 85 -132 85 -83 c 2,22,-1
 85 536 l 1,23,-1
 173 536 l 1,24,-1
 173 -80 l 2,25,26
 173 -155 173 -155 137 -197.5 c 128,-1,27
 101 -240 101 -240 22 -240 c 0,12,13
EndSplineSet
Substitution2: "'smcp' Lowercase to Small Capitals lookup 37 subtable" oslash.sc
Substitution2: "'aalt' Access All Alternates lookup 0 subtable" oslash.sc
EndChar

StartChar: ugrave
Encoding: 249 249 163
Width: 615
GlyphClass: 2
Flags: W
AnchorPoint: "Anchor-2" 555 536 basechar 0
AnchorPoint: "Anchor-1" 308 536 basechar 0
AnchorPoint: "Anchor-0" 486 -240 basechar 0
LayerCount: 2
Fore
SplineSet
442 -11 m 2,0,1
 442 7 442 7 443 31 c 128,-1,2
 444 55 444 55 447 72 c 1,3,-1
 441 72 l 1,4,5
 418 38 418 38 377.5 14 c 128,-1,6
 337 -10 337 -10 273 -10 c 0,7,8
 176 -10 176 -10 115.5 59.5 c 128,-1,9
 55 129 55 129 55 267 c 256,10,11
 55 405 55 405 116.5 475.5 c 128,-1,12
 178 546 178 546 276 546 c 0,13,14
 339 546 339 546 379 522 c 128,-1,15
 419 498 419 498 443 463 c 1,16,-1
 447 463 l 1,17,-1
 460 536 l 1,18,-1
 530 536 l 1,19,-1
 530 -240 l 1,20,-1
 442 -240 l 1,21,-1
 442 -11 l 2,0,1
290 63 m 0,22,23
 373 63 373 63 407.5 108.5 c 128,-1,24
 442 154 442 154 443 248 c 2,25,-1
 443 266 l 2,26,27
 443 368 443 368 409 420.5 c 128,-1,28
 375 473 375 473 288 473 c 0,29,30
 216 473 216 473 181 416.5 c 128,-1,31
 146 360 146 360 146 265 c 256,32,33
 146 170 146 170 181.5 116.5 c 128,-1,34
 217 63 217 63 290 63 c 0,22,23
EndSplineSet
Substitution2: "'smcp' Lowercase to Small Capitals lookup 37 subtable" ugrave.sc
Substitution2: "'aalt' Access All Alternates lookup 0 subtable" ugrave.sc
EndChar

StartChar: uacute
Encoding: 250 250 164
Width: 605
GlyphClass: 2
Flags: W
AnchorPoint: "Anchor-2" 508 714 basechar 0
AnchorPoint: "Anchor-1" 303 714 basechar 0
AnchorPoint: "Anchor-0" 303 0 basechar 0
LayerCount: 2
Fore
SplineSet
319 714 m 2,0,-1
 508 714 l 1,1,-1
 508 0 l 1,2,-1
 418 0 l 1,3,-1
 418 278 l 1,4,-1
 336 278 l 2,5,6
 229 278 229 278 166.5 310 c 128,-1,7
 104 342 104 342 77.5 393.5 c 128,-1,8
 51 445 51 445 51 504 c 0,9,10
 51 604 51 604 115 659 c 128,-1,11
 179 714 179 714 319 714 c 2,0,-1
327 637 m 2,12,13
 233 637 233 637 188.5 603 c 128,-1,14
 144 569 144 569 144 500 c 0,15,16
 144 421 144 421 194 388 c 128,-1,17
 244 355 244 355 346 355 c 2,18,-1
 418 355 l 1,19,-1
 418 637 l 1,20,-1
 327 637 l 2,12,13
EndSplineSet
Substitution2: "'smcp' Lowercase to Small Capitals lookup 37 subtable" uacute.sc
Substitution2: "'aalt' Access All Alternates lookup 0 subtable" uacute.sc
EndChar

StartChar: ucircumflex
Encoding: 251 251 165
Width: 572
GlyphClass: 2
Flags: W
LayerCount: 2
Fore
SplineSet
334 723 m 0,0,1
 389 723 389 723 433 711 c 128,-1,2
 477 699 477 699 511 682 c 1,3,-1
 480 612 l 1,4,5
 450 626 450 626 413.5 638 c 128,-1,6
 377 650 377 650 336 650 c 0,7,8
 279 650 279 650 249 620.5 c 128,-1,9
 219 591 219 591 219 525 c 2,10,-1
 219 386 l 1,11,-1
 423 386 l 1,12,-1
 423 320 l 1,13,-1
 219 320 l 1,14,-1
 219 216 l 2,15,16
 219 176 219 176 209.5 149.5 c 128,-1,17
 200 123 200 123 184.5 107 c 128,-1,18
 169 91 169 91 151 80 c 1,19,-1
 535 80 l 1,20,-1
 535 0 l 1,21,-1
 32 0 l 1,22,-1
 32 74 l 1,23,24
 61 81 61 81 83 97.5 c 128,-1,25
 105 114 105 114 118 142.5 c 128,-1,26
 131 171 131 171 131 215 c 2,27,-1
 131 320 l 1,28,-1
 35 320 l 1,29,-1
 35 386 l 1,30,-1
 131 386 l 1,31,-1
 131 534 l 2,32,33
 131 594 131 594 156 636 c 128,-1,34
 181 678 181 678 227 700.5 c 128,-1,35
 273 723 273 723 334 723 c 0,0,1
EndSplineSet
Substitution2: "'smcp' Lowercase to Small Capitals lookup 37 subtable" ucircumflex.sc
Substitution2: "'aalt' Access All Alternates lookup 0 subtable" ucircumflex.sc
EndChar

StartChar: udieresis
Encoding: 252 252 166
Width: 572
GlyphClass: 2
Flags: W
LayerCount: 2
Fore
SplineSet
235 -8 m 4,0,1
 180 -8 180 -8 136 4 c 132,-1,2
 92 16 92 16 58 33 c 5,3,-1
 89 103 l 5,4,5
 119 89 119 89 155.5 77 c 132,-1,6
 192 65 192 65 233 65 c 4,7,8
 290 65 290 65 320 94.5 c 132,-1,9
 350 124 350 124 350 190 c 6,10,-1
 350 329 l 5,11,-1
 146 329 l 5,12,-1
 146 395 l 5,13,-1
 350 395 l 5,14,-1
 350 499 l 6,15,16
 350 539 350 539 359.5 565.5 c 132,-1,17
 369 592 369 592 384.5 608 c 132,-1,18
 400 624 400 624 418 635 c 5,19,-1
 34 635 l 5,20,-1
 34 715 l 5,21,-1
 537 715 l 5,22,-1
 537 641 l 5,23,24
 508 634 508 634 486 617.5 c 132,-1,25
 464 601 464 601 451 572.5 c 132,-1,26
 438 544 438 544 438 500 c 6,27,-1
 438 395 l 5,28,-1
 534 395 l 5,29,-1
 534 329 l 5,30,-1
 438 329 l 5,31,-1
 438 181 l 6,32,33
 438 121 438 121 413 79 c 132,-1,34
 388 37 388 37 342 14.5 c 132,-1,35
 296 -8 296 -8 235 -8 c 4,0,1
EndSplineSet
Substitution2: "'smcp' Lowercase to Small Capitals lookup 37 subtable" udieresis.sc
Substitution2: "'aalt' Access All Alternates lookup 0 subtable" udieresis.sc
EndChar

StartChar: yacute
Encoding: 253 253 167
Width: 519
GlyphClass: 2
Flags: W
AnchorPoint: "Anchor-2" 499 714 basechar 0
AnchorPoint: "Anchor-1" 298 714 basechar 0
AnchorPoint: "Anchor-0" 260 0 basechar 0
LayerCount: 2
Fore
SplineSet
187 0 m 1,0,-1
 97 0 l 1,1,-1
 97 714 l 1,2,-1
 496 714 l 1,3,-1
 496 635 l 1,4,-1
 187 635 l 1,5,-1
 187 382 l 1,6,-1
 477 382 l 1,7,-1
 477 303 l 1,8,-1
 187 303 l 1,9,-1
 187 0 l 1,0,-1
EndSplineSet
Substitution2: "'smcp' Lowercase to Small Capitals lookup 37 subtable" yacute.sc
Substitution2: "'aalt' Access All Alternates lookup 0 subtable" yacute.sc
EndChar

StartChar: thorn
Encoding: 254 254 168
Width: 930
GlyphClass: 2
Flags: W
AnchorPoint: "Anchor-2" 910 714 basechar 0
AnchorPoint: "Anchor-1" 465 714 basechar 0
AnchorPoint: "Anchor-0" 458 0 basechar 0
LayerCount: 2
Fore
SplineSet
917 714 m 1,0,-1
 727 0 l 1,1,-1
 636 0 l 1,2,-1
 497 468 l 2,3,4
 489 497 489 497 481 526 c 128,-1,5
 473 555 473 555 468 577.5 c 128,-1,6
 463 600 463 600 461 609 c 1,7,8
 460 596 460 596 450.5 553.5 c 128,-1,9
 441 511 441 511 427 465 c 2,10,-1
 292 0 l 1,11,-1
 201 0 l 1,12,-1
 12 714 l 1,13,-1
 106 714 l 1,14,-1
 217 278 l 2,15,16
 229 232 229 232 237.5 189 c 128,-1,17
 246 146 246 146 251 108 c 1,18,19
 256 147 256 147 266 193 c 128,-1,20
 276 239 276 239 289 283 c 2,21,-1
 415 714 l 1,22,-1
 508 714 l 1,23,-1
 639 280 l 2,24,25
 653 234 653 234 663 188.5 c 128,-1,26
 673 143 673 143 678 108 c 1,27,28
 683 145 683 145 692 188.5 c 128,-1,29
 701 232 701 232 713 279 c 2,30,-1
 823 714 l 1,31,-1
 917 714 l 1,0,-1
EndSplineSet
Substitution2: "'smcp' Lowercase to Small Capitals lookup 37 subtable" thorn.sc
Substitution2: "'aalt' Access All Alternates lookup 0 subtable" thorn.sc
EndChar

StartChar: ydieresis
Encoding: 255 255 169
Width: 586
GlyphClass: 2
Flags: W
AnchorPoint: "Anchor-2" 566 714 basechar 0
AnchorPoint: "Anchor-1" 292 714 basechar 0
AnchorPoint: "Anchor-0" 293 0 basechar 0
LayerCount: 2
Fore
SplineSet
582 0 m 1,0,-1
 480 0 l 1,1,-1
 291 310 l 1,2,-1
 99 0 l 1,3,-1
 4 0 l 1,4,-1
 241 372 l 1,5,-1
 19 714 l 1,6,-1
 119 714 l 1,7,-1
 294 434 l 1,8,-1
 470 714 l 1,9,-1
 565 714 l 1,10,-1
 344 374 l 1,11,-1
 582 0 l 1,0,-1
EndSplineSet
Substitution2: "'smcp' Lowercase to Small Capitals lookup 37 subtable" ydieresis.sc
Substitution2: "'aalt' Access All Alternates lookup 0 subtable" ydieresis.sc
EndChar

StartChar: Amacron
Encoding: 256 256 170
Width: 680
GlyphClass: 2
Flags: W
LayerCount: 2
Fore
SplineSet
558 -5 m 1,0,1
 538 -5 538 -5 519 2 c 128,-1,2
 500 9 500 9 486 26 c 1,3,-1
 486 291 l 5,4,5
 458 266 458 266 421 250.5 c 132,-1,6
 384 235 384 235 334 235 c 4,7,8
 292 235 292 235 243 258 c 132,-1,9
 194 281 194 281 152 318 c 132,-1,10
 110 355 110 355 82 401 c 132,-1,11
 54 447 54 447 54 493 c 4,12,13
 54 541 54 541 71.5 578 c 132,-1,14
 89 615 89 615 119 640.5 c 132,-1,15
 149 666 149 666 189.5 679 c 132,-1,16
 230 692 230 692 276 692 c 4,17,18
 310 692 310 692 340 684 c 4,19,20
 389 671 389 671 396 662.5 c 4,21,22
 431 622 431 622 444.5 631.5 c 4,23,24
 448 634 448 634 486 718 c 5,25,-1
 484 717 l 5,26,-1
 560 717 l 6,27,-1
 558 -5 l 1,0,1
277 292 m 4,28,29
 315 292 315 292 351 304.5 c 132,-1,30
 387 317 387 317 417 340 c 5,31,-1
 184 580 l 5,32,33
 157 556 157 556 142 521.5 c 132,-1,34
 127 487 127 487 127 442 c 4,35,36
 127 406 127 406 138.5 378 c 132,-1,37
 150 350 150 350 170 331 c 132,-1,38
 190 312 190 312 217.5 302 c 132,-1,39
 245 292 245 292 277 292 c 4,28,29
486 571 m 5,40,41
 451 598 451 598 413.5 613.5 c 132,-1,42
 376 629 376 629 327 629 c 4,43,44
 255 629 255 629 204 596 c 5,45,-1
 435 356 l 5,46,47
 451 371 451 371 464 389 c 132,-1,48
 477 407 477 407 486 427 c 5,49,-1
 486 571 l 5,40,41
EndSplineSet
Substitution2: "'c2sc' Capitals to Small Capitals lookup 36 subtable" amacron.sc
Substitution2: "'aalt' Access All Alternates lookup 0 subtable" amacron.sc
EndChar

StartChar: amacron
Encoding: 257 257 171
Width: 632
GlyphClass: 2
Flags: W
LayerCount: 2
Fore
SplineSet
376.888671875 409.82421875 m 6,0,1
 376.888671875 391.015625 376.888671875 391.015625 376.088867188 388.259765625 c 4,2,3
 375.3203125 377 375.3203125 377 374.223632812 368.352539062 c 5,4,-1
 377.421875 368.352539062 l 5,5,6
 386.240234375 383.719726562 386.240234375 383.719726562 400.334960938 393.7890625 c 4,7,8
 413.959960938 403.879882812 413.959960938 403.879882812 431.243164062 408.995117188 c 4,9,10
 448.400390625 414.440429688 448.400390625 414.440429688 466.415039062 414.248046875 c 4,11,12
 501.3203125 414.440429688 501.3203125 414.440429688 524.233398438 402.912109375 c 4,13,14
 547.51953125 391.400390625 547.51953125 391.400390625 559.138671875 367.80078125 c 4,15,16
 570.862304688 344.7109375 570.862304688 344.7109375 570.862304688 305.868164062 c 6,17,-1
 570.862304688 134.004882812 l 5,18,-1
 516.940429688 134.004882812 l 5,19,-1
 516.940429688 263.190429688 l 6,20,21
 517.280273438 299.240234375 517.280273438 299.240234375 501.486328125 316.827148438 c 4,22,23
 486.200195312 334.759765625 486.200195312 334.759765625 452.993164062 334.521484375 c 4,24,25
 420.6796875 334.759765625 420.6796875 334.759765625 402.901367188 322.080078125 c 4,26,27
 384.559570312 309.799804688 384.559570312 309.799804688 377.0546875 285.584960938 c 4,28,29
 369.328125 261.451171875 369.328125 261.451171875 369.328125 226.6953125 c 6,30,-1
 369.328125 134.004882812 l 5,31,-1
 311.513671875 134.004882812 l 5,32,-1
 311.513671875 533.133789062 l 5,33,-1
 376.888671875 533.133789062 l 5,34,-1
 376.888671875 409.82421875 l 6,0,1
403 645 m 0,35,36
 346 645 346 645 300 625.5 c 128,-1,37
 254 606 254 606 222 568.5 c 128,-1,38
 190 531 190 531 173 477.5 c 128,-1,39
 156 424 156 424 156 357 c 0,40,41
 156 269 156 269 183.5 204 c 128,-1,42
 211 139 211 139 265.5 104 c 128,-1,43
 320 69 320 69 402 69 c 0,44,45
 449 69 449 69 491 77 c 128,-1,46
 533 85 533 85 573 97 c 1,47,-1
 573 19 l 1,48,49
 533 4 533 4 490.5 -3 c 128,-1,50
 448 -10 448 -10 389 -10 c 0,51,52
 280 -10 280 -10 207 35 c 128,-1,53
 134 80 134 80 97.5 163 c 128,-1,54
 61 246 61 246 61 358 c 0,55,56
 61 439 61 439 83.5 506 c 128,-1,57
 106 573 106 573 149.5 622 c 128,-1,58
 193 671 193 671 257 697.5 c 128,-1,59
 321 724 321 724 404 724 c 0,60,61
 459 724 459 724 510 713 c 128,-1,62
 561 702 561 702 601 682 c 1,63,-1
 565 606 l 1,64,65
 532 621 532 621 491.5 633 c 128,-1,66
 451 645 451 645 403 645 c 0,35,36
EndSplineSet
Substitution2: "'smcp' Lowercase to Small Capitals lookup 37 subtable" amacron.sc
Substitution2: "'aalt' Access All Alternates lookup 0 subtable" amacron.sc
EndChar

StartChar: ccaron
Encoding: 269 269 183
Width: 495
GlyphClass: 2
Flags: W
AnchorPoint: "Anchor-1" 248 536 basechar 0
AnchorPoint: "Anchor-0" 248 0 basechar 0
LayerCount: 2
Fore
SplineSet
310 -10 m 0,0,1
 236 -10 236 -10 178.5 18.5 c 128,-1,2
 121 47 121 47 88 108 c 128,-1,3
 55 169 55 169 55 265 c 0,4,5
 55 365 55 365 89 427 c 128,-1,6
 123 489 123 489 181.5 517.5 c 128,-1,7
 240 546 240 546 313 546 c 0,8,9
 354 546 354 546 393.5 538 c 128,-1,10
 433 530 433 530 461 517 c 1,11,-1
 435 445 l 1,12,13
 407 456 407 456 373.5 463 c 128,-1,14
 340 470 340 470 311 470 c 0,15,16
 234 470 234 470 194 431 c 128,-1,17
 154 392 154 392 146 312 c 1,18,-1
 409 312 l 1,19,-1
 409 240 l 1,20,-1
 145 240 l 1,21,22
 150 151 150 151 190 108 c 128,-1,23
 230 65 230 65 308 65 c 0,24,25
 353 65 353 65 388 74 c 128,-1,26
 423 83 423 83 453 95 c 1,27,-1
 453 19 l 1,28,29
 425 5 425 5 391 -2.5 c 128,-1,30
 357 -10 357 -10 310 -10 c 0,0,1
EndSplineSet
Substitution2: "'smcp' Lowercase to Small Capitals lookup 37 subtable" ccaron.sc
Substitution2: "'aalt' Access All Alternates lookup 0 subtable" ccaron.sc
EndChar

StartChar: Dcaron
Encoding: 270 270 184
Width: 494
GlyphClass: 2
Flags: W
AnchorPoint: "Anchor-1" 207 536 basechar 0
AnchorPoint: "Anchor-0" 247 0 basechar 0
LayerCount: 2
Fore
SplineSet
171 -10 m 0,0,1
 125 -10 125 -10 91.5 -2.5 c 128,-1,2
 58 5 58 5 29 19 c 1,3,-1
 29 95 l 1,4,5
 59 83 59 83 94 74 c 128,-1,6
 129 65 129 65 173 65 c 0,7,8
 251 65 251 65 297 107 c 128,-1,9
 343 149 343 149 348 240 c 1,10,-1
 84 240 l 1,11,-1
 84 312 l 1,12,-1
 347 312 l 1,13,14
 340 394 340 394 300.5 432 c 128,-1,15
 261 470 261 470 185 470 c 0,16,17
 156 470 156 470 121.5 462 c 128,-1,18
 87 454 87 454 60 444 c 1,19,-1
 35 515 l 1,20,21
 64 528 64 528 104 537 c 128,-1,22
 144 546 144 546 184 546 c 0,23,24
 259 546 259 546 316.5 518 c 128,-1,25
 374 490 374 490 406.5 429 c 128,-1,26
 439 368 439 368 439 268 c 0,27,28
 439 173 439 173 404.5 111 c 128,-1,29
 370 49 370 49 309.5 19.5 c 128,-1,30
 249 -10 249 -10 171 -10 c 0,0,1
EndSplineSet
Substitution2: "'c2sc' Capitals to Small Capitals lookup 36 subtable" dcaron.sc
Substitution2: "'aalt' Access All Alternates lookup 0 subtable" dcaron.sc
EndChar

StartChar: dcaron
Encoding: 271 271 185
Width: 605
GlyphClass: 2
Flags: W
AnchorPoint: "Anchor-1" 303 714 basechar 0
AnchorPoint: "Anchor-0" 303 0 basechar 0
LayerCount: 2
Fore
SplineSet
554 382 m 0,0,1
 554 322 554 322 528 270.5 c 128,-1,2
 502 219 502 219 439.5 187 c 128,-1,3
 377 155 377 155 268 155 c 2,4,-1
 187 155 l 1,5,-1
 187 0 l 1,6,-1
 97 0 l 1,7,-1
 97 714 l 1,8,-1
 187 714 l 1,9,-1
 187 590 l 1,10,-1
 283 590 l 2,11,12
 428 590 428 590 491 535 c 128,-1,13
 554 480 554 480 554 382 c 0,0,1
259 231 m 2,14,15
 364 231 364 231 412.5 264.5 c 128,-1,16
 461 298 461 298 461 377 c 0,17,18
 461 446 461 446 417.5 479.5 c 128,-1,19
 374 513 374 513 276 513 c 2,20,-1
 187 513 l 1,21,-1
 187 231 l 1,22,-1
 259 231 l 2,14,15
EndSplineSet
Substitution2: "'smcp' Lowercase to Small Capitals lookup 37 subtable" dcaron.sc
Substitution2: "'aalt' Access All Alternates lookup 0 subtable" dcaron.sc
EndChar

StartChar: Dcroat
Encoding: 272 272 186
Width: 632
GlyphClass: 2
Flags: W
AnchorPoint: "Anchor-2" 612 714 basechar 0
AnchorPoint: "Anchor-1" 380 714 basechar 0
AnchorPoint: "Anchor-0" 372 0 basechar 0
LayerCount: 2
Fore
SplineSet
403 645 m 0,0,1
 288 645 288 645 222 568 c 0,2,3
 156 491 156 491 156 357 c 0,4,5
 156 224 156 224 217.5 146.5 c 0,6,7
 279 69 279 69 402 69 c 0,8,9
 449 69 449 69 491 77 c 0,10,11
 533 85 533 85 573 97 c 1,12,-1
 573 19 l 1,13,14
 533 4 533 4 490.5 -3 c 0,15,16
 448 -10 448 -10 389 -10 c 0,17,18
 280 -10 280 -10 207 35 c 0,19,20
 134 80 134 80 97.5 163 c 0,21,22
 61 246 61 246 61 358 c 0,23,24
 61 466 61 466 100.5 548.5 c 0,25,26
 140 631 140 631 217 677.5 c 0,27,28
 294 724 294 724 404 724 c 0,29,30
 517 724 517 724 601 682 c 1,31,-1
 565 606 l 1,32,33
 532 621 532 621 491.5 633 c 0,34,35
 451 645 451 645 403 645 c 0,0,1
EndSplineSet
Refer: 17 46 N 1 0 0 1 257 299 2
Substitution2: "'c2sc' Capitals to Small Capitals lookup 36 subtable" dcroat.sc
Substitution2: "'aalt' Access All Alternates lookup 0 subtable" dcroat.sc
EndChar

StartChar: dcroat
Encoding: 273 273 187
Width: 643
GlyphClass: 2
Flags: W
AnchorPoint: "Anchor-1" 322 714 basechar 0
AnchorPoint: "Anchor-0" 322 0 basechar 0
LayerCount: 2
Fore
SplineSet
407 645 m 0,0,1
 301 645 301 645 236 586 c 128,-1,2
 171 527 171 527 158 411 c 1,3,-1
 506 411 l 1,4,-1
 506 333 l 1,5,-1
 156 333 l 1,6,7
 161 206 161 206 223.5 137.5 c 128,-1,8
 286 69 286 69 407 69 c 0,9,10
 456 69 456 69 500 77 c 128,-1,11
 544 85 544 85 586 97 c 1,12,-1
 586 19 l 1,13,14
 508 -10 508 -10 395 -10 c 0,15,16
 279 -10 279 -10 205 36 c 128,-1,17
 131 82 131 82 96 164.5 c 128,-1,18
 61 247 61 247 61 358 c 0,19,20
 61 468 61 468 101 550.5 c 128,-1,21
 141 633 141 633 218.5 679 c 128,-1,22
 296 725 296 725 409 725 c 0,23,24
 474 725 474 725 523.5 713 c 128,-1,25
 573 701 573 701 614 681 c 1,26,-1
 577 604 l 1,27,28
 542 621 542 621 500 633 c 128,-1,29
 458 645 458 645 407 645 c 0,0,1
EndSplineSet
Substitution2: "'smcp' Lowercase to Small Capitals lookup 37 subtable" dcroat.sc
Substitution2: "'aalt' Access All Alternates lookup 0 subtable" dcroat.sc
EndChar

StartChar: Emacron
Encoding: 274 274 188
Width: 576
GlyphClass: 2
Flags: W
AnchorPoint: "Anchor-1" 288 536 basechar 0
AnchorPoint: "Anchor-0" 288 0 basechar 0
LayerCount: 2
Fore
SplineSet
516 401 m 0,0,1
 516 351 516 351 486 323 c 128,-1,2
 456 295 456 295 409 285 c 1,3,-1
 409 281 l 1,4,5
 459 274 459 274 496 245.5 c 128,-1,6
 533 217 533 217 533 157 c 0,7,8
 533 89 533 89 482.5 44.5 c 128,-1,9
 432 0 432 0 316 0 c 2,10,-1
 85 0 l 1,11,-1
 85 536 l 1,12,-1
 315 536 l 2,13,14
 372 536 372 536 417.5 523.5 c 128,-1,15
 463 511 463 511 489.5 481.5 c 128,-1,16
 516 452 516 452 516 401 c 0,0,1
427 390 m 0,17,18
 427 428 427 428 399.5 445.5 c 128,-1,19
 372 463 372 463 310 463 c 2,20,-1
 173 463 l 1,21,-1
 173 316 l 1,22,-1
 294 316 l 2,23,24
 427 316 427 316 427 390 c 0,17,18
442 157 m 0,25,26
 442 203 442 203 407 223 c 128,-1,27
 372 243 372 243 304 243 c 2,28,-1
 173 243 l 1,29,-1
 173 71 l 1,30,-1
 306 71 l 2,31,32
 372 71 372 71 407 90.5 c 128,-1,33
 442 110 442 110 442 157 c 0,25,26
EndSplineSet
Substitution2: "'c2sc' Capitals to Small Capitals lookup 36 subtable" emacron.sc
Substitution2: "'aalt' Access All Alternates lookup 0 subtable" emacron.sc
EndChar

StartChar: emacron
Encoding: 275 275 189
Width: 529
GlyphClass: 2
Flags: W
AnchorPoint: "Anchor-1" 279 536 basechar 0
AnchorPoint: "Anchor-0" 265 0 basechar 0
LayerCount: 2
Fore
SplineSet
402 536 m 1,0,-1
 498 536 l 1,1,-1
 269 278 l 1,2,-1
 517 0 l 1,3,-1
 415 0 l 1,4,-1
 173 272 l 1,5,-1
 173 0 l 1,6,-1
 85 0 l 1,7,-1
 85 536 l 1,8,-1
 173 536 l 1,9,-1
 173 276 l 1,10,-1
 402 536 l 1,0,-1
EndSplineSet
Substitution2: "'smcp' Lowercase to Small Capitals lookup 37 subtable" emacron.sc
Substitution2: "'aalt' Access All Alternates lookup 0 subtable" emacron.sc
EndChar

StartChar: ebreve
Encoding: 277 277 191
Width: 637
GlyphClass: 2
Flags: W
AnchorPoint: "Anchor-1" 319 536 basechar 0
AnchorPoint: "Anchor-0" 319 0 basechar 0
LayerCount: 2
Fore
SplineSet
173 536 m 1,0,-1
 173 313 l 1,1,-1
 464 313 l 1,2,-1
 464 536 l 1,3,-1
 552 536 l 1,4,-1
 552 0 l 1,5,-1
 464 0 l 1,6,-1
 464 239 l 1,7,-1
 173 239 l 1,8,-1
 173 0 l 1,9,-1
 85 0 l 1,10,-1
 85 536 l 1,11,-1
 173 536 l 1,0,-1
EndSplineSet
Substitution2: "'smcp' Lowercase to Small Capitals lookup 37 subtable" ebreve.sc
Substitution2: "'aalt' Access All Alternates lookup 0 subtable" ebreve.sc
EndChar

StartChar: eogonek
Encoding: 281 281 195
Width: 613
GlyphClass: 2
Flags: W
AnchorPoint: "Anchor-1" 299 536 basechar 0
AnchorPoint: "Anchor-0" 307 0 basechar 0
LayerCount: 2
Fore
SplineSet
162 341 m 2,0,1
 162 249 162 249 265 249 c 0,2,3
 315 249 315 249 356 264.5 c 128,-1,4
 397 280 397 280 440 306 c 1,5,-1
 440 536 l 1,6,-1
 528 536 l 1,7,-1
 528 0 l 1,8,-1
 440 0 l 1,9,-1
 440 239 l 1,10,11
 395 210 395 210 351.5 193.5 c 128,-1,12
 308 177 308 177 247 177 c 0,13,14
 165 177 165 177 119.5 220 c 128,-1,15
 74 263 74 263 74 335 c 2,16,-1
 74 536 l 1,17,-1
 162 536 l 1,18,-1
 162 341 l 2,0,1
EndSplineSet
Substitution2: "'smcp' Lowercase to Small Capitals lookup 37 subtable" eogonek.sc
Substitution2: "'locl' Localized Forms in Latin lookup 8 subtable" eogonek.loclNAV
Ligature2: "'ccmp' Glyph Composition/Decomposition lookup 6 subtable" e uni0328
AlternateSubs2: "'aalt' Access All Alternates lookup 1 subtable" eogonek.loclNAV eogonek.sc
EndChar

StartChar: Ecaron
Encoding: 282 282 196
Width: 898
GlyphClass: 2
Flags: W
AnchorPoint: "Anchor-1" 449 536 basechar 0
AnchorPoint: "Anchor-0" 449 0 basechar 0
LayerCount: 2
Fore
SplineSet
812 536 m 1,0,-1
 812 0 l 1,1,-1
 85 0 l 1,2,-1
 85 536 l 1,3,-1
 173 536 l 1,4,-1
 173 74 l 1,5,-1
 404 74 l 1,6,-1
 404 536 l 1,7,-1
 492 536 l 1,8,-1
 492 74 l 1,9,-1
 724 74 l 1,10,-1
 724 536 l 1,11,-1
 812 536 l 1,0,-1
EndSplineSet
Substitution2: "'c2sc' Capitals to Small Capitals lookup 36 subtable" ecaron.sc
Substitution2: "'aalt' Access All Alternates lookup 0 subtable" ecaron.sc
EndChar

StartChar: ecaron
Encoding: 283 283 197
Width: 594
GlyphClass: 2
Flags: W
AnchorPoint: "Anchor-1" 297 536 basechar 0
AnchorPoint: "Anchor-0" 297 0 basechar 0
LayerCount: 2
Fore
SplineSet
332 316 m 2,0,1
 541 316 541 316 541 164 c 0,2,3
 541 89 541 89 490 44.5 c 128,-1,4
 439 0 439 0 328 0 c 2,5,-1
 85 0 l 1,6,-1
 85 536 l 1,7,-1
 173 536 l 1,8,-1
 173 316 l 1,9,-1
 332 316 l 2,0,1
453 159 m 0,10,11
 453 208 453 208 418.5 225.5 c 128,-1,12
 384 243 384 243 322 243 c 2,13,-1
 173 243 l 1,14,-1
 173 71 l 1,15,-1
 324 71 l 2,16,17
 380 71 380 71 416.5 91 c 128,-1,18
 453 111 453 111 453 159 c 0,10,11
EndSplineSet
Substitution2: "'smcp' Lowercase to Small Capitals lookup 37 subtable" ecaron.sc
Substitution2: "'aalt' Access All Alternates lookup 0 subtable" ecaron.sc
EndChar

StartChar: Ibreve
Encoding: 300 300 214
Width: 572
GlyphClass: 2
Flags: W
LayerCount: 2
Fore
SplineSet
285 462 m 256,0,1
 262 462 262 462 245.5 476.5 c 128,-1,2
 229 491 229 491 229 523 c 0,3,4
 229 557 229 557 245.5 570 c 128,-1,5
 262 583 262 583 285 583 c 256,6,7
 308 583 308 583 324 570 c 128,-1,8
 340 557 340 557 340 523 c 0,9,10
 340 491 340 491 324 476.5 c 128,-1,11
 308 462 308 462 285 462 c 256,0,1
50 317 m 1,12,-1
 50 388 l 1,13,-1
 521 388 l 1,14,-1
 521 317 l 1,15,-1
 50 317 l 1,12,-1
285 121 m 256,16,17
 262 121 262 121 245.5 135.5 c 128,-1,18
 229 150 229 150 229 182 c 0,19,20
 229 216 229 216 245.5 229 c 128,-1,21
 262 242 262 242 285 242 c 256,22,23
 308 242 308 242 324 229 c 128,-1,24
 340 216 340 216 340 182 c 0,25,26
 340 150 340 150 324 135.5 c 128,-1,27
 308 121 308 121 285 121 c 256,16,17
EndSplineSet
Substitution2: "'ss04' Style Set 4 lookup 43 subtable" Ibreve.salt
Substitution2: "'c2sc' Capitals to Small Capitals lookup 36 subtable" ibreve.sc
AlternateSubs2: "'aalt' Access All Alternates lookup 1 subtable" Ibreve.salt ibreve.sc
EndChar

StartChar: ibreve
Encoding: 301 301 215
Width: 605
GlyphClass: 2
Flags: W
AnchorPoint: "Anchor-1" 303 536 basechar 0
AnchorPoint: "Anchor-0" 303 0 basechar 0
LayerCount: 2
Fore
SplineSet
551 269 m 0,0,1
 551 136 551 136 483.5 63 c 128,-1,2
 416 -10 416 -10 301 -10 c 0,3,4
 228 -10 228 -10 172 23 c 1,5,-1
 132 -33 l 1,6,-1
 74 6 l 1,7,-1
 119 68 l 1,8,9
 88 104 88 104 71.5 154.5 c 128,-1,10
 55 205 55 205 55 269 c 0,11,12
 55 402 55 402 122 474 c 128,-1,13
 189 546 189 546 304 546 c 0,14,15
 377 546 377 546 435 510 c 1,16,-1
 474 566 l 1,17,-1
 533 528 l 1,18,-1
 488 465 l 1,19,20
 517 430 517 430 534 380.5 c 128,-1,21
 551 331 551 331 551 269 c 0,0,1
146 269 m 0,22,23
 146 231 146 231 151.5 198.5 c 128,-1,24
 157 166 157 166 170 141 c 1,25,-1
 390 447 l 1,26,27
 354 472 354 472 302 472 c 0,28,29
 220 472 220 472 183 418 c 128,-1,30
 146 364 146 364 146 269 c 0,22,23
460 269 m 0,31,32
 460 343 460 343 437 392 c 1,33,-1
 217 86 l 1,34,35
 251 63 251 63 303 63 c 0,36,37
 384 63 384 63 422 118.5 c 128,-1,38
 460 174 460 174 460 269 c 0,31,32
EndSplineSet
Substitution2: "'smcp' Lowercase to Small Capitals lookup 37 subtable" ibreve.sc
Substitution2: "'aalt' Access All Alternates lookup 0 subtable" ibreve.sc
EndChar

StartChar: Iogonek
Encoding: 302 302 216
Width: 572
GlyphClass: 2
Flags: W
LayerCount: 2
Fore
SplineSet
353 644 m 1,0,1
 391 643 391 643 425.5 634.5 c 128,-1,2
 460 626 460 626 485 615 c 1,3,-1
 459 542 l 1,4,5
 433 552 433 552 400 560 c 128,-1,6
 367 568 367 568 340 568 c 0,7,8
 258 568 258 568 219.5 517.5 c 128,-1,9
 181 467 181 467 181 363 c 256,10,11
 181 259 181 259 220.5 211.5 c 128,-1,12
 260 164 260 164 336 164 c 0,13,14
 380 164 380 164 412.5 172.5 c 128,-1,15
 445 181 445 181 476 194 c 1,16,-1
 476 117 l 1,17,18
 449 104 449 104 420 96.5 c 128,-1,19
 391 89 391 89 352 87 c 1,20,-1
 352 -10 l 1,21,-1
 285 -10 l 1,22,-1
 285 90 l 1,23,24
 226 99 226 99 182.5 129 c 128,-1,25
 139 159 139 159 115 216 c 128,-1,26
 91 273 91 273 91 362 c 0,27,28
 91 453 91 453 115 511 c 128,-1,29
 139 569 139 569 183 600 c 128,-1,30
 227 631 227 631 285 640 c 1,31,-1
 285 724 l 1,32,-1
 353 724 l 1,33,-1
 353 644 l 1,0,1
EndSplineSet
Substitution2: "'ss04' Style Set 4 lookup 43 subtable" Iogonek.salt
Substitution2: "'c2sc' Capitals to Small Capitals lookup 36 subtable" iogonek.sc
Substitution2: "'locl' Localized Forms in Latin lookup 8 subtable" Iogonek.loclNAV
Ligature2: "'ccmp' Glyph Composition/Decomposition lookup 6 subtable" I uni0328
AlternateSubs2: "'aalt' Access All Alternates lookup 1 subtable" Iogonek.loclNAV Iogonek.salt iogonek.sc
EndChar

StartChar: iogonek
Encoding: 303 303 217
Width: 572
GlyphClass: 2
Flags: W
LayerCount: 2
Fore
SplineSet
334 723 m 0,0,1
 389 723 389 723 433 711 c 128,-1,2
 477 699 477 699 511 682 c 1,3,-1
 480 612 l 1,4,5
 450 626 450 626 413.5 638 c 128,-1,6
 377 650 377 650 336 650 c 0,7,8
 279 650 279 650 249 620.5 c 128,-1,9
 219 591 219 591 219 525 c 2,10,-1
 219 386 l 1,11,-1
 423 386 l 1,12,-1
 423 320 l 1,13,-1
 219 320 l 1,14,-1
 219 216 l 2,15,16
 219 155 219 155 198 125.5 c 128,-1,17
 177 96 177 96 151 80 c 1,18,-1
 535 80 l 1,19,-1
 535 0 l 1,20,-1
 32 0 l 1,21,-1
 32 74 l 1,22,23
 75 85 75 85 103 117 c 128,-1,24
 131 149 131 149 131 215 c 2,25,-1
 131 320 l 1,26,-1
 35 320 l 1,27,-1
 35 386 l 1,28,-1
 131 386 l 1,29,-1
 131 534 l 2,30,31
 131 623 131 623 186.5 673 c 128,-1,32
 242 723 242 723 334 723 c 0,0,1
EndSplineSet
Substitution2: "'smcp' Lowercase to Small Capitals lookup 37 subtable" iogonek.sc
Ligature2: "'ccmp' Glyph Composition/Decomposition lookup 6 subtable" i uni0328
Substitution2: "Single Substitution lookup 5 subtable" iogonekdotless
Substitution2: "Single Substitution lookup 4 subtable" iogonekdotless
AlternateSubs2: "'aalt' Access All Alternates lookup 1 subtable" iogonek.sc iogonekdotless
EndChar

StartChar: Idotaccent
Encoding: 304 304 218
Width: 513
GlyphClass: 2
Flags: W
LayerCount: 2
Fore
SplineSet
67 395 m 0,0,1
 67 445 67 445 91 475.5 c 128,-1,2
 115 506 115 506 146 521 c 1,3,4
 110 541 110 541 90 568.5 c 128,-1,5
 70 596 70 596 70 636 c 0,6,7
 70 696 70 696 121 730.5 c 128,-1,8
 172 765 172 765 267 765 c 0,9,10
 323 765 323 765 362 755.5 c 128,-1,11
 401 746 401 746 438 731 c 1,12,-1
 411 664 l 1,13,14
 377 678 377 678 343 687.5 c 128,-1,15
 309 697 309 697 261 697 c 0,16,17
 201 697 201 697 176.5 681.5 c 128,-1,18
 152 666 152 666 152 638 c 256,19,20
 152 610 152 610 180 590.5 c 128,-1,21
 208 571 208 571 284 543 c 0,22,23
 361 515 361 515 404 479 c 128,-1,24
 447 443 447 443 447 383 c 0,25,26
 447 332 447 332 424 299.5 c 128,-1,27
 401 267 401 267 372 250 c 1,28,29
 407 231 407 231 426.5 204.5 c 128,-1,30
 446 178 446 178 446 140 c 0,31,32
 446 71 446 71 388.5 33 c 128,-1,33
 331 -5 331 -5 228 -5 c 0,34,35
 173 -5 173 -5 132 3.5 c 128,-1,36
 91 12 91 12 59 28 c 1,37,-1
 59 103 l 1,38,39
 91 88 91 88 138 75 c 128,-1,40
 185 62 185 62 232 62 c 0,41,42
 306 62 306 62 334 83.5 c 128,-1,43
 362 105 362 105 362 133 c 0,44,45
 362 152 362 152 352.5 166 c 128,-1,46
 343 180 343 180 315.5 195.5 c 128,-1,47
 288 211 288 211 233 231 c 0,48,49
 181 251 181 251 143.5 272 c 128,-1,50
 106 293 106 293 86.5 322 c 128,-1,51
 67 351 67 351 67 395 c 0,0,1
142 405 m 0,52,53
 142 368 142 368 173.5 342.5 c 128,-1,54
 205 317 205 317 285 287 c 2,55,-1
 307 279 l 1,56,57
 330 293 330 293 350.5 314.5 c 128,-1,58
 371 336 371 336 371 370 c 0,59,60
 371 395 371 395 357.5 415 c 128,-1,61
 344 435 344 435 310 453.5 c 128,-1,62
 276 472 276 472 214 491 c 1,63,64
 186 484 186 484 164 461 c 128,-1,65
 142 438 142 438 142 405 c 0,52,53
EndSplineSet
Substitution2: "'ss04' Style Set 4 lookup 43 subtable" Idotaccent.salt
Substitution2: "'c2sc' Capitals to Small Capitals lookup 36 subtable" i.loclTRK.sc
AlternateSubs2: "'aalt' Access All Alternates lookup 1 subtable" Idotaccent.salt i.loclTRK.sc
EndChar

StartChar: IJ
Encoding: 306 306 219
Width: 572
GlyphClass: 2
Flags: W
LayerCount: 2
Fore
SplineSet
321 391 m 1,0,-1
 520 391 l 1,1,-1
 520 320 l 1,2,-1
 321 320 l 1,3,-1
 321 114 l 1,4,-1
 249 114 l 1,5,-1
 249 320 l 1,6,-1
 50 320 l 1,7,-1
 50 391 l 1,8,-1
 249 391 l 1,9,-1
 249 598 l 1,10,-1
 321 598 l 1,11,-1
 321 391 l 1,0,-1
50 0 m 1,12,-1
 50 71 l 1,13,-1
 521 71 l 1,14,-1
 521 0 l 1,15,-1
 50 0 l 1,12,-1
EndSplineSet
Substitution2: "'ss04' Style Set 4 lookup 43 subtable" IJ.salt
Substitution2: "'c2sc' Capitals to Small Capitals lookup 36 subtable" ij.sc
AlternateSubs2: "'aalt' Access All Alternates lookup 1 subtable" IJ.salt ij.sc
EndChar

StartChar: ij
Encoding: 307 307 220
Width: 572
GlyphClass: 2
Flags: W
LayerCount: 2
Fore
SplineSet
456 574 m 1,0,-1
 506 523 l 1,1,-1
 336 353 l 1,2,-1
 505 183 l 1,3,-1
 455 132 l 1,4,-1
 284 301 l 1,5,-1
 117 132 l 1,6,-1
 65 183 l 1,7,-1
 234 353 l 1,8,-1
 64 522 l 1,9,-1
 116 574 l 1,10,-1
 285 403 l 1,11,-1
 456 574 l 1,0,-1
EndSplineSet
Substitution2: "'smcp' Lowercase to Small Capitals lookup 37 subtable" ij.sc
Substitution2: "'aalt' Access All Alternates lookup 0 subtable" ij.sc
EndChar

StartChar: Jcircumflex
Encoding: 308 308 221
Width: 561
GlyphClass: 2
Flags: W
AnchorPoint: "Anchor-2" 511 536 basechar 0
AnchorPoint: "Anchor-1" 281 817 basechar 0
AnchorPoint: "Anchor-0" 281 0 basechar 0
LayerCount: 2
Fore
SplineSet
280 606 m 0,0,1
 231 606 231 606 201 634 c 0,2,3
 171 662 171 662 171 712 c 256,4,5
 171 762 171 762 201 789.5 c 0,6,7
 231 817 231 817 280 817 c 0,8,9
 327 817 327 817 359 789.5 c 0,10,11
 391 762 391 762 391 713 c 0,12,13
 391 662 391 662 359.5 634 c 0,14,15
 328 606 328 606 280 606 c 0,0,1
280 656 m 0,16,17
 305 656 305 656 320.5 671 c 0,18,19
 336 686 336 686 336 712 c 256,20,21
 336 738 336 738 320 753 c 0,22,23
 304 768 304 768 280 768 c 256,24,25
 256 768 256 768 240 753 c 0,26,27
 224 738 224 738 224 712 c 256,28,29
 224 686 224 686 238.5 671 c 0,30,31
 253 656 253 656 280 656 c 0,16,17
EndSplineSet
Refer: 68 97 N 1 0 0 1 0 0 3
Substitution2: "'ss04' Style Set 4 lookup 43 subtable" Jcircumflex.salt
Substitution2: "'c2sc' Capitals to Small Capitals lookup 36 subtable" jcircumflex.sc
AlternateSubs2: "'aalt' Access All Alternates lookup 1 subtable" Jcircumflex.salt jcircumflex.sc
EndChar

StartChar: jcircumflex
Encoding: 309 309 222
Width: 632
GlyphClass: 2
Flags: W
AnchorPoint: "Anchor-2" 460 536 basechar 0
AnchorPoint: "Anchor-1" 284 536 basechar 0
AnchorPoint: "Anchor-0" 281 -240 basechar 0
LayerCount: 2
Fore
SplineSet
382 -139 m 0,0,1
 382 -187 382 -187 345 -213.5 c 0,2,3
 308 -240 308 -240 234 -240 c 0,4,5
 202 -240 202 -240 184 -235 c 1,6,-1
 184 -180 l 1,7,8
 193 -182 193 -182 208 -183.5 c 0,9,10
 223 -185 223 -185 237 -185 c 0,11,12
 273 -185 273 -185 292 -175.5 c 0,13,14
 311 -166 311 -166 311 -141 c 0,15,16
 311 -115 311 -115 284.5 -103 c 0,17,18
 258 -91 258 -91 220 -86 c 1,19,-1
 263 0 l 1,20,-1
 321 0 l 1,21,-1
 295 -53 l 1,22,23
 331 -61 331 -61 356.5 -81 c 0,24,25
 382 -101 382 -101 382 -139 c 0,0,1
EndSplineSet
Refer: 70 99 N 1 0 0 1 0 0 3
Substitution2: "'smcp' Lowercase to Small Capitals lookup 37 subtable" jcircumflex.sc
Substitution2: "'aalt' Access All Alternates lookup 0 subtable" jcircumflex.sc
EndChar

StartChar: uni0136
Encoding: 310 310 223
Width: 618
GlyphClass: 2
Flags: W
AnchorPoint: "Anchor-2" 562 536 basechar 0
AnchorPoint: "Anchor-1" 309 817 basechar 0
AnchorPoint: "Anchor-0" 294 0 basechar 0
LayerCount: 2
Fore
SplineSet
308 606 m 0,0,1
 259 606 259 606 229 634 c 0,2,3
 199 662 199 662 199 712 c 256,4,5
 199 762 199 762 229 789.5 c 0,6,7
 259 817 259 817 308 817 c 0,8,9
 355 817 355 817 387 789.5 c 0,10,11
 419 762 419 762 419 713 c 0,12,13
 419 662 419 662 387.5 634 c 0,14,15
 356 606 356 606 308 606 c 0,0,1
308 656 m 0,16,17
 333 656 333 656 348.5 671 c 0,18,19
 364 686 364 686 364 712 c 256,20,21
 364 738 364 738 348 753 c 0,22,23
 332 768 332 768 308 768 c 256,24,25
 284 768 284 768 268 753 c 0,26,27
 252 738 252 738 252 712 c 256,28,29
 252 686 252 686 266.5 671 c 0,30,31
 281 656 281 656 308 656 c 0,16,17
EndSplineSet
Refer: 88 117 N 1 0 0 1 0 0 3
Substitution2: "'c2sc' Capitals to Small Capitals lookup 36 subtable" uni0137.sc
Substitution2: "'aalt' Access All Alternates lookup 0 subtable" uni0137.sc
EndChar

StartChar: uni0137
Encoding: 311 311 224
Width: 782
GlyphClass: 2
Flags: W
AnchorPoint: "Anchor-1" 391 714 basechar 0
AnchorPoint: "Anchor-0" 391 0 basechar 0
LayerCount: 2
Fore
SplineSet
720 358 m 256,0,1
 720 247 720 247 682.5 164.5 c 128,-1,2
 645 82 645 82 572 36 c 128,-1,3
 499 -10 499 -10 391 -10 c 0,4,5
 280 -10 280 -10 206.5 36 c 128,-1,6
 133 82 133 82 97 165 c 128,-1,7
 61 248 61 248 61 359 c 0,8,9
 61 469 61 469 97 551 c 128,-1,10
 133 633 133 633 206.5 679 c 128,-1,11
 280 725 280 725 392 725 c 0,12,13
 499 725 499 725 572 679.5 c 128,-1,14
 645 634 645 634 682.5 551.5 c 128,-1,15
 720 469 720 469 720 358 c 256,0,1
392 646 m 0,16,17
 280 646 280 646 223 581.5 c 128,-1,18
 166 517 166 517 157 403 c 1,19,-1
 623 403 l 1,20,21
 614 517 614 517 558.5 581.5 c 128,-1,22
 503 646 503 646 392 646 c 0,16,17
391 68 m 0,23,24
 505 68 505 68 561.5 136 c 128,-1,25
 618 204 618 204 624 325 c 1,26,-1
 157 325 l 1,27,28
 163 204 163 204 219.5 136 c 128,-1,29
 276 68 276 68 391 68 c 0,23,24
EndSplineSet
Substitution2: "'smcp' Lowercase to Small Capitals lookup 37 subtable" uni0137.sc
Substitution2: "'aalt' Access All Alternates lookup 0 subtable" uni0137.sc
EndChar

StartChar: kgreenlandic
Encoding: 312 312 225
Width: 572
GlyphClass: 2
Flags: W
AnchorPoint: "Anchor-1" 285 714 basechar 0
AnchorPoint: "Anchor-0" 285 0 basechar 0
LayerCount: 2
Fore
SplineSet
38 0 m 1,0,-1
 38 74 l 1,1,-1
 274 369 l 1,2,-1
 48 639 l 1,3,-1
 48 714 l 1,4,-1
 521 714 l 1,5,-1
 521 634 l 1,6,-1
 264 634 l 2,7,8
 242 634 242 634 210.5 634 c 128,-1,9
 179 634 179 634 163 635 c 1,10,-1
 368 392 l 1,11,-1
 368 365 l 1,12,-1
 141 80 l 1,13,14
 179 80 179 80 214.5 80.5 c 128,-1,15
 250 81 250 81 290 81 c 2,16,-1
 533 81 l 1,17,-1
 533 0 l 1,18,-1
 38 0 l 1,0,-1
EndSplineSet
EndChar

StartChar: Lacute
Encoding: 313 313 226
Width: 572
GlyphClass: 2
Flags: W
AnchorPoint: "Anchor-1" 286 714 basechar 0
AnchorPoint: "Anchor-0" 286 0 basechar 0
LayerCount: 2
Fore
SplineSet
79 407 m 1,0,-1
 263 407 l 1,1,-1
 414 634 l 1,2,-1
 50 634 l 1,3,-1
 50 714 l 1,4,-1
 523 714 l 1,5,-1
 523 646 l 1,6,-1
 364 407 l 1,7,-1
 486 407 l 1,8,-1
 486 336 l 1,9,-1
 317 336 l 1,10,-1
 147 80 l 1,11,-1
 533 80 l 1,12,-1
 533 0 l 1,13,-1
 38 0 l 1,14,-1
 38 68 l 1,15,-1
 216 336 l 1,16,-1
 79 336 l 1,17,-1
 79 407 l 1,0,-1
EndSplineSet
Substitution2: "'c2sc' Capitals to Small Capitals lookup 36 subtable" lacute.sc
Substitution2: "'aalt' Access All Alternates lookup 0 subtable" lacute.sc
EndChar

StartChar: lacute
Encoding: 314 314 227
Width: 470
GlyphClass: 2
Flags: W
AnchorPoint: "Anchor-1" 235 536 basechar 0
AnchorPoint: "Anchor-0" 235 0 basechar 0
LayerCount: 2
Fore
SplineSet
424 536 m 1,0,-1
 424 470 l 1,1,-1
 313 313 l 1,2,-1
 414 313 l 1,3,-1
 414 243 l 1,4,-1
 263 243 l 1,5,-1
 140 68 l 1,6,-1
 431 68 l 1,7,-1
 431 0 l 1,8,-1
 39 0 l 1,9,-1
 39 58 l 1,10,-1
 169 243 l 1,11,-1
 57 243 l 1,12,-1
 57 313 l 1,13,-1
 218 313 l 1,14,-1
 327 468 l 1,15,-1
 56 468 l 1,16,-1
 56 536 l 1,17,-1
 424 536 l 1,0,-1
EndSplineSet
Substitution2: "'smcp' Lowercase to Small Capitals lookup 37 subtable" lacute.sc
Substitution2: "'aalt' Access All Alternates lookup 0 subtable" lacute.sc
EndChar

StartChar: uni013B
Encoding: 315 315 228
Width: 584
GlyphClass: 2
Flags: W
AnchorPoint: "Anchor-1" 292 714 basechar 0
AnchorPoint: "Anchor-0" 292 0 basechar 0
LayerCount: 2
Fore
SplineSet
499 714 m 1,0,-1
 499 643 l 1,1,-1
 254 407 l 1,2,3
 382 403 382 403 455.5 353 c 128,-1,4
 529 303 529 303 529 204 c 0,5,6
 529 110 529 110 458 50 c 128,-1,7
 387 -10 387 -10 241 -10 c 0,8,9
 183 -10 183 -10 131.5 -1.5 c 128,-1,10
 80 7 80 7 35 29 c 1,11,-1
 35 111 l 1,12,13
 82 89 82 89 137 76.5 c 128,-1,14
 192 64 192 64 242 64 c 0,15,16
 339 64 339 64 387 101 c 128,-1,17
 435 138 435 138 435 205 c 256,18,19
 435 272 435 272 378.5 303 c 128,-1,20
 322 334 322 334 217 334 c 2,21,-1
 150 334 l 1,22,-1
 150 407 l 1,23,-1
 385 634 l 1,24,-1
 55 634 l 1,25,-1
 55 714 l 1,26,-1
 499 714 l 1,0,-1
EndSplineSet
Substitution2: "'c2sc' Capitals to Small Capitals lookup 36 subtable" uni013C.sc
Substitution2: "'locl' Localized Forms in Latin lookup 11 subtable" uni013B.loclMAH
AlternateSubs2: "'aalt' Access All Alternates lookup 1 subtable" uni013B.loclMAH uni013C.sc
EndChar

StartChar: uni013C
Encoding: 316 316 229
Width: 516
GlyphClass: 2
Flags: W
AnchorPoint: "Anchor-1" 258 760 basechar 0
AnchorPoint: "Anchor-0" 258 -1 basechar 0
LayerCount: 2
Fore
SplineSet
297 760 m 1,0,-1
 297 507 l 1,1,-1
 451 507 l 1,2,-1
 451 435 l 1,3,-1
 297 435 l 1,4,-1
 297 339 l 1,5,-1
 451 339 l 1,6,-1
 451 267 l 1,7,-1
 297 267 l 1,8,-1
 297 0 l 1,9,-1
 219 0 l 1,10,-1
 219 267 l 1,11,-1
 65 267 l 1,12,-1
 65 339 l 1,13,-1
 219 339 l 1,14,-1
 219 435 l 1,15,-1
 65 435 l 1,16,-1
 65 507 l 1,17,-1
 219 507 l 1,18,-1
 219 760 l 1,19,-1
 297 760 l 1,0,-1
EndSplineSet
Substitution2: "'smcp' Lowercase to Small Capitals lookup 37 subtable" uni013C.sc
Substitution2: "'locl' Localized Forms in Latin lookup 11 subtable" uni013C.loclMAH
AlternateSubs2: "'aalt' Access All Alternates lookup 1 subtable" uni013C.loclMAH uni013C.sc
EndChar

StartChar: Lcaron
Encoding: 317 317 230
Width: 561
GlyphClass: 2
Flags: W
AnchorPoint: "Anchor-1" 281 958 basechar 0
AnchorPoint: "Anchor-0" 281 0 basechar 0
LayerCount: 2
Fore
SplineSet
446 952 m 1,0,1
 436 941 436 941 408 922.5 c 128,-1,2
 380 904 380 904 348 886 c 128,-1,3
 316 868 316 868 293 856 c 1,4,-1
 230 856 l 1,5,-1
 230 864 l 1,6,7
 251 883 251 883 275 909.5 c 128,-1,8
 299 936 299 936 315 958 c 1,9,-1
 446 958 l 1,10,-1
 446 952 l 1,0,1
285 817 m 0,11,12
 332 817 332 817 364 789.5 c 128,-1,13
 396 762 396 762 396 713 c 0,14,15
 396 662 396 662 364.5 634 c 128,-1,16
 333 606 333 606 285 606 c 0,17,18
 236 606 236 606 206 634 c 128,-1,19
 176 662 176 662 176 712 c 256,20,21
 176 762 176 762 206 789.5 c 128,-1,22
 236 817 236 817 285 817 c 0,11,12
285 768 m 256,23,24
 261 768 261 768 245 753 c 128,-1,25
 229 738 229 738 229 712 c 256,26,27
 229 686 229 686 243.5 671 c 128,-1,28
 258 656 258 656 285 656 c 0,29,30
 310 656 310 656 325.5 671 c 128,-1,31
 341 686 341 686 341 712 c 256,32,33
 341 738 341 738 325 753 c 128,-1,34
 309 768 309 768 285 768 c 256,23,24
288 545 m 0,35,36
 386 545 386 545 433 502 c 128,-1,37
 480 459 480 459 480 365 c 2,38,-1
 480 0 l 1,39,-1
 416 0 l 1,40,-1
 399 76 l 1,41,-1
 395 76 l 1,42,43
 360 32 360 32 321.5 11 c 128,-1,44
 283 -10 283 -10 215 -10 c 0,45,46
 142 -10 142 -10 94 28.5 c 128,-1,47
 46 67 46 67 46 149 c 0,48,49
 46 229 46 229 109 272.5 c 128,-1,50
 172 316 172 316 303 320 c 2,51,-1
 394 323 l 1,52,-1
 394 355 l 2,53,54
 394 422 394 422 365 448 c 128,-1,55
 336 474 336 474 283 474 c 0,56,57
 241 474 241 474 203 461.5 c 128,-1,58
 165 449 165 449 132 433 c 1,59,-1
 105 499 l 1,60,61
 140 518 140 518 188 531.5 c 128,-1,62
 236 545 236 545 288 545 c 0,35,36
314 259 m 2,63,64
 214 255 214 255 175.5 227 c 128,-1,65
 137 199 137 199 137 148 c 0,66,67
 137 103 137 103 164.5 82 c 128,-1,68
 192 61 192 61 235 61 c 0,69,70
 303 61 303 61 348 98.5 c 128,-1,71
 393 136 393 136 393 214 c 2,72,-1
 393 262 l 1,73,-1
 314 259 l 2,63,64
EndSplineSet
Substitution2: "'c2sc' Capitals to Small Capitals lookup 36 subtable" lcaron.sc
Substitution2: "'aalt' Access All Alternates lookup 0 subtable" lcaron.sc
EndChar

StartChar: lcaron
Encoding: 318 318 231
Width: 731
GlyphClass: 2
Flags: W
AnchorPoint: "Anchor-2" 711 714 basechar 0
AnchorPoint: "Anchor-1" 366 714 basechar 0
AnchorPoint: "Anchor-0" 364 0 basechar 0
LayerCount: 2
Fore
SplineSet
10 354 m 1,0,-1
 10 432 l 1,1,-1
 90 432 l 1,2,-1
 90 714 l 1,3,-1
 180 714 l 1,4,-1
 180 432 l 1,5,-1
 551 432 l 1,6,-1
 551 714 l 1,7,-1
 640 714 l 1,8,-1
 640 432 l 1,9,-1
 721 432 l 1,10,-1
 721 354 l 1,11,-1
 640 354 l 1,12,-1
 640 252 l 2,13,14
 640 178 640 178 610 118.5 c 128,-1,15
 580 59 580 59 518.5 24.5 c 128,-1,16
 457 -10 457 -10 362 -10 c 0,17,18
 229 -10 229 -10 159.5 62.5 c 128,-1,19
 90 135 90 135 90 254 c 2,20,-1
 90 354 l 1,21,-1
 10 354 l 1,0,-1
180 251 m 2,22,23
 180 164 180 164 226.5 116 c 128,-1,24
 273 68 273 68 367 68 c 0,25,26
 464 68 464 68 507.5 119.5 c 128,-1,27
 551 171 551 171 551 252 c 2,28,-1
 551 354 l 1,29,-1
 180 354 l 1,30,-1
 180 251 l 2,22,23
EndSplineSet
Substitution2: "'smcp' Lowercase to Small Capitals lookup 37 subtable" lcaron.sc
Substitution2: "'aalt' Access All Alternates lookup 0 subtable" lcaron.sc
EndChar

StartChar: Ldot
Encoding: 319 319 232
Width: 609
GlyphClass: 2
Flags: W
AnchorPoint: "Anchor-1" 304 714 basechar 0
AnchorPoint: "Anchor-0" 304 0 basechar 0
LayerCount: 2
Fore
SplineSet
0 0 m 1,0,-1
 264 717 l 1,1,-1
 345 717 l 1,2,-1
 608 0 l 1,3,-1
 515 0 l 1,4,-1
 337 517 l 2,5,6
 334 525 334 525 327 546 c 128,-1,7
 320 567 320 567 313.5 589.5 c 128,-1,8
 307 612 307 612 303 624 c 1,9,10
 296 593 296 593 287 563.5 c 128,-1,11
 278 534 278 534 272 517 c 2,12,-1
 91 0 l 1,13,-1
 0 0 l 1,0,-1
EndSplineSet
Substitution2: "'c2sc' Capitals to Small Capitals lookup 36 subtable" ldot.sc
Ligature2: "Ligature Substitution lookup 14 subtable" L periodcentered
Substitution2: "'aalt' Access All Alternates lookup 0 subtable" ldot.sc
EndChar

StartChar: ldot
Encoding: 320 320 233
Width: 556
GlyphClass: 2
Flags: W
AnchorPoint: "Anchor-2" 536 714 basechar 0
AnchorPoint: "Anchor-1" 305 714 basechar 0
AnchorPoint: "Anchor-0" 300 0 basechar 0
LayerCount: 2
Fore
SplineSet
496 0 m 1,0,-1
 266 0 l 1,1,-1
 247 -75 l 1,2,-1
 182 -75 l 1,3,-1
 201 0 l 1,4,-1
 97 0 l 1,5,-1
 97 714 l 1,6,-1
 382 714 l 1,7,-1
 394 760 l 1,8,-1
 459 760 l 1,9,-1
 447 714 l 1,10,-1
 496 714 l 1,11,-1
 496 635 l 1,12,-1
 427 635 l 1,13,-1
 371 412 l 1,14,-1
 478 412 l 1,15,-1
 478 334 l 1,16,-1
 351 334 l 1,17,-1
 286 79 l 1,18,-1
 496 79 l 1,19,-1
 496 0 l 1,0,-1
187 412 m 1,20,-1
 306 412 l 1,21,-1
 362 635 l 1,22,-1
 187 635 l 1,23,-1
 187 412 l 1,20,-1
187 79 m 1,24,-1
 221 79 l 1,25,-1
 286 334 l 1,26,-1
 187 334 l 1,27,-1
 187 79 l 1,24,-1
EndSplineSet
Substitution2: "'smcp' Lowercase to Small Capitals lookup 37 subtable" ldot.sc
Ligature2: "Ligature Substitution lookup 13 subtable" l periodcentered
Substitution2: "'aalt' Access All Alternates lookup 0 subtable" ldot.sc
EndChar

StartChar: Lslash
Encoding: 321 321 234
Width: 564
GlyphClass: 2
Flags: W
AnchorPoint: "Anchor-2" 544 536 basechar 0
AnchorPoint: "Anchor-1" 285 760 basechar 0
AnchorPoint: "Anchor-0" 301 -208 basechar 0
LayerCount: 2
Fore
SplineSet
292 546 m 0,0,1
 315 546 315 546 337 542 c 1,2,-1
 412 760 l 1,3,-1
 479 760 l 1,4,-1
 397 523 l 1,5,6
 452 495 452 495 482.5 438.5 c 128,-1,7
 513 382 513 382 513 304 c 2,8,-1
 513 251 l 1,9,-1
 303 251 l 1,10,-1
 243 78 l 1,11,12
 275 65 275 65 317 65 c 0,13,14
 368 65 368 65 407.5 74.5 c 128,-1,15
 447 84 447 84 489 102 c 1,16,-1
 489 25 l 1,17,18
 448 7 448 7 408 -1.5 c 128,-1,19
 368 -10 368 -10 313 -10 c 0,20,21
 261 -10 261 -10 217 4 c 1,22,-1
 144 -208 l 1,23,-1
 77 -208 l 1,24,-1
 160 32 l 1,25,26
 111 65 111 65 83 123.5 c 128,-1,27
 55 182 55 182 55 264 c 0,28,29
 55 352 55 352 84.5 415 c 128,-1,30
 114 478 114 478 167.5 512 c 128,-1,31
 221 546 221 546 292 546 c 0,0,1
291 474 m 0,32,33
 228 474 228 474 191.5 433.5 c 128,-1,34
 155 393 155 393 148 321 c 1,35,-1
 260 321 l 1,36,-1
 313 473 l 1,37,38
 302 474 302 474 291 474 c 0,32,33
421 321 m 1,39,40
 421 363 421 363 408.5 396.5 c 128,-1,41
 396 430 396 430 371 449 c 1,42,-1
 327 321 l 1,43,-1
 421 321 l 1,39,40
146 251 m 1,44,45
 148 164 148 164 189 116 c 1,46,-1
 236 251 l 1,47,-1
 146 251 l 1,44,45
EndSplineSet
Substitution2: "'c2sc' Capitals to Small Capitals lookup 36 subtable" lslash.sc
Substitution2: "'aalt' Access All Alternates lookup 0 subtable" lslash.sc
EndChar

StartChar: lslash
Encoding: 322 322 235
Width: 258
GlyphClass: 2
Flags: W
AnchorPoint: "Anchor-2" 238 737 basechar 0
AnchorPoint: "Anchor-1" 129 737 basechar 0
AnchorPoint: "Anchor-0" 131 0 basechar 0
LayerCount: 2
Fore
SplineSet
130 737 m 0,0,1
 150 737 150 737 165.5 723.5 c 128,-1,2
 181 710 181 710 181 681 c 0,3,4
 181 653 181 653 165.5 639 c 128,-1,5
 150 625 150 625 130 625 c 0,6,7
 108 625 108 625 93 639 c 128,-1,8
 78 653 78 653 78 681 c 0,9,10
 78 710 78 710 93 723.5 c 128,-1,11
 108 737 108 737 130 737 c 0,0,1
248 319 m 1,12,-1
 248 248 l 1,13,-1
 173 248 l 1,14,-1
 173 0 l 1,15,-1
 85 0 l 1,16,-1
 85 248 l 1,17,-1
 10 248 l 1,18,-1
 10 319 l 1,19,-1
 85 319 l 1,20,-1
 85 536 l 1,21,-1
 173 536 l 1,22,-1
 173 319 l 1,23,-1
 248 319 l 1,12,-1
EndSplineSet
Substitution2: "'smcp' Lowercase to Small Capitals lookup 37 subtable" lslash.sc
Substitution2: "'aalt' Access All Alternates lookup 0 subtable" lslash.sc
EndChar

StartChar: Nacute
Encoding: 323 323 236
Width: 332
GlyphClass: 2
Flags: W
AnchorPoint: "Anchor-1" 134 536 basechar 0
AnchorPoint: "Anchor-0" 198 0 basechar 0
LayerCount: 2
Fore
SplineSet
233 -10 m 0,0,1
 154 -10 154 -10 118 32.5 c 128,-1,2
 82 75 82 75 82 150 c 2,3,-1
 82 536 l 1,4,-1
 170 536 l 1,5,-1
 170 147 l 2,6,7
 170 98 170 98 191 80.5 c 128,-1,8
 212 63 212 63 244 63 c 0,9,10
 264 63 264 63 279.5 66 c 128,-1,11
 295 69 295 69 310 73 c 1,12,-1
 310 2 l 1,13,14
 297 -3 297 -3 278 -6.5 c 128,-1,15
 259 -10 259 -10 233 -10 c 0,0,1
EndSplineSet
Substitution2: "'c2sc' Capitals to Small Capitals lookup 36 subtable" nacute.sc
Substitution2: "'aalt' Access All Alternates lookup 0 subtable" nacute.sc
EndChar

StartChar: nacute
Encoding: 324 324 237
Width: 605
GlyphClass: 2
Flags: W
AnchorPoint: "Anchor-1" 303 536 basechar 0
AnchorPoint: "Anchor-0" 303 0 basechar 0
LayerCount: 2
Fore
SplineSet
551 269 m 0,0,1
 551 136 551 136 483.5 63 c 128,-1,2
 416 -10 416 -10 301 -10 c 0,3,4
 230 -10 230 -10 174.5 22.5 c 128,-1,5
 119 55 119 55 87 117.5 c 128,-1,6
 55 180 55 180 55 269 c 0,7,8
 55 402 55 402 122 474 c 128,-1,9
 189 546 189 546 304 546 c 0,10,11
 377 546 377 546 432.5 513.5 c 128,-1,12
 488 481 488 481 519.5 419.5 c 128,-1,13
 551 358 551 358 551 269 c 0,0,1
302 472 m 0,14,15
 228 472 228 472 191 431.5 c 128,-1,16
 154 391 154 391 147 312 c 1,17,-1
 459 312 l 1,18,19
 452 391 452 391 413.5 431.5 c 128,-1,20
 375 472 375 472 302 472 c 0,14,15
303 63 m 0,21,22
 380 63 380 63 417 108 c 128,-1,23
 454 153 454 153 459 239 c 1,24,-1
 146 239 l 1,25,26
 151 153 151 153 189 108 c 128,-1,27
 227 63 227 63 303 63 c 0,21,22
EndSplineSet
Substitution2: "'smcp' Lowercase to Small Capitals lookup 37 subtable" nacute.sc
Substitution2: "'aalt' Access All Alternates lookup 0 subtable" nacute.sc
EndChar

StartChar: omacron
Encoding: 333 333 238
Width: 781
GlyphClass: 2
Flags: W
AnchorPoint: "Anchor-3" 391 357 basechar 0
AnchorPoint: "Anchor-2" 761 714 basechar 0
AnchorPoint: "Anchor-1" 391 725 basechar 0
AnchorPoint: "Anchor-0" 392 0 basechar 0
LayerCount: 2
Fore
SplineSet
720 358 m 256,0,1
 720 247 720 247 682.5 164.5 c 0,2,3
 645 82 645 82 572 36 c 0,4,5
 499 -10 499 -10 391 -10 c 0,6,7
 280 -10 280 -10 206.5 36 c 0,8,9
 133 82 133 82 97 165 c 0,10,11
 61 248 61 248 61 359 c 0,12,13
 61 469 61 469 97 551 c 0,14,15
 133 633 133 633 206.5 679 c 0,16,17
 280 725 280 725 392 725 c 0,18,19
 499 725 499 725 572 679.5 c 0,20,21
 645 634 645 634 682.5 551.5 c 0,22,23
 720 469 720 469 720 358 c 256,0,1
156 358 m 256,24,25
 156 223 156 223 213 145.5 c 0,26,27
 270 68 270 68 391 68 c 0,28,29
 513 68 513 68 569 145.5 c 0,30,31
 625 223 625 223 625 358 c 256,32,33
 625 493 625 493 569 569.5 c 0,34,35
 513 646 513 646 392 646 c 256,36,37
 271 646 271 646 213.5 569.5 c 0,38,39
 156 493 156 493 156 358 c 256,24,25
EndSplineSet
Refer: 17 46 N 1 0 0 1 257 299 2
Substitution2: "'smcp' Lowercase to Small Capitals lookup 37 subtable" omacron.sc
Substitution2: "'aalt' Access All Alternates lookup 0 subtable" omacron.sc
EndChar

StartChar: Obreve
Encoding: 334 334 239
Width: 183
GlyphClass: 2
Flags: W
LayerCount: 2
Fore
SplineSet
92 737 m 0,0,1
 112 737 112 737 127.5 723.5 c 128,-1,2
 143 710 143 710 143 681 c 0,3,4
 143 653 143 653 127.5 639 c 128,-1,5
 112 625 112 625 92 625 c 0,6,7
 70 625 70 625 55 639 c 128,-1,8
 40 653 40 653 40 681 c 0,9,10
 40 710 40 710 55 723.5 c 128,-1,11
 70 737 70 737 92 737 c 0,0,1
EndSplineSet
Substitution2: "'c2sc' Capitals to Small Capitals lookup 36 subtable" obreve.sc
Substitution2: "'aalt' Access All Alternates lookup 0 subtable" obreve.sc
EndChar

StartChar: obreve
Encoding: 335 335 240
Width: 300
GlyphClass: 2
Flags: W
LayerCount: 2
Fore
SplineSet
149 606 m 0,0,1
 100 606 100 606 70 634 c 128,-1,2
 40 662 40 662 40 712 c 256,3,4
 40 762 40 762 70 789.5 c 128,-1,5
 100 817 100 817 149 817 c 0,6,7
 196 817 196 817 228 789.5 c 128,-1,8
 260 762 260 762 260 713 c 0,9,10
 260 662 260 662 228.5 634 c 128,-1,11
 197 606 197 606 149 606 c 0,0,1
149 656 m 0,12,13
 174 656 174 656 189.5 671 c 128,-1,14
 205 686 205 686 205 712 c 256,15,16
 205 738 205 738 189 753 c 128,-1,17
 173 768 173 768 149 768 c 256,18,19
 125 768 125 768 109 753 c 128,-1,20
 93 738 93 738 93 712 c 256,21,22
 93 686 93 686 107.5 671 c 128,-1,23
 122 656 122 656 149 656 c 0,12,13
EndSplineSet
Substitution2: "'smcp' Lowercase to Small Capitals lookup 37 subtable" obreve.sc
Substitution2: "'aalt' Access All Alternates lookup 0 subtable" obreve.sc
EndChar

StartChar: Ohungarumlaut
Encoding: 336 336 241
Width: 447
GlyphClass: 2
Flags: W
LayerCount: 2
Fore
SplineSet
40 606 m 1,0,1
 46 665 46 665 74.5 699.5 c 128,-1,2
 103 734 103 734 150 734 c 0,3,4
 180 734 180 734 206.5 719.5 c 128,-1,5
 233 705 233 705 257 691 c 128,-1,6
 281 677 281 677 302 677 c 0,7,8
 325 677 325 677 337.5 691.5 c 128,-1,9
 350 706 350 706 357 735 c 1,10,-1
 407 735 l 1,11,12
 401 677 401 677 373 642 c 128,-1,13
 345 607 345 607 298 607 c 0,14,15
 270 607 270 607 243.5 621 c 128,-1,16
 217 635 217 635 192.5 649.5 c 128,-1,17
 168 664 168 664 146 664 c 0,18,19
 122 664 122 664 110 649.5 c 128,-1,20
 98 635 98 635 91 606 c 1,21,-1
 40 606 l 1,0,1
EndSplineSet
Substitution2: "'c2sc' Capitals to Small Capitals lookup 36 subtable" ohungarumlaut.sc
Substitution2: "'aalt' Access All Alternates lookup 0 subtable" ohungarumlaut.sc
EndChar

StartChar: uni0157
Encoding: 343 343 242
Width: 374
GlyphClass: 2
Flags: W
LayerCount: 2
Fore
SplineSet
85 0 m 1,0,-1
 85 536 l 1,1,-1
 173 536 l 1,2,-1
 173 313 l 1,3,-1
 352 313 l 1,4,-1
 352 239 l 1,5,-1
 173 239 l 1,6,-1
 173 0 l 1,7,-1
 85 0 l 1,0,-1
EndSplineSet
Substitution2: "'smcp' Lowercase to Small Capitals lookup 37 subtable" uni0157.sc
Substitution2: "'aalt' Access All Alternates lookup 0 subtable" uni0157.sc
EndChar

StartChar: Rcaron
Encoding: 344 344 243
Width: 643
GlyphClass: 2
Flags: W
AnchorPoint: "Anchor-1" 330 536 basechar 0
AnchorPoint: "Anchor-0" 322 0 basechar 0
LayerCount: 2
Fore
SplineSet
168 209 m 2,0,1
 168 197 168 197 167 173 c 128,-1,2
 166 149 166 149 164.5 125 c 128,-1,3
 163 101 163 101 162 87 c 1,4,-1
 449 536 l 1,5,-1
 557 536 l 1,6,-1
 557 0 l 1,7,-1
 475 0 l 1,8,-1
 475 316 l 2,9,10
 475 332 475 332 475.5 358 c 128,-1,11
 476 384 476 384 477 409.5 c 128,-1,12
 478 435 478 435 479 448 c 1,13,-1
 194 0 l 1,14,-1
 85 0 l 1,15,-1
 85 536 l 1,16,-1
 168 536 l 1,17,-1
 168 209 l 2,0,1
EndSplineSet
Substitution2: "'c2sc' Capitals to Small Capitals lookup 36 subtable" rcaron.sc
Substitution2: "'aalt' Access All Alternates lookup 0 subtable" rcaron.sc
EndChar

StartChar: Sacute
Encoding: 346 346 245
Width: 499
GlyphClass: 2
Flags: W
LayerCount: 2
Fore
SplineSet
97 0 m 1,0,-1
 97 714 l 1,1,-1
 476 714 l 1,2,-1
 476 635 l 1,3,-1
 187 635 l 1,4,-1
 187 0 l 1,5,-1
 97 0 l 1,0,-1
EndSplineSet
Substitution2: "'c2sc' Capitals to Small Capitals lookup 36 subtable" sacute.sc
Substitution2: "'aalt' Access All Alternates lookup 0 subtable" sacute.sc
EndChar

StartChar: sacute
Encoding: 347 347 246
Width: 639
GlyphClass: 2
Flags: W
LayerCount: 2
Fore
SplineSet
10 0 m 1,0,-1
 10 50 l 1,1,-1
 279 717 l 1,2,-1
 360 717 l 1,3,-1
 628 50 l 1,4,-1
 628 0 l 1,5,-1
 10 0 l 1,0,-1
113 81 m 1,6,-1
 524 81 l 1,7,-1
 357 517 l 2,8,9
 354 525 354 525 346 546 c 128,-1,10
 338 567 338 567 330.5 589.5 c 128,-1,11
 323 612 323 612 319 624 c 1,12,13
 312 593 312 593 301 563.5 c 128,-1,14
 290 534 290 534 284 517 c 2,15,-1
 113 81 l 1,6,-1
EndSplineSet
Substitution2: "'smcp' Lowercase to Small Capitals lookup 37 subtable" sacute.sc
Substitution2: "'aalt' Access All Alternates lookup 0 subtable" sacute.sc
EndChar

StartChar: Scircumflex
Encoding: 348 348 247
Width: 781
GlyphClass: 2
Flags: W
AnchorPoint: "Anchor-3" 391 357 basechar 0
AnchorPoint: "Anchor-2" 761 714 basechar 0
AnchorPoint: "Anchor-1" 391 714 basechar 0
AnchorPoint: "Anchor-0" 392 0 basechar 0
LayerCount: 2
Fore
SplineSet
720 358 m 256,0,1
 720 247 720 247 682.5 164.5 c 128,-1,2
 645 82 645 82 572 36 c 128,-1,3
 499 -10 499 -10 391 -10 c 0,4,5
 280 -10 280 -10 206.5 36 c 128,-1,6
 133 82 133 82 97 165 c 128,-1,7
 61 248 61 248 61 359 c 0,8,9
 61 469 61 469 97 551 c 128,-1,10
 133 633 133 633 206.5 679 c 128,-1,11
 280 725 280 725 392 725 c 0,12,13
 499 725 499 725 572 679.5 c 128,-1,14
 645 634 645 634 682.5 551.5 c 128,-1,15
 720 469 720 469 720 358 c 256,0,1
156 358 m 256,16,17
 156 223 156 223 213 145.5 c 128,-1,18
 270 68 270 68 391 68 c 0,19,20
 513 68 513 68 569 145.5 c 128,-1,21
 625 223 625 223 625 358 c 256,22,23
 625 493 625 493 569 569.5 c 128,-1,24
 513 646 513 646 392 646 c 256,25,26
 271 646 271 646 213.5 569.5 c 128,-1,27
 156 493 156 493 156 358 c 256,16,17
240 324 m 1,28,-1
 240 402 l 1,29,-1
 542 402 l 1,30,-1
 542 324 l 1,31,-1
 240 324 l 1,28,-1
EndSplineSet
Substitution2: "'c2sc' Capitals to Small Capitals lookup 36 subtable" scircumflex.sc
Substitution2: "'aalt' Access All Alternates lookup 0 subtable" scircumflex.sc
EndChar

StartChar: scircumflex
Encoding: 349 349 248
Width: 609
GlyphClass: 2
Flags: W
LayerCount: 2
Fore
SplineSet
0 0 m 1,0,-1
 264 717 l 1,1,-1
 345 717 l 1,2,-1
 608 0 l 1,3,-1
 515 0 l 1,4,-1
 337 517 l 2,5,6
 334 525 334 525 327 546 c 128,-1,7
 320 567 320 567 313.5 589.5 c 128,-1,8
 307 612 307 612 303 624 c 1,9,10
 296 593 296 593 287 563.5 c 128,-1,11
 278 534 278 534 272 517 c 2,12,-1
 91 0 l 1,13,-1
 0 0 l 1,0,-1
EndSplineSet
Substitution2: "'smcp' Lowercase to Small Capitals lookup 37 subtable" scircumflex.sc
Substitution2: "'aalt' Access All Alternates lookup 0 subtable" scircumflex.sc
EndChar

StartChar: Scedilla
Encoding: 350 350 249
Width: 624
GlyphClass: 2
Flags: W
LayerCount: 2
Fore
SplineSet
80 633 m 1,0,-1
 80 714 l 1,1,-1
 544 714 l 1,2,-1
 544 633 l 1,3,-1
 80 633 l 1,0,-1
120 333 m 1,4,-1
 120 414 l 1,5,-1
 504 414 l 1,6,-1
 504 333 l 1,7,-1
 120 333 l 1,4,-1
60 0 m 1,8,-1
 60 81 l 1,9,-1
 564 81 l 1,10,-1
 564 0 l 1,11,-1
 60 0 l 1,8,-1
EndSplineSet
Substitution2: "'c2sc' Capitals to Small Capitals lookup 36 subtable" scedilla.sc
Substitution2: "'locl' Localized Forms in Latin lookup 10 subtable" uni0218
Substitution2: "'locl' Localized Forms in Latin lookup 9 subtable" uni0218
AlternateSubs2: "'aalt' Access All Alternates lookup 1 subtable" uni0218 scedilla.sc
EndChar

StartChar: scedilla
Encoding: 351 351 250
Width: 731
GlyphClass: 2
Flags: W
LayerCount: 2
Fore
SplineSet
97 0 m 1,0,-1
 97 714 l 1,1,-1
 633 714 l 1,2,-1
 633 0 l 1,3,-1
 544 0 l 1,4,-1
 544 635 l 1,5,-1
 187 635 l 1,6,-1
 187 0 l 1,7,-1
 97 0 l 1,0,-1
EndSplineSet
Substitution2: "'smcp' Lowercase to Small Capitals lookup 37 subtable" scedilla.sc
Substitution2: "'locl' Localized Forms in Latin lookup 10 subtable" uni0219
Substitution2: "'locl' Localized Forms in Latin lookup 9 subtable" uni0219
AlternateSubs2: "'aalt' Access All Alternates lookup 1 subtable" uni0219 scedilla.sc
EndChar

